<?xml version="1.0" standalone="no"?>
<!DOCTYPE svg PUBLIC "-//W3C//DTD SVG 1.1//EN" "http://www.w3.org/Graphics/SVG/1.1/DTD/svg11.dtd" >
<svg  xmlns="http://www.w3.org/2000/svg">
<metadata>
Created by FontForge 20120702 at Sat Dec 29 18:32:04 2012

Copyright (c) 2012 by Lao Script for Windows. All rights reserved.
</metadata>
<defs>
<font id="SaysetthaWeb" horiz-adv-x="0" >
  <font-face 
    font-family="Saysettha Web"
    font-weight="400"
    font-stretch="normal"
    units-per-em="2048"
    panose-1="2 11 5 4 2 2 7 2 2 4"
    ascent="2148"
    descent="100"
    x-height="1053"
    cap-height="1450"
    bbox="-1191.5 -1056 2579 2291"
    underline-thickness="40"
    underline-position="-232"
    unicode-range="U+000D-E026"
  />
<missing-glyph horiz-adv-x="1638" 
d="M102 0v1638h1434v-1638h-1434zM1434 102v1434h-1230v-1434h1230z" />
    <glyph glyph-name="uniE006" unicode="&#xecd;&#xec8;" 
d="M-392 1537q0 -43 -17.5 -83t-47.5 -70.5t-70.5 -49t-87.5 -18.5q-45 0 -85.5 16.5t-71 45.5t-49 70t-18.5 89q0 47 17.5 88t47.5 71.5t71 48t88 17.5q45 0 85 -16.5t71 -46t49 -71t18 -91.5zM-515 1541q0 21 -8 39t-21.5 31.5t-31.5 21t-39 7.5q-22 0 -40.5 -8.5t-32 -22
t-21 -31.5t-7.5 -37q0 -39 26.5 -69.5t74.5 -30.5q17 0 34.5 6.5t32 19t24 31t9.5 43.5zM-670 1874.95v387.011h109v-387.011h-109z" />
    <glyph glyph-name="uniE007" unicode="&#xeb1;&#xec8;" 
d="M-861 1583q0 38 -26 64t-64 26q-18 0 -34.5 -7t-29 -19t-19.5 -28.5t-7 -35.5q0 -37 26.5 -63.5t63.5 -26.5q19 0 35.5 7t28.5 19.5t19 29t7 34.5zM-103 1749q1 -111 -44 -196t-120 -142.5t-171 -87t-197 -29.5q-45 0 -100.5 5t-112 17.5t-110 34t-95.5 53.5t-67 76
t-25 103q0 39 13.5 72.5t37.5 58t57 39t72 14.5q34 0 69.5 -13t64.5 -36t47 -55t18 -70q0 -43 -13.5 -75.5t-44.5 -63.5q17 -8 38.5 -14t44 -10.5t44 -6.5t39.5 -2q79 0 154.5 17t134 55.5t94 101t35.5 154.5h137zM-670 1861v430h109v-430h-109z" />
    <glyph glyph-name="uniE008" unicode="&#xeb4;&#xec8;" 
d="M-567 1368q0 58 98 76q137 39 151 127q-10 134 -359 154q-349 -20 -359 -154q12 -88 151 -127q98 -18 98 -76q0 -54 -86 -53q-270 70 -288 256q14 255 484 278q470 -23 484 -278q-17 -185 -288 -256q-86 -1 -86 53zM-729 1899.95v387.011h109v-387.011h-109z" />
    <glyph glyph-name="uniE009" unicode="&#xeb5;&#xec8;" 
d="M-37 1350q-191 -44 -444 -35q-86 -1 -86 53q0 58 98 76q137 39 151 127q-10 134 -359 154q-349 -20 -359 -154q12 -88 151 -127q98 -18 98 -76q0 -54 -86 -53q-270 70 -288 256q14 255 484 278q470 -23 484 -278q-4 -72 -32.5 -101.5l-28.5 -29.5q107 2 193 33
q67 -44 24 -123zM-729 1899.95v387.011h109v-387.011h-109z" />
    <glyph glyph-name="uniE00A" unicode="&#xeb6;&#xec8;" 
d="M-784 1544q0 21 8.5 39t23 31.5t34 21.5t41.5 8t41.5 -8t34 -21.5t23 -31.5t8.5 -39t-8.5 -39t-23 -31.5t-34 -21.5t-41.5 -8t-41.5 8t-34 21.5t-23 31.5t-8.5 39zM-567 1368q0 58 98 76q137 39 151 127q-10 134 -359 154q-349 -20 -359 -154q12 -88 151 -127
q98 -18 98 -76q0 -54 -86 -53q-270 70 -288 256q14 255 484 278q470 -23 484 -278q-17 -185 -288 -256q-86 -1 -86 53zM-729 1899.95v387.011h109v-387.011h-109z" />
    <glyph glyph-name="uniE00B" unicode="&#xeb7;&#xec8;" 
d="M-784 1544q0 21 8.5 39t23 31.5t34 21.5t41.5 8t41.5 -8t34 -21.5t23 -31.5t8.5 -39t-8.5 -39t-23 -31.5t-34 -21.5t-41.5 -8t-41.5 8t-34 21.5t-23 31.5t-8.5 39zM-37 1350q-191 -44 -444 -35q-86 -1 -86 53q0 58 98 76q137 39 151 127q-10 134 -359 154
q-349 -20 -359 -154q12 -88 151 -127q98 -18 98 -76q0 -54 -86 -53q-270 70 -288 256q14 255 484 278q470 -23 484 -278q-4 -72 -32.5 -101.5l-28.5 -29.5q107 2 193 33q67 -44 24 -123zM-729 1899.95v387.011h109v-387.011h-109z" />
    <glyph glyph-name="uniE00C" unicode="&#xebb;&#xec8;" 
d="M-861 1504q0 38 -26 64.5t-64 26.5q-18 0 -34.5 -7t-29 -19.5t-19.5 -29t-7 -35.5q0 -37 26.5 -63.5t63.5 -26.5q19 0 35.5 7t28.5 19.5t19 29t7 34.5zM-240 1341q0 90 -35.5 152.5t-94 100.5t-134 55t-154.5 17q-18 0 -40.5 -2t-45 -5.5t-43.5 -10t-37 -15.5
q31 -29 44.5 -61.5t13.5 -77.5q0 -38 -18 -69.5t-47 -55t-64.5 -36.5t-69.5 -13q-39 0 -72 14.5t-57 39.5t-37.5 58.5t-13.5 71.5q0 59 25 104t67 77t95.5 53t110 33t112 17t100.5 5q101 0 197 -29t170.5 -86t119.5 -141.5t45 -195.5h-137zM-670 1861v430h109v-430h-109z
" />
    <glyph glyph-name="uniE00D" unicode="&#xecd;&#xec9;" 
d="M-392 1537q0 -43 -17.5 -83t-47.5 -70.5t-70.5 -49t-87.5 -18.5q-45 0 -85.5 16.5t-71 45.5t-49 70t-18.5 89q0 47 17.5 88t47.5 71.5t71 48t88 17.5q45 0 85 -16.5t71 -46t49 -71t18 -91.5zM-515 1541q0 21 -8 39t-21.5 31.5t-31.5 21t-39 7.5q-22 0 -40.5 -8.5t-32 -22
t-21 -31.5t-7.5 -37q0 -39 26.5 -69.5t74.5 -30.5q17 0 34.5 6.5t32 19t24 31t9.5 43.5zM-69 2136q-17 -81 -74 -129.5t-135 -75.5q-26 -8 -56.5 -14.5t-65.5 -11.5t-66 -8t-59 -5q-56 -3 -103 -3h-246q0 26 10.5 43t28 29t39 20.5t42.5 17.5q19 8 37.5 15.5t32.5 16
t22.5 19.5t8.5 26q0 12 -9.5 23.5t-26.5 11.5q-11 0 -22.5 -9t-11.5 -19q0 -4 -1 -6t5 -11l-114 -37q-2 14 -2.5 19t-0.5 12q0 31 11.5 57.5t32 45.5t49 29.5t61.5 10.5q30 0 57.5 -10.5t48.5 -28.5t33.5 -42.5t12.5 -52.5q0 -37 -21 -73q29 3 61 6.5t68 8.5q35 5 73 13
t59 20q16 12 32 24.5t29 30t21.5 41t10.5 57.5z" />
    <glyph glyph-name="uniE00E" unicode="&#xeb1;&#xec9;" 
d="M-861 1583q0 38 -26 64t-64 26q-18 0 -34.5 -7t-29 -19t-19.5 -28.5t-7 -35.5q0 -37 26.5 -63.5t63.5 -26.5q19 0 35.5 7t28.5 19.5t19 29t7 34.5zM-103 1749q1 -111 -44 -196t-120 -142.5t-171 -87t-197 -29.5q-45 0 -100.5 5t-112 17.5t-110 34t-95.5 53.5t-67 76
t-25 103q0 39 13.5 72.5t37.5 58t57 39t72 14.5q34 0 69.5 -13t64.5 -36t47 -55t18 -70q0 -43 -13.5 -75.5t-44.5 -63.5q17 -8 38.5 -14t44 -10.5t44 -6.5t39.5 -2q79 0 154.5 17t134 55.5t94 101t35.5 154.5h137zM-119 2136q-17 -81 -74 -129.5t-135 -75.5
q-26 -8 -56.5 -14.5t-65.5 -11.5t-66 -8t-59 -5q-56 -3 -103 -3h-246q0 26 10.5 43t28 29t39 20.5t42.5 17.5q19 8 37.5 15.5t32.5 16t22.5 19.5t8.5 26q0 12 -9.5 23.5t-26.5 11.5q-11 0 -22.5 -9t-11.5 -19q0 -4 -1 -6t5 -11l-114 -37q-2 14 -2.5 19t-0.5 12
q0 31 11.5 57.5t32 45.5t49 29.5t61.5 10.5q30 0 57.5 -10.5t48.5 -28.5t33.5 -42.5t12.5 -52.5q0 -37 -21 -73q29 3 61 6.5t68 8.5q35 5 73 13t59 20q16 12 32 24.5t29 30t21.5 41t10.5 57.5z" />
    <glyph glyph-name="uniE00F" unicode="&#xeb4;&#xec9;" 
d="M-567 1368q0 58 98 76q137 39 151 127q-10 134 -359 154q-349 -20 -359 -154q12 -88 151 -127q98 -18 98 -76q0 -54 -86 -53q-270 70 -288 256q14 255 484 278q470 -23 484 -278q-17 -185 -288 -256q-86 -1 -86 53zM-119 2136q-17 -81 -74 -129.5t-135 -75.5
q-26 -8 -56.5 -14.5t-65.5 -11.5t-66 -8t-59 -5q-56 -3 -103 -3h-246q0 26 10.5 43t28 29t39 20.5t42.5 17.5q19 8 37.5 15.5t32.5 16t22.5 19.5t8.5 26q0 12 -9.5 23.5t-26.5 11.5q-11 0 -22.5 -9t-11.5 -19q0 -4 -1 -6t5 -11l-114 -37q-2 14 -2.5 19t-0.5 12
q0 31 11.5 57.5t32 45.5t49 29.5t61.5 10.5q30 0 57.5 -10.5t48.5 -28.5t33.5 -42.5t12.5 -52.5q0 -37 -21 -73q29 3 61 6.5t68 8.5q35 5 73 13t59 20q16 12 32 24.5t29 30t21.5 41t10.5 57.5z" />
    <glyph glyph-name="uniE010" unicode="&#xeb5;&#xec9;" 
d="M-37 1350q-191 -44 -444 -35q-86 -1 -86 53q0 58 98 76q137 39 151 127q-10 134 -359 154q-349 -20 -359 -154q12 -88 151 -127q98 -18 98 -76q0 -54 -86 -53q-270 70 -288 256q14 255 484 278q470 -23 484 -278q-4 -72 -32.5 -101.5l-28.5 -29.5q107 2 193 33
q67 -44 24 -123zM-119 2136q-17 -81 -74 -129.5t-135 -75.5q-26 -8 -56.5 -14.5t-65.5 -11.5t-66 -8t-59 -5q-56 -3 -103 -3h-246q0 26 10.5 43t28 29t39 20.5t42.5 17.5q19 8 37.5 15.5t32.5 16t22.5 19.5t8.5 26q0 12 -9.5 23.5t-26.5 11.5q-11 0 -22.5 -9t-11.5 -19
q0 -4 -1 -6t5 -11l-114 -37q-2 14 -2.5 19t-0.5 12q0 31 11.5 57.5t32 45.5t49 29.5t61.5 10.5q30 0 57.5 -10.5t48.5 -28.5t33.5 -42.5t12.5 -52.5q0 -37 -21 -73q29 3 61 6.5t68 8.5q35 5 73 13t59 20q16 12 32 24.5t29 30t21.5 41t10.5 57.5z" />
    <glyph glyph-name="uniE011" unicode="&#xeb6;&#xec9;" 
d="M-784 1544q0 21 8.5 39t23 31.5t34 21.5t41.5 8t41.5 -8t34 -21.5t23 -31.5t8.5 -39t-8.5 -39t-23 -31.5t-34 -21.5t-41.5 -8t-41.5 8t-34 21.5t-23 31.5t-8.5 39zM-567 1368q0 58 98 76q137 39 151 127q-10 134 -359 154q-349 -20 -359 -154q12 -88 151 -127
q98 -18 98 -76q0 -54 -86 -53q-270 70 -288 256q14 255 484 278q470 -23 484 -278q-17 -185 -288 -256q-86 -1 -86 53zM-119 2136q-17 -81 -74 -129.5t-135 -75.5q-26 -8 -56.5 -14.5t-65.5 -11.5t-66 -8t-59 -5q-56 -3 -103 -3h-246q0 26 10.5 43t28 29t39 20.5t42.5 17.5
q19 8 37.5 15.5t32.5 16t22.5 19.5t8.5 26q0 12 -9.5 23.5t-26.5 11.5q-11 0 -22.5 -9t-11.5 -19q0 -4 -1 -6t5 -11l-114 -37q-2 14 -2.5 19t-0.5 12q0 31 11.5 57.5t32 45.5t49 29.5t61.5 10.5q30 0 57.5 -10.5t48.5 -28.5t33.5 -42.5t12.5 -52.5q0 -37 -21 -73
q29 3 61 6.5t68 8.5q35 5 73 13t59 20q16 12 32 24.5t29 30t21.5 41t10.5 57.5z" />
    <glyph glyph-name="uniE012" unicode="&#xeb7;&#xec9;" 
d="M-784 1544q0 21 8.5 39t23 31.5t34 21.5t41.5 8t41.5 -8t34 -21.5t23 -31.5t8.5 -39t-8.5 -39t-23 -31.5t-34 -21.5t-41.5 -8t-41.5 8t-34 21.5t-23 31.5t-8.5 39zM-37 1350q-191 -44 -444 -35q-86 -1 -86 53q0 58 98 76q137 39 151 127q-10 134 -359 154
q-349 -20 -359 -154q12 -88 151 -127q98 -18 98 -76q0 -54 -86 -53q-270 70 -288 256q14 255 484 278q470 -23 484 -278q-4 -72 -32.5 -101.5l-28.5 -29.5q107 2 193 33q67 -44 24 -123zM-119 2136q-17 -81 -74 -129.5t-135 -75.5q-26 -8 -56.5 -14.5t-65.5 -11.5t-66 -8
t-59 -5q-56 -3 -103 -3h-246q0 26 10.5 43t28 29t39 20.5t42.5 17.5q19 8 37.5 15.5t32.5 16t22.5 19.5t8.5 26q0 12 -9.5 23.5t-26.5 11.5q-11 0 -22.5 -9t-11.5 -19q0 -4 -1 -6t5 -11l-114 -37q-2 14 -2.5 19t-0.5 12q0 31 11.5 57.5t32 45.5t49 29.5t61.5 10.5
q30 0 57.5 -10.5t48.5 -28.5t33.5 -42.5t12.5 -52.5q0 -37 -21 -73q29 3 61 6.5t68 8.5q35 5 73 13t59 20q16 12 32 24.5t29 30t21.5 41t10.5 57.5z" />
    <glyph glyph-name="uniE013" unicode="&#xebb;&#xec9;" 
d="M-861 1504q0 38 -26 64.5t-64 26.5q-18 0 -34.5 -7t-29 -19.5t-19.5 -29t-7 -35.5q0 -37 26.5 -63.5t63.5 -26.5q19 0 35.5 7t28.5 19.5t19 29t7 34.5zM-240 1341q0 90 -35.5 152.5t-94 100.5t-134 55t-154.5 17q-18 0 -40.5 -2t-45 -5.5t-43.5 -10t-37 -15.5
q31 -29 44.5 -61.5t13.5 -77.5q0 -38 -18 -69.5t-47 -55t-64.5 -36.5t-69.5 -13q-39 0 -72 14.5t-57 39.5t-37.5 58.5t-13.5 71.5q0 59 25 104t67 77t95.5 53t110 33t112 17t100.5 5q101 0 197 -29t170.5 -86t119.5 -141.5t45 -195.5h-137zM-119 2136q-17 -81 -74 -129.5
t-135 -75.5q-26 -8 -56.5 -14.5t-65.5 -11.5t-66 -8t-59 -5q-56 -3 -103 -3h-246q0 26 10.5 43t28 29t39 20.5t42.5 17.5q19 8 37.5 15.5t32.5 16t22.5 19.5t8.5 26q0 12 -9.5 23.5t-26.5 11.5q-11 0 -22.5 -9t-11.5 -19q0 -4 -1 -6t5 -11l-114 -37q-2 14 -2.5 19t-0.5 12
q0 31 11.5 57.5t32 45.5t49 29.5t61.5 10.5q30 0 57.5 -10.5t48.5 -28.5t33.5 -42.5t12.5 -52.5q0 -37 -21 -73q29 3 61 6.5t68 8.5q35 5 73 13t59 20q16 12 32 24.5t29 30t21.5 41t10.5 57.5z" />
    <glyph glyph-name="uniE014" unicode="&#xeab;&#xebc;" horiz-adv-x="1400" 
d="M1266 -216q-30 -33 -72 -69t-89.5 -63.5t-98 -42t-97.5 -3.5q-40 4 -82.5 16.5t-83 30.5t-77.5 39.5t-66 43.5q5 -37 -7 -72.5t-34.5 -65t-53.5 -49.5t-64 -26q-39 -6 -77.5 1t-70 26.5t-53 52t-27.5 78.5q-9 45 0 84.5t31.5 70.5t56 51.5t72.5 26.5q50 9 97.5 2.5
t92.5 -23.5t88 -39.5t85.5 -45t85.5 -41t87 -25.5q43 -11 83.5 4.5t77 43t67.5 59.5t57 56zM367 955q0 37 -25 62t-64 25q-37 0 -62 -25t-25 -62q0 -39 25 -64t62 -25q39 0 64 25t25 64zM1286 184q0 -21 -2 -45.5t-6.5 -49t-11.5 -48t-17 -41.5h-158q15 21 26 46t18.5 52
t11.5 54t4 53v663q0 22 -1.5 47t-9 45t-24 33.5t-45.5 13.5q-16 0 -33.5 -18t-40 -39t-51.5 -39t-67 -18q-15 0 -36.5 4t-37.5 17q8 -45 10 -95t2 -92v-422q0 -78 -25 -139t-71 -102t-109.5 -62.5t-140.5 -21.5q-86 0 -155.5 16t-118 53.5t-75 99.5t-26.5 154q0 63 19 124.5
t47.5 120t61.5 114t61 106.5q-33 0 -67 11t-61.5 32.5t-45 53.5t-17.5 75t13.5 80t39 63.5t61.5 41.5t81 15q43 0 79.5 -13.5t63.5 -38.5t42.5 -61.5t15.5 -82.5q0 -45 -19 -96t-48 -106t-62.5 -112.5t-62.5 -115t-48 -113.5t-19 -108q0 -56 19 -91t51 -55t75 -27t91 -7
q40 0 79 14t69 39t48.5 60.5t18.5 78.5v532q0 60 -20.5 118t-71.5 112l120 88q16 -26 32.5 -50t36 -42t43 -28.5t53.5 -8.5q23 1 39.5 19t35.5 39t45.5 38.5t69.5 17.5q109 0 165 -56.5t56 -168.5v-731zM317 -282q0 -37 25.5 -62.5t62.5 -25.5t62.5 25.5t25.5 62.5
t-25.5 62.5t-62.5 25.5t-62.5 -25.5t-25.5 -62.5z" />
    <glyph glyph-name="laoHNG" unicode="&#xeab;&#xe87;" horiz-adv-x="2331" 
d="M359 955q0 37 -25 62t-64 25q-37 0 -62 -25t-25 -62q0 -39 25 -64t62 -25q39 0 64 25t25 64zM1278 184q0 -21 -2 -45.5t-6.5 -49t-11.5 -48t-17 -41.5h-158q15 21 26 46t18.5 52t11.5 54t4 53v663q0 22 -1.5 47t-9 45t-24 33.5t-45.5 13.5q-16 0 -33.5 -18t-40 -39
t-51.5 -39t-67 -18q-15 0 -36.5 4t-37.5 17q8 -45 10 -95t2 -92v-422q0 -78 -25 -139t-71 -102t-109.5 -62.5t-140.5 -21.5q-86 0 -155.5 16t-118 53.5t-75 99.5t-26.5 154q0 63 19 124.5t47.5 120t61.5 114t61 106.5q-33 0 -67 11t-61.5 32.5t-45 53.5t-17.5 75t13.5 80
t39 63.5t61.5 41.5t81 15q43 0 79.5 -13.5t63.5 -38.5t42.5 -61.5t15.5 -82.5q0 -45 -19 -96t-48 -106t-62.5 -112.5t-62.5 -115t-48 -113.5t-19 -108q0 -56 19 -91t51 -55t75 -27t91 -7q40 0 79 14t69 39t48.5 60.5t18.5 78.5v532q0 60 -20.5 118t-71.5 112l120 88
q16 -26 32.5 -50t36 -42t43 -28.5t53.5 -8.5q23 1 39.5 19t35.5 39t45.5 38.5t69.5 17.5q109 0 165 -56.5t56 -168.5v-731zM1766 758q0 37 -25 62t-62 25t-63 -25t-26 -62q0 -39 26 -64t63 -25t62 25t25 64zM1539 -197q35 -24 87 -39t108 -20.5t109.5 1t91.5 26.5
q40 20 74.5 48.5t59.5 63.5t39.5 77.5t14.5 90.5v750q0 45 -28.5 83t-72 65.5t-95.5 42.5t-98 15q-32 0 -65.5 -6.5t-62.5 -17t-51.5 -25t-32.5 -29.5q19 9 29.5 11.5t19.5 2.5h15q43 0 77 -14t57.5 -38.5t35.5 -58t12 -72.5q0 -41 -14 -75.5t-39 -60t-59 -39.5t-74 -14
q-57 0 -99 17t-69 49t-40 77t-13 101q0 61 32 119.5t84.5 104t120 73.5t138.5 28q79 0 156 -25t137 -72t97 -113.5t37 -150.5v-716q0 -83 -23 -149.5t-61 -117.5t-88 -88.5t-104 -63.5q-48 -22 -115.5 -28.5t-138.5 0t-136 24.5t-107 45z" />
    <glyph glyph-name="laoHNY" unicode="&#xeab;&#xe8d;" horiz-adv-x="2720" 
d="M359 955q0 37 -25 62t-64 25q-37 0 -62 -25t-25 -62q0 -39 25 -64t62 -25q39 0 64 25t25 64zM1278 184q0 -21 -2 -45.5t-6.5 -49t-11.5 -48t-17 -41.5h-158q15 21 26 46t18.5 52t11.5 54t4 53v663q0 22 -1.5 47t-9 45t-24 33.5t-45.5 13.5q-16 0 -33.5 -18t-40 -39
t-51.5 -39t-67 -18q-15 0 -36.5 4t-37.5 17q8 -45 10 -95t2 -92v-422q0 -78 -25 -139t-71 -102t-109.5 -62.5t-140.5 -21.5q-86 0 -155.5 16t-118 53.5t-75 99.5t-26.5 154q0 63 19 124.5t47.5 120t61.5 114t61 106.5q-33 0 -67 11t-61.5 32.5t-45 53.5t-17.5 75t13.5 80
t39 63.5t61.5 41.5t81 15q43 0 79.5 -13.5t63.5 -38.5t42.5 -61.5t15.5 -82.5q0 -45 -19 -96t-48 -106t-62.5 -112.5t-62.5 -115t-48 -113.5t-19 -108q0 -56 19 -91t51 -55t75 -27t91 -7q40 0 79 14t69 39t48.5 60.5t18.5 78.5v532q0 60 -20.5 118t-71.5 112l120 88
q16 -26 32.5 -50t36 -42t43 -28.5t53.5 -8.5q23 1 39.5 19t35.5 39t45.5 38.5t69.5 17.5q109 0 165 -56.5t56 -168.5v-731zM1936 956q0 36 -23 61t-60 25q-39 0 -65.5 -23.5t-26.5 -62.5q0 -37 26.5 -63.5t65.5 -26.5q37 0 60 26.5t23 63.5zM2517 1120q8 -19 15.5 -41.5
t13 -46t9 -46.5t3.5 -44v-637q0 -56 -23.5 -102t-62 -82t-88.5 -62.5t-103.5 -44t-106 -26t-96.5 -8.5q-78 0 -168 13.5t-177 51.5q-45 20 -85 48t-69 64.5t-46 81t-17 97.5q0 30 10 58t27.5 52t41.5 42t52 28q-29 18 -53.5 45t-41.5 58.5t-26.5 66.5t-9.5 69
q0 100 32.5 173t82 120t107.5 69.5t109 22.5q39 0 73 -15t59 -41.5t39.5 -61.5t14.5 -75q0 -29 -12.5 -60.5t-35 -58t-54 -43.5t-70.5 -17q-66 0 -115 31t-69 97q-10 -21 -15 -35.5t-7.5 -28.5t-3 -29t-0.5 -36q0 -53 25.5 -87.5t65 -55.5t86.5 -29t89 -7q26 1 47.5 2
t49.5 5l14 -134q-18 -1 -53 -4t-77 -9t-85.5 -16t-79.5 -24.5t-59 -34.5t-23 -47q0 -26 12.5 -49t32.5 -43.5t45 -37.5t50 -30q37 -19 78 -29.5t79.5 -16t71.5 -6.5t56 -1q58 0 119.5 14t111 45.5t81.5 81t32 121.5v495q0 28 -2 61.5t-8.5 68t-18 66t-29.5 54.5h155z" />
    <glyph glyph-name="laoHN" unicode="&#xeab;&#xe99;" horiz-adv-x="2720" 
d="M359 955q0 37 -25 62t-64 25q-37 0 -62 -25t-25 -62q0 -39 25 -64t62 -25q39 0 64 25t25 64zM1278 184q0 -21 -2 -45.5t-6.5 -49t-11.5 -48t-17 -41.5h-158q15 21 26 46t18.5 52t11.5 54t4 53v663q0 22 -1.5 47t-9 45t-24 33.5t-45.5 13.5q-16 0 -33.5 -18t-40 -39
t-51.5 -39t-67 -18q-15 0 -36.5 4t-37.5 17q8 -45 10 -95t2 -92v-422q0 -78 -25 -139t-71 -102t-109.5 -62.5t-140.5 -21.5q-86 0 -155.5 16t-118 53.5t-75 99.5t-26.5 154q0 63 19 124.5t47.5 120t61.5 114t61 106.5q-33 0 -67 11t-61.5 32.5t-45 53.5t-17.5 75t13.5 80
t39 63.5t61.5 41.5t81 15q43 0 79.5 -13.5t63.5 -38.5t42.5 -61.5t15.5 -82.5q0 -45 -19 -96t-48 -106t-62.5 -112.5t-62.5 -115t-48 -113.5t-19 -108q0 -56 19 -91t51 -55t75 -27t91 -7q40 0 79 14t69 39t48.5 60.5t18.5 78.5v532q0 60 -20.5 118t-71.5 112l120 88
q16 -26 32.5 -50t36 -42t43 -28.5t53.5 -8.5q23 1 39.5 19t35.5 39t45.5 38.5t69.5 17.5q109 0 165 -56.5t56 -168.5v-731zM1752 955q0 19 -7 35t-19.5 28t-29 18.5t-34.5 6.5q-38 0 -63.5 -25t-25.5 -63q0 -37 25 -62.5t64 -25.5q37 0 63.5 25.5t26.5 62.5zM2579 240
q0 -38 -16 -71t-42.5 -60.5t-61 -49.5t-72 -36.5t-75 -22.5t-69.5 -8q-69 0 -121.5 8.5t-93 22t-71 30t-56 32t-47.5 28t-45 18.5q-21 -27 -45.5 -47.5t-57 -37.5t-74.5 -30.5t-98 -25.5l-15 133q42 9 83 26t73 49.5t51.5 83t19.5 126.5v383q-17 -11 -41 -16.5t-41 -5.5
q-85 0 -136.5 49.5t-51.5 137.5q0 91 50.5 138t141.5 47q45 0 84 -15.5t67.5 -43t45 -65.5t16.5 -83v-535q0 -69 31 -120t78.5 -85t103.5 -50.5t106 -16.5q39 0 82 8t79 26.5t59.5 50t23.5 79.5v578q0 27 -3 60.5t-10 67.5t-19.5 66.5t-30.5 56.5h155q19 -45 31 -98.5
t12 -101.5v-680z" />
    <glyph glyph-name="laoHM" unicode="&#xeab;&#xea1;" horiz-adv-x="2673" 
d="M359 955q0 37 -25 62t-64 25q-37 0 -62 -25t-25 -62q0 -39 25 -64t62 -25q39 0 64 25t25 64zM1278 184q0 -21 -2 -45.5t-6.5 -49t-11.5 -48t-17 -41.5h-158q15 21 26 46t18.5 52t11.5 54t4 53v663q0 22 -1.5 47t-9 45t-24 33.5t-45.5 13.5q-16 0 -33.5 -18t-40 -39
t-51.5 -39t-67 -18q-15 0 -36.5 4t-37.5 17q8 -45 10 -95t2 -92v-422q0 -78 -25 -139t-71 -102t-109.5 -62.5t-140.5 -21.5q-86 0 -155.5 16t-118 53.5t-75 99.5t-26.5 154q0 63 19 124.5t47.5 120t61.5 114t61 106.5q-33 0 -67 11t-61.5 32.5t-45 53.5t-17.5 75t13.5 80
t39 63.5t61.5 41.5t81 15q43 0 79.5 -13.5t63.5 -38.5t42.5 -61.5t15.5 -82.5q0 -45 -19 -96t-48 -106t-62.5 -112.5t-62.5 -115t-48 -113.5t-19 -108q0 -56 19 -91t51 -55t75 -27t91 -7q40 0 79 14t69 39t48.5 60.5t18.5 78.5v532q0 60 -20.5 118t-71.5 112l120 88
q16 -26 32.5 -50t36 -42t43 -28.5t53.5 -8.5q23 1 39.5 19t35.5 39t45.5 38.5t69.5 17.5q109 0 165 -56.5t56 -168.5v-731zM1677 1120h155q12 -22 20 -49.5t13.5 -57t7.5 -58t2 -52.5v-612q0 -62 27.5 -97.5t70.5 -53.5t95 -22.5t100 -4.5q47 0 95 12t87 37t63.5 64t24.5 94
v605q0 25 -6 52t-15.5 53t-20.5 49t-21 41h155q14 -19 22.5 -45t13 -53.5t6 -55t1.5 -49.5v-630q0 -75 -37 -132.5t-95 -96.5t-127.5 -58.5t-135.5 -19.5q-40 0 -86 2.5t-91.5 11t-87.5 25t-74 44.5q-14 -22 -36.5 -37.5t-49 -25t-53 -14t-47.5 -4.5q-46 0 -81 14
t-58.5 38.5t-35.5 58.5t-12 73q0 36 13 69.5t37.5 59.5t59 41.5t77.5 15.5q17 0 40.5 -3.5t46.5 -10.5v569q0 23 -5 52t-13.5 58.5t-20 56.5t-24.5 46zM1565 166q0 -37 25.5 -62.5t62.5 -25.5t62.5 25.5t25.5 62.5t-25.5 62.5t-62.5 25.5t-62.5 -25.5t-25.5 -62.5z" />
    <glyph glyph-name="laoHR" unicode="&#xeab;&#xea3;" horiz-adv-x="2654" 
d="M359 955q0 37 -25 62t-64 25q-37 0 -62 -25t-25 -62q0 -39 25 -64t62 -25q39 0 64 25t25 64zM1278 184q0 -21 -2 -45.5t-6.5 -49t-11.5 -48t-17 -41.5h-158q15 21 26 46t18.5 52t11.5 54t4 53v663q0 22 -1.5 47t-9 45t-24 33.5t-45.5 13.5q-16 0 -33.5 -18t-40 -39
t-51.5 -39t-67 -18q-15 0 -36.5 4t-37.5 17q8 -45 10 -95t2 -92v-422q0 -78 -25 -139t-71 -102t-109.5 -62.5t-140.5 -21.5q-86 0 -155.5 16t-118 53.5t-75 99.5t-26.5 154q0 63 19 124.5t47.5 120t61.5 114t61 106.5q-33 0 -67 11t-61.5 32.5t-45 53.5t-17.5 75t13.5 80
t39 63.5t61.5 41.5t81 15q43 0 79.5 -13.5t63.5 -38.5t42.5 -61.5t15.5 -82.5q0 -45 -19 -96t-48 -106t-62.5 -112.5t-62.5 -115t-48 -113.5t-19 -108q0 -56 19 -91t51 -55t75 -27t91 -7q40 0 79 14t69 39t48.5 60.5t18.5 78.5v532q0 60 -20.5 118t-71.5 112l120 88
q16 -26 32.5 -50t36 -42t43 -28.5t53.5 -8.5q23 1 39.5 19t35.5 39t45.5 38.5t69.5 17.5q109 0 165 -56.5t56 -168.5v-731zM1804 339q0 37 -26 62.5t-63 25.5q-18 0 -33.5 -7t-27.5 -19t-19 -28t-7 -34t7 -34t19 -28t27.5 -19t33.5 -7t34 7t28.5 19t19.5 28t7 34zM2528 317
q0 -64 -24 -114t-64.5 -87.5t-93.5 -63t-110.5 -42t-116 -23.5t-109.5 -7q-52 0 -109.5 9t-113.5 27.5t-106.5 45.5t-89 63.5t-61 82t-22.5 100.5q0 56 18 97t48 67.5t68.5 39.5t79.5 13q39 0 72 -14t56.5 -39t36.5 -59.5t13 -74.5q0 -35 -8.5 -67.5t-27 -57.5t-47 -40.5
t-68.5 -15.5q78 -29 142.5 -37t118.5 -8q34 0 75.5 3t84 11.5t82.5 23.5t71.5 39t50.5 57.5t19 79.5q0 74 -27 121t-77.5 77.5t-123.5 51t-165 41.5q-49 11 -104.5 20.5t-110 21.5t-104.5 29t-88.5 43.5t-61.5 64.5t-23 93q-1 63 22.5 106t64 71t92.5 43t108.5 22t112 8
t102.5 1q83 0 155.5 -6.5t132.5 -29t106.5 -66.5t78.5 -119l-118 -63q-21 59 -57.5 90t-83.5 44.5t-101.5 15t-112.5 1.5q-76 0 -143 -3.5t-117.5 -16t-79 -36t-27.5 -62.5q1 -24 18.5 -41t46.5 -30t67 -22.5t79.5 -17t84 -14.5t80.5 -15q99 -20 191.5 -49t163.5 -77
t113 -122t41 -184z" />
    <glyph glyph-name="laoHL" unicode="&#xeab;&#xea5;" horiz-adv-x="2720" 
d="M359 955q0 37 -25 62t-64 25q-37 0 -62 -25t-25 -62q0 -39 25 -64t62 -25q39 0 64 25t25 64zM1278 184q0 -21 -2 -45.5t-6.5 -49t-11.5 -48t-17 -41.5h-158q15 21 26 46t18.5 52t11.5 54t4 53v663q0 22 -1.5 47t-9 45t-24 33.5t-45.5 13.5q-16 0 -33.5 -18t-40 -39
t-51.5 -39t-67 -18q-15 0 -36.5 4t-37.5 17q8 -45 10 -95t2 -92v-422q0 -78 -25 -139t-71 -102t-109.5 -62.5t-140.5 -21.5q-86 0 -155.5 16t-118 53.5t-75 99.5t-26.5 154q0 63 19 124.5t47.5 120t61.5 114t61 106.5q-33 0 -67 11t-61.5 32.5t-45 53.5t-17.5 75t13.5 80
t39 63.5t61.5 41.5t81 15q43 0 79.5 -13.5t63.5 -38.5t42.5 -61.5t15.5 -82.5q0 -45 -19 -96t-48 -106t-62.5 -112.5t-62.5 -115t-48 -113.5t-19 -108q0 -56 19 -91t51 -55t75 -27t91 -7q40 0 79 14t69 39t48.5 60.5t18.5 78.5v532q0 60 -20.5 118t-71.5 112l120 88
q16 -26 32.5 -50t36 -42t43 -28.5t53.5 -8.5q23 1 39.5 19t35.5 39t45.5 38.5t69.5 17.5q109 0 165 -56.5t56 -168.5v-731zM1896 166q0 37 -25.5 62.5t-63.5 25.5q-37 0 -62 -25.5t-25 -62.5t25 -62.5t62 -25.5q38 0 63.5 25.5t25.5 62.5zM1651 274q12 17 29.5 31t38.5 24.5
t42.5 16.5t41.5 6q38 0 72.5 -13.5t60.5 -38t41.5 -58.5t15.5 -74q0 -41 -13.5 -75t-38.5 -59.5t-59 -39.5t-75 -14q-59 0 -111.5 15t-92.5 50.5t-63.5 93t-23.5 142.5q0 81 33.5 137.5t87.5 92t122 51.5t137 16t118 -22.5t85 -60t62.5 -86.5t50.5 -102q19 -41 33.5 -76.5
t27.5 -61.5t26.5 -41t30.5 -15q24 0 41.5 21.5t29.5 55.5t19 78t11 90t5.5 91.5t1.5 81.5q4 100 -7 171t-32.5 119.5t-50 78.5t-59.5 49q-24 15 -60 26t-75 18t-77 10.5t-66 3.5q-29 0 -53.5 -0.5t-47 -2t-44.5 -4.5t-47 -9q-23 -5 -52.5 -12.5t-55.5 -18t-43.5 -25
t-16.5 -33.5q0 -12 7 -22.5t16.5 -19.5t18.5 -15.5t13 -10.5l-80 -100q-48 24 -79 65.5t-31 98.5q0 54 26 92.5t66.5 65t90 42.5t97.5 25q20 4 48.5 7t59 5.5t59 3.5t48.5 1q38 0 87.5 -4t100 -14t97 -26.5t78.5 -40.5q63 -48 102 -106.5t60.5 -123t29 -132.5t7.5 -134
q0 -91 -4 -175t-19 -157q-11 -55 -29 -100.5t-44 -78t-61.5 -50.5t-81.5 -18q-59 0 -94.5 23.5t-59 60t-41 81.5t-39.5 88q-22 42 -40 81t-41.5 68.5t-58 47t-90.5 17.5q-41 0 -80.5 -10.5t-70.5 -32t-49.5 -54t-18.5 -76.5z" />
    <glyph glyph-name="laoHW" unicode="&#xeab;&#xea7;" horiz-adv-x="2662" 
d="M359 955q0 37 -25 62t-64 25q-37 0 -62 -25t-25 -62q0 -39 25 -64t62 -25q39 0 64 25t25 64zM1278 184q0 -21 -2 -45.5t-6.5 -49t-11.5 -48t-17 -41.5h-158q15 21 26 46t18.5 52t11.5 54t4 53v663q0 22 -1.5 47t-9 45t-24 33.5t-45.5 13.5q-16 0 -33.5 -18t-40 -39
t-51.5 -39t-67 -18q-15 0 -36.5 4t-37.5 17q8 -45 10 -95t2 -92v-422q0 -78 -25 -139t-71 -102t-109.5 -62.5t-140.5 -21.5q-86 0 -155.5 16t-118 53.5t-75 99.5t-26.5 154q0 63 19 124.5t47.5 120t61.5 114t61 106.5q-33 0 -67 11t-61.5 32.5t-45 53.5t-17.5 75t13.5 80
t39 63.5t61.5 41.5t81 15q43 0 79.5 -13.5t63.5 -38.5t42.5 -61.5t15.5 -82.5q0 -45 -19 -96t-48 -106t-62.5 -112.5t-62.5 -115t-48 -113.5t-19 -108q0 -56 19 -91t51 -55t75 -27t91 -7q40 0 79 14t69 39t48.5 60.5t18.5 78.5v532q0 60 -20.5 118t-71.5 112l120 88
q16 -26 32.5 -50t36 -42t43 -28.5t53.5 -8.5q23 1 39.5 19t35.5 39t45.5 38.5t69.5 17.5q109 0 165 -56.5t56 -168.5v-731zM1812 340q0 37 -25 62t-62 25q-39 0 -64 -25t-25 -62q0 -39 25 -64t64 -25q37 0 62 25t25 64zM2531 379q0 -111 -47 -187.5t-123 -123.5t-171 -67.5
t-191 -20.5q-46 0 -99 8.5t-107 26t-104 45t-88.5 64.5t-61.5 85t-23 107q0 47 16 85.5t45 65.5t68.5 41.5t86.5 14.5q84 -1 130 -53t46 -134q0 -75 -35 -123t-105 -56q21 -12 51 -20.5t61 -14t61 -8t51 -2.5q68 0 140 11t130.5 41t96 84t37.5 141v318q0 84 -35.5 141
t-92.5 92.5t-128 51t-141 15.5q-29 0 -66 -3.5t-75.5 -12.5t-75.5 -23.5t-66 -36.5t-47 -51.5t-18 -68.5h-135q0 61 22.5 109t60 84.5t86.5 62.5t103 42t109.5 23.5t105.5 7.5q100 0 195 -24t169 -75t119 -131.5t45 -192.5v-338z" />
    <glyph glyph-name="uniE021" unicode="&#xeb1;&#xeca;" 
d="M-861 1583q0 38 -26 64t-64 26q-18 0 -34.5 -7t-29 -19t-19.5 -28.5t-7 -35.5q0 -37 26.5 -63.5t63.5 -26.5q19 0 35.5 7t28.5 19.5t19 29t7 34.5zM-103 1749q1 -111 -44 -196t-120 -142.5t-171 -87t-197 -29.5q-45 0 -100.5 5t-112 17.5t-110 34t-95.5 53.5t-67 76
t-25 103q0 39 13.5 72.5t37.5 58t57 39t72 14.5q34 0 69.5 -13t64.5 -36t47 -55t18 -70q0 -43 -13.5 -75.5t-44.5 -63.5q17 -8 38.5 -14t44 -10.5t44 -6.5t39.5 -2q79 0 154.5 17t134 55.5t94 101t35.5 154.5h137zM-436 1883.95q-24 3.60059 -38 17.5508t-18 33.751
q10 9 23.5 16.6504t26 17.5508t21 22.9502q8.5 13.0508 8.5 31.9512q0 23.4004 -22 36.001t-59 13.5q-27 0 -45.5 -15.2998q-18.5 -15.3008 -33.5 -33.3008q-15 -18.001 -29 -33.3018q-14 -15.2998 -33 -15.2998q-17 0 -31.5 14.8496q-14.5 14.8506 -30.5 33.3018
q-16 18.4502 -35 33.3008t-46 14.8506q-32 0 -55 -9.90039t-23 -36.9014q0 -19.8008 10.5 -34.6514q10.5 -14.8496 25.5 -26.5498t30.5 -21.1514q15.5 -9.4502 25.5 -18.4502q-26 -39.6006 -68 -45.9014q-68 25.2012 -108 60.3018t-39 88.2021q0 32.4014 17.5 58.502
t45.5 43.6514q28 17.5498 64 27.001q36 9.44922 74 9.44922q17 0 37.5 -6.75t40 -16.6504t37 -22.0508t28.5 -22.9502q24 27.001 61 48.6016t82 21.6006q34 0 69.5 -11.7002t64.5 -29.251t47 -39.6016t18 -41.8506q14 16.2002 23.5 28.8008t16 24.751t12 26.1006
t11.5 33.751q29 -2.7002 45.5 -11.7012q16.5 -9 27.5 -27.9004q-15 -44.1016 -36.5 -80.5518q-21.5 -36.4512 -53.5 -65.7021t-78.5 -51.751q-46.5 -22.501 -110.5 -37.8018z" />
    <glyph glyph-name="uniE022" unicode="&#xebb;&#xeca;" 
d="M-861 1504q0 38 -26 64.5t-64 26.5q-18 0 -34.5 -7t-29 -19.5t-19.5 -29t-7 -35.5q0 -37 26.5 -63.5t63.5 -26.5q19 0 35.5 7t28.5 19.5t19 29t7 34.5zM-240 1341q0 90 -35.5 152.5t-94 100.5t-134 55t-154.5 17q-18 0 -40.5 -2t-45 -5.5t-43.5 -10t-37 -15.5
q31 -29 44.5 -61.5t13.5 -77.5q0 -38 -18 -69.5t-47 -55t-64.5 -36.5t-69.5 -13q-39 0 -72 14.5t-57 39.5t-37.5 58.5t-13.5 71.5q0 59 25 104t67 77t95.5 53t110 33t112 17t100.5 5q101 0 197 -29t170.5 -86t119.5 -141.5t45 -195.5h-137zM-436 1883.95
q-24 3.60059 -38 17.5508t-18 33.751q10 9 23.5 16.6504t26 17.5508t21 22.9502q8.5 13.0508 8.5 31.9512q0 23.4004 -22 36.001t-59 13.5q-27 0 -45.5 -15.2998q-18.5 -15.3008 -33.5 -33.3008q-15 -18.001 -29 -33.3018q-14 -15.2998 -33 -15.2998q-17 0 -31.5 14.8496
q-14.5 14.8506 -30.5 33.3018q-16 18.4502 -35 33.3008t-46 14.8506q-32 0 -55 -9.90039t-23 -36.9014q0 -19.8008 10.5 -34.6514q10.5 -14.8496 25.5 -26.5498t30.5 -21.1514q15.5 -9.4502 25.5 -18.4502q-26 -39.6006 -68 -45.9014q-68 25.2012 -108 60.3018t-39 88.2021
q0 32.4014 17.5 58.502t45.5 43.6514q28 17.5498 64 27.001q36 9.44922 74 9.44922q17 0 37.5 -6.75t40 -16.6504t37 -22.0508t28.5 -22.9502q24 27.001 61 48.6016t82 21.6006q34 0 69.5 -11.7002t64.5 -29.251t47 -39.6016t18 -41.8506q14 16.2002 23.5 28.8008t16 24.751
t12 26.1006t11.5 33.751q29 -2.7002 45.5 -11.7012q16.5 -9 27.5 -27.9004q-15 -44.1016 -36.5 -80.5518q-21.5 -36.4512 -53.5 -65.7021t-78.5 -51.751q-46.5 -22.501 -110.5 -37.8018z" />
    <glyph glyph-name="uniE023" unicode="&#xeb1;&#xecb;" 
d="M-861 1583q0 38 -26 64t-64 26q-18 0 -34.5 -7t-29 -19t-19.5 -28.5t-7 -35.5q0 -37 26.5 -63.5t63.5 -26.5q19 0 35.5 7t28.5 19.5t19 29t7 34.5zM-103 1749q1 -111 -44 -196t-120 -142.5t-171 -87t-197 -29.5q-45 0 -100.5 5t-112 17.5t-110 34t-95.5 53.5t-67 76
t-25 103q0 39 13.5 72.5t37.5 58t57 39t72 14.5q34 0 69.5 -13t64.5 -36t47 -55t18 -70q0 -43 -13.5 -75.5t-44.5 -63.5q17 -8 38.5 -14t44 -10.5t44 -6.5t39.5 -2q79 0 154.5 17t134 55.5t94 101t35.5 154.5h137zM-534 1995.55v-130.504h-120v130.504h-141v108.902h142
v135.004h120v-135.004h138v-109.803z" />
    <glyph glyph-name="uniE024" unicode="&#xebb;&#xecb;" 
d="M-861 1504q0 38 -26 64.5t-64 26.5q-18 0 -34.5 -7t-29 -19.5t-19.5 -29t-7 -35.5q0 -37 26.5 -63.5t63.5 -26.5q19 0 35.5 7t28.5 19.5t19 29t7 34.5zM-240 1341q0 90 -35.5 152.5t-94 100.5t-134 55t-154.5 17q-18 0 -40.5 -2t-45 -5.5t-43.5 -10t-37 -15.5
q31 -29 44.5 -61.5t13.5 -77.5q0 -38 -18 -69.5t-47 -55t-64.5 -36.5t-69.5 -13q-39 0 -72 14.5t-57 39.5t-37.5 58.5t-13.5 71.5q0 59 25 104t67 77t95.5 53t110 33t112 17t100.5 5q101 0 197 -29t170.5 -86t119.5 -141.5t45 -195.5h-137zM-584 1995.55v-130.504h-120
v130.504h-141v108.902h142v135.004h120v-135.004h138v-109.803z" />
    <glyph glyph-name=".notdef" horiz-adv-x="1638" 
d="M102 0v1638h1434v-1638h-1434zM1434 102v1434h-1230v-1434h1230z" />
    <glyph glyph-name=".null" 
 />
    <glyph glyph-name=".null" 
 />
    <glyph glyph-name="nonmarkingreturn" unicode="&#xd;" horiz-adv-x="569" 
 />
    <glyph glyph-name="space" unicode=" " horiz-adv-x="512" 
 />
    <glyph glyph-name="exclam" unicode="!" horiz-adv-x="569" 
d="M394 1064l-48 -704h-112l-48 704v386h208v-386zM386 0h-192v192h192v-192z" />
    <glyph glyph-name="quotedbl" unicode="&#x22;" horiz-adv-x="727" 
d="M626 1204l-44 -255h-104l-44 255v248h192v-248zM298 1204l-44 -255h-104l-44 255v248h192v-248z" />
    <glyph glyph-name="numbersign" unicode="#" horiz-adv-x="1139" 
d="M1096 416h-287l-96 -416h-128l80 414h-327l-80 -414h-136l80 412h-168v139h201l71 360l-272 2v141h304l80 398h135l-87 -396h335l80 396h136l-88 -394h167v-139h-199l-72 -363h271v-140zM761 911h-319l-72 -352h319z" />
    <glyph glyph-name="dollar" unicode="$" horiz-adv-x="1139" 
d="M1025 407q-24 -400 -416 -428v-183h-95v183q-361 -2 -424 416l160 32q22 -298 264 -309v556q-189 46 -318 166q-126 151 -52 392q101 233 370 238v86h95v-86q171 0 268 -92q83 -85 116 -249q-10 0 -176 -24q-15 105 -73 160q-47 45 -135 62v-493q7 -4 206.5 -92.5
t209.5 -334.5zM514 858v469q-123 -17 -177 -96q-105 -153 14 -290q57 -57 163 -83zM859 395q-10 175 -250 255v-530q250 59 250 275z" />
    <glyph glyph-name="percent" unicode="%" horiz-adv-x="1821" 
d="M1668 363q-1 -376 -299 -383q-298 7 -299 383q1 369 299 376q298 -7 299 -376zM1369 1450l-783 -1450h-175l783 1450h175zM1517 363q-2 254 -148 256q-146 -2 -148 -256q2 -262 148 -264q146 2 148 264zM710 1094q-1 -376 -299 -383q-298 7 -299 383q1 369 299 376
q298 -7 299 -376zM559 1094q-2 254 -148 256q-146 -2 -148 -256q2 -262 148 -264q146 2 148 264z" />
    <glyph glyph-name="ampersand" unicode="&#x26;" horiz-adv-x="1366" 
d="M1296 116q-8 -12 -112 -136q-87 63 -216 192q-163 -185 -415 -192q-423 23 -448 412q5 233 345 435q-167 201 -161 315q14 312 352 316q294 -8 328 -304q-1 -213 -273 -350q116 -172 265 -329q57 91 64 192l183 -32q-47 -179 -127 -307q109 -125 215 -212zM785 1150
q7 151 -152 164q-154 -10 -160 -152q-11 -74 58 -155.5t77 -90.5q177 122 177 234zM857 308q-152 174 -319 399q-241 -131 -241 -303q26 -254 260 -272q132 -2 300 176z" />
    <glyph glyph-name="quotesingle" unicode="'" horiz-adv-x="391" 
d="M298 1195q-4 -14 -11 -48.5t-13.5 -73.5t-11 -74.5t-4.5 -50.5h-112l-2.5 18t-7 44.5t-9 57.5t-9 58t-8 46.5t-4.5 22.5v256h192v-256z" />
    <glyph glyph-name="parenleft" unicode="(" horiz-adv-x="682" 
d="M601 -417h-119q-92 126 -157.5 244t-107 233.5t-61 231t-19.5 234.5q0 123 21 238.5t63.5 228t107.5 226t153 233.5h119q-66 -118 -119.5 -233t-91 -230t-57.5 -232t-20 -239q0 -190 48.5 -384t143.5 -378q23 -44 48 -86t48 -87z" />
    <glyph glyph-name="parenright" unicode=")" horiz-adv-x="682" 
d="M561 517q0 -198 -59 -396t-180 -386q-26 -39 -52 -76.5t-52 -76.5h-120q34 64 66.5 125.5t61 121.5t52.5 120.5t42 122.5q65 225 65 449q0 100 -10.5 193.5t-32 183t-55.5 177.5t-82 178q-26 51 -53.5 99.5t-53.5 98.5h120q43 -71 86.5 -143t82.5 -143.5t71 -140.5
t52 -133q26 -86 38 -179t13 -195z" />
    <glyph glyph-name="asterisk" unicode="*" horiz-adv-x="797" 
d="M713 1171l-244 -56q92 -97 163 -183q-48 -48 -107 -80l-132 199l-132 -199q-59 32 -107 80q71 86 163 183l-244 56q15 70 48 136q102 -33 217 -96q5 38 -4 101.5t2 137.5h114q11 -74 2 -137.5t-4 -101.5q115 63 217 96q33 -66 48 -136z" />
    <glyph glyph-name="plus" unicode="+" horiz-adv-x="1196" 
d="M1073 604h-392v-391h-159v391h-392v160h392v391h159v-391h392v-160z" />
    <glyph glyph-name="comma" unicode="," horiz-adv-x="569" 
d="M394 -71q-14 -41 -23.5 -68.5t-18.5 -46t-18 -30.5t-22 -22t-32 -21t-46 -28q-8 15 -11.5 23t-8 14t-10.5 13.5t-18 21.5q30 18 46 29.5t26 26.5t18 38t22 65v56h-96v192h192v-263z" />
    <glyph glyph-name="hyphen" unicode="-" horiz-adv-x="818" 
d="M31 535h620v-150h-620v150z" />
    <glyph glyph-name="period" unicode="." horiz-adv-x="569" 
d="M394 0h-192v192h192v-192z" />
    <glyph glyph-name="slash" unicode="/" horiz-adv-x="569" 
d="M569 1478l-415 -1478h-136l416 1478h135z" />
    <glyph glyph-name="zero" unicode="0" horiz-adv-x="1139" 
d="M1025 722q0 -370 -117.5 -556t-346.5 -186q-240 0 -352 189t-112 573q0 183 29.5 315.5t87.5 222.5t144 136t199 46q238 0 353 -186t115 -554zM857 722q0 174 -20 289t-57.5 187t-93 105t-125.5 33q-146 0 -221 -152t-75 -462t74.5 -463t221.5 -153q76 0 132 40.5
t92.5 117.5t54 185t17.5 273z" />
    <glyph glyph-name="one" unicode="1" horiz-adv-x="1139" 
d="M761 0h-162v1156q-62 -44 -104 -74t-72.5 -49.5t-52 -32t-41.5 -21.5t-42 -17.5t-53 -20.5v146q33 10 73 32t82 51.5t83.5 64.5t78 72t65.5 73.5t45 69.5h100v-1450z" />
    <glyph glyph-name="two" unicode="2" horiz-adv-x="1139" 
d="M1017 0h-943q-2 171 174 351q168 153 310 273q301 225 300 446q1 255 -293 278q-265 -18 -299 -308q-160 14 -160 25q60 405 464 401q429 -12 447 -404q8 -270 -319 -512q-382 -322 -404 -400h723v-150z" />
    <glyph glyph-name="three" unicode="3" horiz-adv-x="1139" 
d="M1033 420q-28 -408 -480 -440q-380 1 -455 394l136 7q75 -270 319 -283q291 16 312 314q-5 342 -411 294l18 122q295 1 328 261q-8 244 -251 255q-190 -24 -234.5 -150.5t-43.5 -126.5q-3 0 -154 29q93 370 423 366q372 -15 419 -377q3 -182 -206 -295q295 -134 280 -370
z" />
    <glyph glyph-name="four" unicode="4" horiz-adv-x="1139" 
d="M1025 357h-196v-357h-151v357h-636v148l663 943h124v-958h196v-133zM670 498v701l-486 -701h486z" />
    <glyph glyph-name="five" unicode="5" horiz-adv-x="1139" 
d="M1041 485q0 -108 -35.5 -200.5t-100.5 -160t-155.5 -106t-200.5 -38.5q-80 0 -157.5 27t-139 76.5t-100.5 118.5t-42 152l148 20q11 -62 36.5 -113t63 -87t87 -56t108.5 -20q68 0 128 27.5t104.5 76.5t70.5 116.5t26 146.5q0 78 -25 141.5t-69 108t-92.5 69t-133.5 24.5
q-93 0 -163.5 -26.5t-127.5 -111.5l-146 21l145 759h707v-142h-575l-95 -466q95 99 291 99q91 0 171.5 -32.5t141 -92.5t95.5 -144t35 -187z" />
    <glyph glyph-name="six" unicode="6" horiz-adv-x="1139" 
d="M1025 465q-29 -465 -443 -485q-489 -3 -493 710q14 766 509 772q301 20 402 -326q-69 -41 -133 -36q-49 250 -277 244q-345 -17 -339 -613q94 194 359 204q389 -23 415 -470zM871 452q-6 331 -292 349q-281 -30 -292 -336q20 -317 304 -359q248 20 280 346z" />
    <glyph glyph-name="seven" unicode="7" horiz-adv-x="1139" 
d="M1033 1330q-77 -98 -147.5 -207t-132.5 -226.5t-112.5 -239.5t-86.5 -236t-56 -221t-20 -200h-160q12 178 56 353t112 343t156 320.5t188 294.5h-716v142h919v-123z" />
    <glyph glyph-name="eight" unicode="8" horiz-adv-x="1139" 
d="M1033 408q0 -93 -34 -171.5t-95.5 -135.5t-148 -89t-190.5 -32q-96 0 -181.5 31.5t-149 88.5t-100.5 136.5t-37 175.5q0 112 44 190.5t137 132.5q25 14 50 27.5t50 27.5q-61 28 -103.5 58t-69.5 64.5t-39 80t-12 96.5q0 75 31 146t85.5 120.5t130 78t164.5 28.5
q87 0 162.5 -26t130.5 -74t86.5 -120.5t31.5 -156.5q0 -113 -49 -178q-22 -29 -174 -128q77 -36 130.5 -73t86.5 -81t48 -97t15 -120zM808 1089q0 48 -20 91t-53.5 80.5t-77.5 56.5t-92 19q-53 0 -97.5 -20t-76.5 -57.5t-50.5 -79.5t-18.5 -86q0 -48 19 -96t52 -81
t77.5 -52.5t94.5 -19.5q49 0 93 18t77.5 50t53 79.5t19.5 97.5zM865 408q0 66 -24.5 123t-66.5 98.5t-97 65t-116 23.5q-60 0 -113.5 -25t-94 -67t-64.5 -96.5t-24 -113.5q0 -64 24.5 -120.5t66 -98.5t96.5 -66.5t117 -24.5q64 0 118 23.5t93.5 64t62 95.5t22.5 119z" />
    <glyph glyph-name="nine" unicode="9" horiz-adv-x="1139" 
d="M1033 749q0 -186 -33.5 -329.5t-98.5 -241t-160.5 -148t-220.5 -50.5q-87 0 -148 17.5t-106 56.5t-78 102t-62 155q9 2 29.5 4.5t43 4.5t43.5 3.5t33 1.5q6 -51 26.5 -93t53 -72t76.5 -46t97 -16q72 0 129 29.5t99 78.5t69.5 112t42 130t15 133.5t-10.5 121.5
q-51 -105 -142.5 -154.5t-209.5 -49.5q-90 0 -167.5 34t-134.5 95t-89 146.5t-32 187.5q0 96 32 193t90 163t139.5 105t181.5 39q241 0 367 -184.5t126 -528.5zM857 971q0 76 -22.5 139.5t-61.5 119t-91.5 81t-112.5 25.5q-62 0 -117 -31.5t-96.5 -92t-66 -124.5t-24.5 -129
q0 -68 24 -127t64.5 -103.5t95 -70t116.5 -25.5q60 0 108.5 26.5t85 72t61.5 107t37 132.5z" />
    <glyph glyph-name="colon" unicode=":" horiz-adv-x="569" 
d="M386 847h-192v191h192v-191zM386 0h-192v192h192v-192z" />
    <glyph glyph-name="semicolon" unicode=";" horiz-adv-x="569" 
d="M394 847h-192v191h192v-191zM394 -63q-14 -49 -24 -79t-25.5 -51.5t-41 -40t-69.5 -45.5q-10 18 -15.5 27.5t-10 16t-9.5 12t-13 16.5q31 15 50 34.5t30.5 40t18 40.5t13.5 36v56h-96v192h192v-255z" />
    <glyph glyph-name="less" unicode="&#x3c;" horiz-adv-x="1196" 
d="M1073 217l-943 408v159l943 399v-168l-751 -311l751 -330v-157z" />
    <glyph glyph-name="equal" unicode="=" horiz-adv-x="1196" 
d="M1065 840h-935v160h935v-160zM1065 409h-935v159h935v-159z" />
    <glyph glyph-name="greater" unicode="&#x3e;" horiz-adv-x="1196" 
d="M1072 625l-943 -408v157l751 330l-751 311v168l943 -399v-159z" />
    <glyph glyph-name="question" unicode="?" horiz-adv-x="1139" 
d="M1025 1076q0 -51 -11.5 -96t-37 -88.5t-67 -88.5t-101.5 -97q-38 -33 -63 -55.5t-40.5 -39t-24 -29t-13.5 -26t-8.5 -30t-9.5 -39.5q-17 -71 -17 -130h-142v108q26 87 63.5 161.5t88.5 128.5q36 38 75.5 72.5t72.5 70.5t54.5 77t21.5 92q0 52 -23.5 101.5t-64 88.5
t-94.5 63t-115 24q-59 0 -109.5 -20t-90 -57.5t-66.5 -91.5t-37 -123q-32 2 -53 4t-37.5 5t-32 8.5t-37.5 13.5q43 125 86.5 200t96.5 114.5t121 52t159 12.5q96 0 179.5 -28t145 -78.5t96.5 -121.5t35 -158zM657 0h-175v174h175v-174z" />
    <glyph glyph-name="at" unicode="@" horiz-adv-x="2079" 
d="M1967 12q-73 -109 -159 -188.5t-189 -131.5t-223 -77t-260 -25q-236 0 -424 60.5t-319 173.5t-201.5 275t-70.5 365q0 71 12 146t34 149.5t54.5 146.5t72.5 137.5t88 123t102 102.5q241 201 600 201q111 0 216 -25.5t198 -73t170.5 -116t133 -154.5t86.5 -188t31 -217
q0 -89 -22.5 -175.5t-63 -164t-96.5 -144t-121.5 -114.5t-139 -75t-149.5 -27q-104 0 -136 41q-13 34 -24.5 63.5t-22.5 55.5q-47 -47 -85 -78t-72.5 -49t-68.5 -25.5t-73 -7.5q-74 0 -137.5 35t-110.5 95t-73.5 140t-26.5 170q0 79 19.5 156t54.5 146t82.5 127.5
t103.5 101.5t118.5 67t125.5 24q84 0 147 -36q21 -12 148 -139q3 9 8 27.5t10 39.5t9 42t5 34h168l-169 -802q10 -40 25.5 -54t46.5 -14q44 0 90 23.5t88.5 63.5t80 94.5t65.5 115.5t44 126.5t16 128.5q0 88 -26 169.5t-72.5 152t-112 128t-144.5 98.5t-169 63.5t-187 22.5
q-117 0 -223.5 -31t-198 -87t-165.5 -135t-126.5 -176t-81 -208.5t-28.5 -232.5q0 -176 56.5 -315.5t165.5 -237t268.5 -149.5t364.5 -52q130 0 223.5 14.5t170 48.5t147 90.5t154.5 140.5h168zM1231 636q0 65 -15.5 118t-44 91t-69 58.5t-89.5 20.5q-42 0 -83 -20t-78 -55
t-68.5 -82.5t-54 -102.5t-35.5 -114t-13 -118q0 -64 15.5 -119t43 -95t64.5 -63t81 -23q46 0 89.5 20.5t82 56.5t70.5 84.5t55 104.5t36 117t13 121z" />
    <glyph glyph-name="A" unicode="A" horiz-adv-x="1366" 
d="M18 0l219 579l329 871h210l329 -871l219 -579h-184l-169 446h-600l-169 -446h-184zM422 579h498l-182 496q-14 40 -29 79t-38 105q-23 -66 -38 -105t-29 -79z" />
    <glyph glyph-name="B" unicode="B" horiz-adv-x="1366" 
d="M1239 412q0 -96 -33.5 -172t-92.5 -129.5t-140.5 -82t-177.5 -28.5h-633v1450h608q75 0 146.5 -28t127 -78t89 -118t33.5 -147q0 -107 -52 -181t-163 -130q82 -35 137.5 -69.5t89 -75.5t47.5 -92t14 -119zM1011 1060q0 55 -19.5 99.5t-54 76t-81 48t-100.5 16.5h-419
v-470h409q61 0 110.5 15.5t83.5 44.5t52.5 72t18.5 98zM1058 408q0 130 -74 197t-214 67h-433v-522h450q55 0 104.5 19.5t86.5 54t58.5 81.5t21.5 103z" />
    <glyph glyph-name="C" unicode="C" horiz-adv-x="1479" 
d="M1185 1020q-87 303 -406 304q-491 -10 -499 -600q-5 -588 486 -610q344 0 421 365l157 -33q-89 -455 -565 -466q-662 17 -666 756q20 717 678 734q437 2 553 -416z" />
    <glyph glyph-name="D" unicode="D" horiz-adv-x="1479" 
d="M1351 724q0 -168 -40.5 -302t-116.5 -227.5t-185.5 -144t-247.5 -50.5h-591v1450h607q133 0 239.5 -53t180.5 -149t114 -229.5t40 -294.5zM1168 732q0 136 -26 242t-76 178.5t-125 110t-172 37.5h-424v-1150h383q104 0 186 39.5t138.5 114.5t86 183t29.5 245z" />
    <glyph glyph-name="E" unicode="E" horiz-adv-x="1366" 
d="M1240 0h-1062v1450h1029v-142h-862v-494h805v-142h-805v-530h895v-142z" />
    <glyph glyph-name="F" unicode="F" horiz-adv-x="1251" 
d="M1136 1308h-791v-482h686v-142h-686v-684h-167v1450h958v-142z" />
    <glyph glyph-name="G" unicode="G" horiz-adv-x="1593" 
d="M1440 202q-59 -50 -127 -91t-143 -70t-155.5 -45t-164.5 -16q-172 0 -307.5 51.5t-229 147t-143 231.5t-49.5 306q0 174 50.5 313.5t143.5 237t225.5 150t297.5 52.5q233 0 377 -101.5t208 -311.5l-145 -42q-23 57 -42 95t-38.5 65t-43 46.5t-56.5 39.5q-107 65 -264 65
q-127 0 -227 -43.5t-169 -122.5t-105.5 -191t-36.5 -248q0 -141 38 -252t109.5 -188t173 -117.5t229.5 -40.5q55 0 114.5 11.5t117 32t110 50t94.5 65.5v290h-389v142h547v-511z" />
    <glyph glyph-name="H" unicode="H" horiz-adv-x="1479" 
d="M1296 0h-167v697h-784v-697h-167v1450h167v-611h784v611h167v-1450z" />
    <glyph glyph-name="I" unicode="I" horiz-adv-x="569" 
d="M376 0h-184v1450h184v-1450z" />
    <glyph glyph-name="J" unicode="J" horiz-adv-x="1024" 
d="M887 359q0 -86 -29.5 -156t-82 -119.5t-126.5 -76.5t-162 -27q-185 0 -284 103.5t-99 307.5l145 22q8 -80 22.5 -134t41 -86.5t67.5 -46.5t103 -14q56 0 100 17.5t74 50t46 77t16 98.5v1075h168v-1091z" />
    <glyph glyph-name="K" unicode="K" horiz-adv-x="1366" 
d="M1307 0h-212l-510 729l-250 -250v-479h-173v1450h175v-758l758 758h212l-595 -594z" />
    <glyph glyph-name="L" unicode="L" horiz-adv-x="1139" 
d="M1057 0h-895v1450h168v-1308h727v-142z" />
    <glyph glyph-name="M" unicode="M" horiz-adv-x="1706" 
d="M1536 0h-166v1225l-20 3l-411 -1228h-180l-411 1228l-20 -3v-1225h-166v1450h276l411 -1281l411 1281h276v-1450z" />
    <glyph glyph-name="N" unicode="N" horiz-adv-x="1479" 
d="M1296 0h-175l-787 1180v-1180h-164v1450h175l787 -1180v1180h164v-1450z" />
    <glyph glyph-name="O" unicode="O" horiz-adv-x="1593" 
d="M1479 720q0 -171 -47 -308t-135.5 -233t-214.5 -147.5t-285 -51.5q-149 0 -274.5 54.5t-216.5 152t-142 232t-51 293.5q0 175 48 315.5t137.5 238.5t216 151t282.5 53q101 0 191 -25.5t165.5 -73t136 -115t102.5 -151t64.5 -181t22.5 -204.5zM1296 720q0 132 -34.5 242.5
t-99 190t-157 123.5t-208.5 44q-114 0 -207 -45t-158 -126t-100.5 -194.5t-35.5 -250.5q0 -128 34.5 -234.5t99.5 -184t158 -120.5t209 -43t208.5 43t157 121.5t99 189t34.5 244.5z" />
    <glyph glyph-name="P" unicode="P" horiz-adv-x="1366" 
d="M1255 1041q0 -107 -32.5 -185t-91.5 -133.5t-140.5 -85.5t-179.5 -30h-474v-607h-167v1448h584q247 0 374 -103t127 -304zM1074 1037q0 52 -11.5 91t-38 68.5t-70.5 52t-110 41.5h-499v-532h433q65 0 119.5 19t93.5 54t61 84.5t22 121.5z" />
    <glyph glyph-name="Q" unicode="Q" horiz-adv-x="1593" 
d="M1496 3q-11 -31 -23.5 -59.5t-25.5 -50.5q-72 34 -128.5 65.5t-95.5 56t-60 39t-22 14.5q-25 -17 -62 -33.5t-83 -29t-99.5 -20t-110.5 -7.5q-149 0 -274 55t-215.5 153.5t-141 234.5t-50.5 298q0 172 48 311t137.5 236.5t216 150.5t283.5 53q152 0 277.5 -57t215.5 -158
t140 -239t50 -301q0 -90 -13 -168.5t-40 -147.5t-69.5 -131.5t-101.5 -121.5q22 -20 53 -41t65 -40.5t67.5 -35.5t61.5 -26zM1290 711q0 132 -34 244t-98.5 193t-157 126.5t-210.5 45.5q-114 0 -206.5 -44.5t-158 -124.5t-101.5 -191t-36 -245q0 -133 37.5 -242.5
t104.5 -188t159 -121.5t201 -43q30 0 52.5 1t44.5 6t48.5 15t64.5 28q-11 12 -34.5 26.5t-51 28t-54 24.5t-44.5 14l4.5 13t10.5 31.5t11.5 38.5t7.5 33q41 -12 80.5 -29t74.5 -36.5t64 -41.5t49 -45q49 58 82 112t53 111t28.5 120t8.5 141z" />
    <glyph glyph-name="R" unicode="R" horiz-adv-x="1479" 
d="M1432 0h-212q-12 21 -33.5 56.5t-48 78t-56 88.5t-58 88.5t-54 79t-42.5 59.5q-49 66 -86 105t-67.5 59.5t-58 27t-58.5 6.5h-312v-648h-168v1450h734q91 0 167.5 -28t131 -80t85 -126t30.5 -165q0 -134 -63.5 -220t-202.5 -135l-142 -50q56 -34 97 -63.5t77.5 -67.5
t73.5 -91t86 -134q66 -108 110.5 -180t69.5 -110zM1141 1051q0 55 -9 92.5t-35 65.5t-74 50.5t-126 48.5h-543v-510h492q60 0 113.5 19.5t94 53.5t64 80.5t23.5 99.5z" />
    <glyph glyph-name="S" unicode="S" horiz-adv-x="1366" 
d="M1239 399q-31 -388 -537 -420q-550 10 -596 472l145 27q50 -375 459 -357q353 35 372 261q8 201 -407 285q-519 106 -513 403q29 382 507 400q493 -18 522 -424l-152 -13q-37 282 -374 295q-314 -10 -344 -246q3 -133 159 -188.5t353 -92.5q409 -115 406 -402z" />
    <glyph glyph-name="T" unicode="T" horiz-adv-x="1251" 
d="M1192 1308h-480v-1308h-165v1308h-481v142h1126v-142z" />
    <glyph glyph-name="U" unicode="U" horiz-adv-x="1479" 
d="M1296 504q0 -126 -39 -223.5t-112 -164t-176 -101.5t-232 -35q-135 0 -239 34t-175.5 100t-108 162t-36.5 220v954h167v-946q0 -92 26 -163t76 -120t122 -74t164 -25q198 0 297 98.5t99 299.5v930h167v-946z" />
    <glyph glyph-name="V" unicode="V" horiz-adv-x="1366" 
d="M1336 1450l-543 -1450h-214l-553 1450h183l475 -1333l484 1333h168z" />
    <glyph glyph-name="W" unicode="W" horiz-adv-x="1933" 
d="M1880 1450l-357 -1450h-230l-332 1293l-332 -1293h-230l-357 1450h174l298 -1259l342 1259h210l342 -1259l298 1259h174z" />
    <glyph glyph-name="X" unicode="X" horiz-adv-x="1366" 
d="M65 0l1023 1450h205l-1023 -1450h-205zM99 1450h205l1023 -1450h-205z" />
    <glyph glyph-name="Y" unicode="Y" horiz-adv-x="1366" 
d="M1328 1450l-568 -850v-600h-174v600l-568 850h207l448 -698l448 698h207z" />
    <glyph glyph-name="Z" unicode="Z" horiz-adv-x="1251" 
d="M1184 0h-1126v165l906 1139h-816v146h1012v-156l-922 -1148h946v-146z" />
    <glyph glyph-name="bracketleft" unicode="[" horiz-adv-x="569" 
d="M538 -409h-384v1859h384v-117h-228v-1625h228v-117z" />
    <glyph glyph-name="backslash" unicode="\" horiz-adv-x="569" 
d="M569 -20h-119l-432 1490h120z" />
    <glyph glyph-name="bracketright" unicode="]" horiz-adv-x="569" 
d="M442 -410h-384v117h228v1626h-228v117h384v-1860z" />
    <glyph glyph-name="asciicircum" unicode="^" horiz-adv-x="961" 
d="M889 703h-168l-247 583l-232 -583h-176l336 765h143z" />
    <glyph glyph-name="underscore" unicode="_" horiz-adv-x="1139" 
d="M1139 -410h-1139v128h1139v-128z" />
    <glyph glyph-name="grave" unicode="`" horiz-adv-x="682" 
d="M469 1178h-136l-224 272h232z" />
    <glyph glyph-name="a" unicode="a" horiz-adv-x="1139" 
d="M1001 20q-29 -8 -60.5 -17.5t-59.5 -22.5q-32 69 -39 111.5t-9 48.5q-44 -44 -85 -74.5t-83 -49.5t-87 -27.5t-97 -8.5q-187 0 -273.5 62.5t-86.5 193.5t63 212t193 108q29 6 47 9.5t34 6.5t32.5 5.5t42 7.5t63.5 13t96 21q98 21 125 24v144q-38 84 -94 122.5t-146 38.5
q-115 0 -199 -60.5t-120 -172.5l-22 5.5t-22.5 5.5t-30 6t-45.5 7q5 42 26.5 83t54.5 78t75.5 69t90 55.5t97.5 36.5t99 13q70 0 135.5 -21.5t116.5 -58.5t81.5 -86.5t30.5 -104.5v-479q5 -57 10.5 -101.5t12 -80.5t14.5 -65.5t19 -56.5zM809 292v223q-13 -5 -47 -12
t-78 -15.5t-94.5 -18.5t-96.5 -20t-83 -20.5t-56 -20.5q-97 -52 -97 -160q0 -66 56.5 -99t167.5 -33q54 0 98 15.5t82.5 40t74 56t73.5 64.5z" />
    <glyph glyph-name="b" unicode="b" horiz-adv-x="1139" 
d="M1025 520q0 -111 -33 -209.5t-91.5 -172t-138 -116t-173.5 -42.5q-41 0 -77.5 7.5t-70.5 24t-67.5 42.5t-69.5 62v-116h-134v1450h134v-511q38 38 71.5 64t67 41.5t69 22.5t77.5 7q92 0 171.5 -44.5t138.5 -120t92.5 -176.5t33.5 -213zM889 520q0 84 -23.5 160.5t-64 134
t-95 91.5t-117.5 34q-60 0 -112 -36t-90.5 -94.5t-60 -134.5t-21.5 -155q0 -83 21 -156.5t58.5 -128.5t89.5 -87t115 -32q64 0 119 33t95.5 89t63 129t22.5 153z" />
    <glyph glyph-name="c" unicode="c" horiz-adv-x="1024" 
d="M977 348q-51 -178 -160 -273t-264 -95q-94 0 -174.5 43t-139.5 116t-92.5 170.5t-33.5 206.5q0 113 33 214t90.5 177.5t136.5 121.5t172 45q66 0 128 -22t116 -63.5t98 -100.5t74 -133q-12 -9 -30.5 -17.5t-36 -15t-30.5 -10.5t-15 -5q-33 59 -65.5 104t-68 75.5
t-76.5 46t-90 15.5q-66 0 -122.5 -35.5t-98 -95.5t-64.5 -138t-23 -163q0 -82 24 -156t66.5 -130t100.5 -89t125 -33q106 0 181 70t119 202q10 -3 26.5 -8t34 -9.5t33.5 -8.5t26 -6z" />
    <glyph glyph-name="d" unicode="d" horiz-adv-x="1139" 
d="M961 0h-136v117q-41 -41 -74.5 -67.5t-65.5 -42t-66.5 -21.5t-77.5 -6q-62 0 -118 20t-104.5 56.5t-88 86.5t-67.5 110t-43 128t-15 140q0 111 33.5 211.5t92 176t138 120.5t172.5 45q42 0 77.5 -7t69 -23t67 -42t70.5 -63l1 511h135v-1450zM825 521q0 88 -20.5 164.5
t-58 133t-89.5 89t-116 32.5q-63 0 -118 -36t-95.5 -94.5t-63.5 -134t-23 -154.5q0 -83 24.5 -157t65.5 -129t95.5 -87t114.5 -32q63 0 115.5 32.5t90 88t58 129t20.5 155.5z" />
    <glyph glyph-name="e" unicode="e" horiz-adv-x="1139" 
d="M1025 467h-775q0 -79 26.5 -145t72.5 -113.5t95 -74t121 -26.5q113 0 207 56.5t125 159.5q29 -10 56.5 -20t55.5 -20q-18 -66 -57.5 -122t-93.5 -96.5t-138 -63t-155 -22.5q-101 0 -172 42t-137 114t-104.5 169t-38.5 232q0 92 33 194t92 178.5t141.5 120.5t185.5 44
q97 0 182.5 -37.5t147 -101.5t96 -150t34.5 -182v-136zM889 603q0 69 -24 130.5t-67 107t-102.5 72.5t-130.5 27q-65 0 -122.5 -28.5t-100 -75.5t-67.5 -108t-25 -125h639z" />
    <glyph glyph-name="f" unicode="f" horiz-adv-x="569" 
d="M346 1054h223v-127h-223v-927h-128v927h-184v127h184q0 102 2.5 162t11 95.5t25 54t43.5 37.5q70 47 225 47q10 0 23.5 -0.5t28.5 -1t29 -0.5q15 0 27 2l-8 -128q-92 0 -147 -6t-84.5 -22t-38.5 -43t-9 -69v-128z" />
    <glyph glyph-name="g" unicode="g" horiz-adv-x="1139" 
d="M969 140l1 -165q0 -90 -31 -161t-87.5 -121t-135 -76.5t-171.5 -26.5q-82 0 -151 20t-122 59t-88.5 97t-49.5 135l128 -18q10 -40 35 -72t61 -54.5t82.5 -34.5t100.5 -12q64 0 115.5 17.5t88.5 49.5t57 77.5t21 101.5l2 176q-50 -50 -85 -80t-65.5 -46t-61 -21t-72.5 -5
q-93 0 -173 43.5t-138.5 118t-91.5 173t-33 209.5q0 73 15.5 142t43.5 130t67.5 112.5t88 88t104.5 57t117 20.5q40 0 73.5 -6.5t66.5 -23t67.5 -44t76.5 -69.5v123h143zM825 524q0 88 -20.5 164t-58 132t-89.5 88t-116 32q-63 0 -118 -35t-95.5 -93.5t-63.5 -133.5
t-23 -154q0 -83 23.5 -157t64 -130t95 -88.5t117.5 -32.5t115 32.5t89.5 88t58.5 130t21 157.5z" />
    <glyph glyph-name="h" unicode="h" horiz-adv-x="1139" 
d="M977 0h-128v751q0 37 -17.5 72.5t-48 63.5t-72.5 44.5t-90 16.5q-60 0 -119.5 -23.5t-106.5 -61t-76 -84t-29 -92.5v-687h-128v1450h134l1 -531q79 79 159 117t173 38q72 0 135 -23t110.5 -65t75 -100t27.5 -127v-759z" />
    <glyph glyph-name="i" unicode="i" horiz-adv-x="455" 
d="M297 1282q0 -43 -19.5 -69.5t-56.5 -26.5q-33 0 -54.5 27.5t-21.5 64.5q0 20 5.5 38t15 32t23.5 22t32 8q34 0 55.5 -27t20.5 -69zM282 0h-128v1054h128v-1054z" />
    <glyph glyph-name="j" unicode="j" horiz-adv-x="455" 
d="M350 1282q0 -43 -19.5 -69.5t-56.5 -26.5q-34 0 -55 27.5t-21 64.5q0 20 5.5 38t15 32t23.5 22t32 8q30 0 53 -23.5t23 -69.5v-3zM338 -139q0 -271 -233 -271q-27 0 -58.5 6t-81.5 19l52 124q21 -8 42.5 -13t40.5 -5q57 0 83.5 43t26.5 129v1161h128v-1193z" />
    <glyph glyph-name="k" unicode="k" horiz-adv-x="1024" 
d="M937 59l-104 -80l-391 566l-144 -131v-414h-128v1450h133v-851l498 475l88 -87l-352 -343z" />
    <glyph glyph-name="l" unicode="l" horiz-adv-x="455" 
d="M290 0h-128v1450h128v-1450z" />
    <glyph glyph-name="m" unicode="m" horiz-adv-x="1706" 
d="M1536 0h-128v711q0 42 -20.5 84t-51 76t-67.5 55.5t-70 21.5q-39 7 -82.5 -16.5t-83 -64.5t-71.5 -92t-49 -100v-675h-128v719q0 40 -17 81t-44.5 74t-63 53.5t-71.5 20.5q-29 0 -62.5 -13.5t-66.5 -35t-64 -50t-54.5 -58t-37.5 -59t-14 -53.5v-679h-128v1054h134v-139
q36 36 61 60.5t45 40t37 24t37.5 14t47 10t65.5 10.5q52 0 93 -8.5t75.5 -29t64.5 -54t59 -83.5q34 34 64.5 65.5t66.5 56t81.5 39t109.5 14.5t124.5 -31t106.5 -80.5t74 -111.5t28 -124v-727z" />
    <glyph glyph-name="n" unicode="n" horiz-adv-x="1139" 
d="M977 0h-128v703q0 46 -22 90t-56 78.5t-76 55.5t-82 21q-44 5 -94.5 -21t-96.5 -69.5t-82 -97.5t-50 -105v-655h-128v1054h134v-135q80 80 156 117.5t161 37.5q47 0 92.5 -15t86 -41t74.5 -61.5t58.5 -75.5t38.5 -83.5t14 -86.5v-711z" />
    <glyph glyph-name="o" unicode="o" horiz-adv-x="1139" 
d="M1025 512q0 -109 -35.5 -206t-98 -169.5t-147 -114.5t-183.5 -42q-96 0 -179.5 42.5t-145 115t-96.5 169t-35 205.5q0 111 35 212.5t96 179.5t144.5 124t180.5 46q64 0 123.5 -21t111.5 -58.5t94 -89.5t72 -114.5t46.5 -133t16.5 -145.5zM889 512q0 85 -26 162.5
t-70.5 136.5t-104.5 94t-127 35q-65 0 -123 -36.5t-101.5 -96.5t-69.5 -137t-26 -158q0 -82 27 -154t72 -126t102.5 -85t118.5 -31q68 0 128 32t104.5 86.5t70 126.5t25.5 151z" />
    <glyph glyph-name="p" unicode="p" horiz-adv-x="1139" 
d="M1025 521q0 -110 -33 -208.5t-91 -172.5t-138 -117t-174 -43q-39 0 -75 7.5t-70.5 24t-68.5 42.5t-71 63v-526h-134v1463h134v-119q39 39 73 66t67.5 43t68.5 23t76 7q93 0 173 -45t138.5 -121t91.5 -176.5t33 -210.5zM889 521q0 85 -23.5 161.5t-64 133.5t-95 90.5
t-117.5 33.5q-60 0 -112 -35t-90 -93t-60 -134t-22 -157q0 -82 20.5 -155.5t58 -129t90 -88t115.5 -32.5q64 0 118.5 33t95 89t63.5 129t23 154z" />
    <glyph glyph-name="q" unicode="q" horiz-adv-x="1139" 
d="M961 -410h-136v518q-61 -61 -131.5 -94.5t-152.5 -33.5q-94 0 -174 43.5t-138 118t-91 172.5t-33 206q0 110 34 210.5t92.5 177t138 121.5t171.5 45q85 0 159 -38.5t125 -106.5v125h136v-1464zM825 520q0 88 -20.5 164.5t-58 133.5t-89.5 89.5t-116 32.5
q-63 0 -118 -35.5t-95.5 -94.5t-63.5 -134.5t-23 -155.5q0 -81 24.5 -154.5t66 -129t96 -88t113.5 -32.5q63 0 115 32.5t89.5 88t58.5 129t21 154.5z" />
    <glyph glyph-name="r" unicode="r" horiz-adv-x="682" 
d="M721 995q-3 -7 -13.5 -22.5t-23.5 -31.5t-25 -28.5t-18 -12.5q-27 20 -66.5 34t-73.5 14q-33 0 -62 -18t-53.5 -48t-43.5 -68t-32.5 -77.5t-20.5 -77.5t-7 -68v-591h-128v1054h134v-119q27 40 50.5 67t49 43t55 22.5t66.5 6.5t71.5 -10.5t63 -24.5t49 -27t28.5 -17z" />
    <glyph glyph-name="s" unicode="s" horiz-adv-x="1024" 
d="M921 292q0 -60 -32.5 -116t-88 -99.5t-129.5 -70t-158 -26.5q-161 0 -262.5 75t-152.5 229l122 32q26 -62 53 -102t61 -63.5t77 -33t102 -9.5q50 0 100 16t90 42t65 60t25 70q0 96 -172 148q-152 46 -231.5 70.5t-88.5 29.5q-172 85 -172 264q0 51 29.5 99t80.5 85
t120.5 59.5t149.5 22.5q69 0 134.5 -24.5t116.5 -63.5t82 -87.5t31 -95.5l-128 -24q-6 38 -28.5 69.5t-56 53.5t-75 34t-84.5 12q-49 0 -93 -10t-77.5 -28.5t-53.5 -44.5t-20 -57q0 -44 12 -74t47.5 -55t99.5 -48t169 -52q109 -30 175.5 -61t102 -65.5t47 -74t11.5 -86.5z
" />
    <glyph glyph-name="t" unicode="t" horiz-adv-x="569" 
d="M577 4q-40 -8 -81 -16t-79 -8q-215 0 -215 208v739h-144v127h144v276h128v-276h200v-127h-200v-723q0 -48 26 -70.5t74 -22.5q28 0 52 5t56 16q20 -82 39 -128z" />
    <glyph glyph-name="u" unicode="u" horiz-adv-x="1139" 
d="M969 4h-136q9 31 9 67q0 32 -9 61q-78 -78 -154.5 -115t-161.5 -37q-71 0 -136.5 31t-116 81t-80.5 113t-30 127v722h128v-706q0 -43 19.5 -85.5t52 -77t74 -56t85.5 -21.5q49 -5 99 17.5t94.5 63t80 93t54.5 106.5v666h128v-1050z" />
    <glyph glyph-name="v" unicode="v" horiz-adv-x="1024" 
d="M953 1054l-369 -1054h-127l-383 1054h136l304 -822l303 822h136z" />
    <glyph glyph-name="w" unicode="w" horiz-adv-x="1479" 
d="M1424 1054l-312 -1054h-159l-224 815l-223 -815h-160l-304 1054h144l240 -846l237 846h146l224 -862l263 862h128z" />
    <glyph glyph-name="x" unicode="x" horiz-adv-x="1024" 
d="M977 0h-176l-279 440l-304 -440h-160l376 543l-352 511h176l248 -391l271 391h168l-344 -494z" />
    <glyph glyph-name="y" unicode="y" horiz-adv-x="1024" 
d="M961 1054l-378 -1016q-36 -96 -67 -178t-68.5 -142t-86.5 -94t-120 -34q-30 0 -64.5 8t-65 21.5t-52.5 29.5t-26 33l96 84q15 -11 27.5 -20t25.5 -15t28 -9.5t35 -3.5q25 -8 47.5 6t42 41.5t37 64.5t31.5 76t26 75.5t20 62.5l-367 1010h136l304 -818l295 818h144z" />
    <glyph glyph-name="z" unicode="z" horiz-adv-x="1024" 
d="M961 0h-895v136l679 798h-639v119h823v-106l-679 -819h711v-128z" />
    <glyph glyph-name="braceleft" unicode="{" horiz-adv-x="684" 
d="M633 -404h-127q-62 18 -105 43.5t-69.5 64.5t-38.5 93t-12 129v314q0 46 -14.5 85t-41.5 68.5t-65.5 48.5t-85.5 25v135q44 0 82 19.5t65.5 51t43.5 72.5t16 84v331q0 64 11 112.5t36.5 84.5t66 62t100.5 46h138v-125q-57 0 -96 -8t-63.5 -26.5t-35.5 -48.5t-11 -73v-306
q0 -59 -11 -106t-36.5 -86.5t-66 -74.5t-100.5 -70q51 -39 91 -74t67 -75.5t41.5 -90.5t14.5 -118v-330q0 -70 47.5 -101t158.5 -31v-125z" />
    <glyph glyph-name="bar" unicode="|" horiz-adv-x="532" 
d="M346 -404h-144v1869h144v-1869z" />
    <glyph glyph-name="braceright" unicode="}" horiz-adv-x="684" 
d="M625 467q-48 0 -86 -17.5t-65 -49t-41 -74.5t-14 -94v-339q0 -61 -11 -107.5t-36.5 -81.5t-68.5 -61t-106 -47h-131v125q57 0 96.5 8t64 27.5t35.5 50.5t11 78v242q0 82 7.5 140t29.5 103t63 82t107 76q-49 37 -87.5 70t-65 71.5t-40.5 88t-14 120.5v306q0 43 -10 72.5
t-33.5 48t-63.5 27t-100 8.5v125h131q65 -22 107.5 -50t68 -73t36 -112t10.5 -167v-258q0 -39 15.5 -73t43.5 -61t65.5 -45t81.5 -24v-135z" />
    <glyph glyph-name="asciitilde" unicode="~" horiz-adv-x="1196" 
d="M1088 667q-34 -34 -62 -55.5t-58 -34t-65.5 -17.5t-84.5 -5q-65 0 -124.5 24t-117 53t-115.5 53t-121 24q-31 0 -59.5 -7t-57 -22.5t-59 -40.5t-66.5 -62v171q0 16 20 38t55 42t83 33.5t104 13.5q34 0 75 -11.5t84.5 -28.5t88.5 -37t87.5 -37t81 -28.5t69.5 -11.5
q26 0 58.5 10.5t65.5 28.5t63.5 42.5t54.5 52.5v-188z" />
    <glyph glyph-name="copyright" unicode="&#xa9;" horiz-adv-x="1509" 
d="M758 1491q94 0 186.5 -25t176 -71.5t155.5 -113.5t124.5 -150.5t82 -183t29.5 -211.5q0 -99 -26 -193.5t-74 -178t-116 -153.5t-151.5 -121t-181 -79t-205.5 -28q-97 0 -190.5 25t-177.5 72t-155 114.5t-122.5 151t-80.5 182t-29 208.5q0 99 26 193.5t74.5 178.5
t116.5 154t152 121t181.5 79.5t204.5 28.5zM758 1366q-76 0 -152.5 -20t-146.5 -58.5t-130.5 -93.5t-105 -125t-70 -154t-25.5 -179q0 -79 21 -156t60 -147t94.5 -129.5t125.5 -103.5t153 -68.5t176 -24.5q81 0 159 21.5t148 61t129 96t102 126t67 151.5t24 173
q0 84 -22.5 163.5t-63.5 149.5t-98 128.5t-126.5 100t-149 65t-164.5 23.5h-5zM1000 614l123 -36q-15 -62 -48 -112.5t-80 -86.5t-107 -55.5t-129 -19.5q-89 0 -162 30t-125 86t-80.5 135.5t-28.5 178.5q0 101 29 180t82.5 134t128 83.5t164.5 28.5q133 0 221 -63.5
t120 -172.5l-119 -29q-30 75 -88.5 114t-137.5 39q-57 0 -105.5 -21t-84 -61.5t-55 -99.5t-19.5 -135t18 -134t51.5 -97t80 -59t103.5 -20q45 0 85.5 13.5t72.5 39t55.5 61t34.5 79.5z" />
    <glyph glyph-name="guillemotleft" unicode="&#xab;" horiz-adv-x="1139" 
d="M340 528l259 -456h-146l-319 456l319 456h148zM727 528l264 -456h-152l-313 456l313 456h152z" />
    <glyph glyph-name="logicalnot" unicode="&#xac;" horiz-adv-x="750" 
d="M90 590h569v-107h-569v107z" />
    <glyph glyph-name="registered" unicode="&#xae;" horiz-adv-x="1509" 
d="M758 1491q94 0 186.5 -25t176 -71.5t155.5 -113.5t124.5 -150.5t82 -183t29.5 -211.5q0 -99 -26 -193.5t-74 -178t-116 -153.5t-151.5 -121t-181 -79t-205.5 -28q-97 0 -190.5 25t-177.5 72t-155 114.5t-122.5 151t-80.5 182t-29 208.5q0 99 26 193.5t74.5 178.5
t116.5 154t152 121t181.5 79.5t204.5 28.5zM758 1366q-76 0 -152.5 -20t-146.5 -58.5t-130.5 -93.5t-105 -125t-70 -154t-25.5 -179q0 -79 21 -156t60 -147t94.5 -129.5t125.5 -103.5t153 -68.5t176 -24.5q81 0 159 21.5t148 61t129 96t102 126t67 151.5t24 173
q0 84 -22.5 163.5t-63.5 149.5t-98 128.5t-126.5 100t-149 65t-164.5 23.5h-5zM427 319v812h279q77 0 141 -10.5t109.5 -35.5t71 -67.5t25.5 -106.5q0 -45 -17 -85t-47.5 -71t-73.5 -50t-94 -23q28 -12 50 -27.5t43.5 -39.5t44 -57.5t51.5 -79.5l99 -159h-160l-72 128
q-38 67 -65.5 109.5t-53.5 66.5t-54.5 32.5t-68.5 8.5h-77v-345h-131zM558 776h159q59 0 97 9.5t60.5 26t31 39t8.5 49.5q0 66 -52 93.5t-155 27.5h-149v-245z" />
    <glyph glyph-name="guillemotright" unicode="&#xbb;" horiz-adv-x="1139" 
d="M791 528l-261 456h148l319 -456l-319 -456h-147zM404 528l-264 456h151l314 -456l-314 -456h-151z" />
    <glyph glyph-name="multiply" unicode="&#xd7;" horiz-adv-x="1150" 
d="M46 312l277 277q-67 68 -139 139.5t-137 136.5l181 181l276 -276l276 275l179 -180l-274 -275q67 -68 138.5 -140t137.5 -136l-181 -181l-276 276l-277 -277zM227 194l277 276l276 -276l119 120l-276 276l274 275l-117 119l-276 -275l-276 276l-119 -120l276 -276
l-277 -277z" />
    <glyph glyph-name="Euro" unicode="&#x20ac;" horiz-adv-x="1139" 
d="M1107 1410l-40 -186q-66 56 -144.5 80.5t-158.5 21t-156 -32.5t-137 -80t-102 -121.5t-50 -156.5h622l-17 -134h-621q-1 -13 -1 -35v-42t0.5 -37t0.5 -18h604l-18 -134h-565q6 -93 46 -165t102 -122t139.5 -77t158 -29.5t158 21.5t139.5 76v-206q-103 -44 -210 -55.5
t-208.5 7t-192.5 65t-161.5 117t-115.5 164t-54 205.5h-125v133h105v131l-105 -1v136h116q13 116 65.5 211.5t130.5 166t176.5 114.5t204.5 58t212.5 -4t201.5 -71z" />
    <glyph glyph-name="uni0E81" unicode="&#xe81;" horiz-adv-x="1320" 
d="M293 166q0 18 -7 34t-19 28t-28 19t-34 7t-34 -7t-28 -19t-19 -28t-7 -34q0 -37 25.5 -62.5t62.5 -25.5q18 0 34 7t28 19t19 28t7 34zM293 904q0 19 -4 43t-14 45t-27 35t-42 14q-17 0 -32.5 -4.5t-28.5 -13.5t-20.5 -23t-7.5 -32q0 -38 27 -57t62 -19q20 0 43.5 2
t43.5 10zM1168 166q0 -32 -3 -55t-9 -42t-14.5 -35.5t-19.5 -33.5h-155q10 16 21.5 32.5t21.5 36t16.5 43t6.5 54.5v675q0 45 -25 77t-63 51.5t-82 28.5t-81 9q-44 0 -93.5 -14t-97.5 -37t-90.5 -52.5t-72.5 -60.5v-677q0 -44 -19 -78.5t-50 -58.5t-71.5 -36.5t-82.5 -12.5
q-85 0 -135 50.5t-50 135.5q0 42 15.5 76.5t41 59t59 37.5t69.5 13q19 0 45 -4t43 -10v447q-17 -2 -43 -4t-44 -2q-85 0 -135.5 46t-50.5 137q0 87 50.5 132.5t135.5 45.5q37 0 72.5 -11t65 -31.5t51 -50.5t29.5 -67q28 34 69 63.5t87.5 51t95.5 33.5t94 12q29 0 70 -6.5
t85 -19t87.5 -31.5t78 -44.5t56 -57t21.5 -69.5v-746z" />
    <glyph glyph-name="uni0E82" unicode="&#xe82;" horiz-adv-x="1320" 
d="M435 782q0 18 -7 34t-19 28t-28 19t-35 7q-18 0 -34.5 -7t-28.5 -19t-19.5 -28t-7.5 -34t7.5 -34t19.5 -28t28.5 -19t34.5 -7q38 0 63.5 26t25.5 62zM1177 806q0 -71 -34.5 -127t-91.5 -101t-130.5 -80.5t-152.5 -64.5q-91 -33 -180 -61t-159.5 -54t-114 -52.5
t-43.5 -57.5q0 -35 25.5 -54t60 -28t69.5 -11t55 -2q43 0 78.5 10.5t67 26t61 34t61 34t66.5 26t77 10.5q44 0 94 -9.5t92.5 -33t70.5 -63.5t28 -101q0 -11 -2.5 -23t-6.5 -24h-135q4 11 6.5 21.5t2.5 21.5q0 21 -13 36t-35 24t-50.5 13.5t-59.5 4.5q-43 0 -80.5 -22
t-80.5 -48.5t-98 -48.5t-133 -22q-32 0 -70.5 3t-78 11t-77 23.5t-66.5 40.5t-46.5 61.5t-17.5 86.5q0 49 26 88t70 71t103 58t125 49t135.5 44.5t134.5 44.5q64 22 121 46.5t99.5 54.5t67 65.5t24.5 80.5q0 41 -19.5 71.5t-51.5 53t-72 36.5t-82 22.5t-81 12t-68 3.5
q-26 0 -60 -1.5t-72.5 -6.5t-78.5 -14t-79 -25q34 -4 62 -19.5t47 -39t29.5 -53.5t10.5 -62q0 -87 -51.5 -136.5t-165.5 -49.5q-32 0 -63 13t-55.5 39.5t-40 66t-15.5 93.5q0 77 46 138t121.5 103t173 64.5t200.5 22.5q53 0 110.5 -6t113 -20.5t105.5 -38.5t88 -61.5
t60.5 -88.5t22.5 -119z" />
    <glyph glyph-name="uni0E84" unicode="&#xe84;" horiz-adv-x="1320" 
d="M527 165q0 37 -25 63t-64 26q-37 0 -62 -26t-25 -63q0 -36 25.5 -61.5t61.5 -25.5q38 0 63.5 25.5t25.5 61.5zM525 606q0 35 -21 60.5t-55 25.5q-45 0 -70.5 -24.5t-49.5 -61.5q25 -29 47.5 -46t59.5 -17q15 0 31 3t29 10t21 19.5t8 30.5zM265 228q9 28 27.5 51t43 39
t52.5 25t56 9q37 0 70 -15.5t57.5 -41.5t38.5 -59.5t14 -70.5q0 -40 -16 -74t-43 -58.5t-62 -38.5t-74 -14q-75 0 -134.5 27.5t-101 75t-64 111.5t-23.5 136q-2 33 0.5 69t10.5 71.5t22.5 68t37.5 59.5q-31 37 -50 90.5t-19 104.5q0 64 26.5 115.5t70.5 90t101.5 66t118 45
t120.5 25.5t110 8q41 0 95 -8.5t111 -26t111.5 -43.5t97.5 -61.5t69 -79.5t26 -97v-661q0 -31 -4 -54t-11 -42t-15 -35.5t-16 -34.5h-155q11 18 23 38t21.5 41.5t15.5 43.5t6 43v608q0 40 -19.5 73t-51.5 59.5t-73 45.5t-83 32t-82 19.5t-70 6.5q-41 0 -87.5 -5t-92 -16.5
t-87 -30.5t-73.5 -48t-51 -68.5t-19 -91.5q0 -16 6 -30.5t12 -27.5q30 48 72.5 74t94.5 26q40 0 76 -12.5t63.5 -36.5t43.5 -58t16 -77t-17 -75t-45 -53.5t-64.5 -32.5t-76.5 -11q-32 0 -50.5 5.5t-33.5 15.5t-30.5 24t-40.5 31q-15 -34 -20.5 -73.5t-5.5 -77.5
q0 -18 1 -37.5t3.5 -37.5t7 -33t12.5 -25z" />
    <glyph glyph-name="uni0E87" unicode="&#xe87;" horiz-adv-x="1000" 
d="M330 758q0 37 -25 62t-62 25t-63 -25t-26 -62q0 -39 26 -64t63 -25t62 25t25 64zM103 -197q35 -24 87 -39t108 -20.5t109.5 1t91.5 26.5q40 20 74.5 48.5t59.5 63.5t39.5 77.5t14.5 90.5v750q0 45 -28.5 83t-72 65.5t-95.5 42.5t-98 15q-32 0 -65.5 -6.5t-62.5 -17
t-51.5 -25t-32.5 -29.5q19 9 29.5 11.5t19.5 2.5h15q43 0 77 -14t57.5 -38.5t35.5 -58t12 -72.5q0 -41 -14 -75.5t-39 -60t-59 -39.5t-74 -14q-57 0 -99 17t-69 49t-40 77t-13 101q0 61 32 119.5t84.5 104t120 73.5t138.5 28q79 0 156 -25t137 -72t97 -113.5t37 -150.5v-716
q0 -83 -23 -149.5t-61 -117.5t-88 -88.5t-104 -63.5q-48 -22 -115.5 -28.5t-138.5 0t-136 24.5t-107 45z" />
    <glyph glyph-name="uni0E88" unicode="&#xe88;" horiz-adv-x="1235" 
d="M680 631q-5 39 -33 61t-66 17q-37 -4 -58.5 -32t-17.5 -67q4 -38 32 -59.5t64 -17.5q39 5 61 32.5t18 65.5zM882 317q22 100 42 172.5t35 128t23.5 100t8.5 89.5q0 48 -17 81.5t-45.5 55t-65.5 34t-77.5 18t-81 7t-75.5 1.5q-16 0 -51 -4.5t-78.5 -13t-90 -20.5
t-84.5 -27.5t-62.5 -34.5t-24.5 -40q0 -14 6.5 -24.5t15.5 -18t19 -12t18 -7.5l-70 -113q-23 10 -46.5 27t-42 39.5t-30.5 51t-12 61.5q0 55 33 97t86 72.5t118.5 50.5t131.5 31.5t124.5 16.5t96.5 5q75 0 153 -14t142 -49t105 -94.5t41 -149.5q0 -43 -11.5 -103t-28.5 -131
t-37.5 -149t-38.5 -156t-31.5 -153.5t-16.5 -141.5h-170q0 52 -6.5 111t-18.5 119t-29.5 119t-39.5 111q-27 -11 -46 -16t-39 -8q-38 -6 -73.5 4.5t-63.5 33.5t-46.5 56.5t-22.5 73.5q-5 37 5 71.5t32.5 62t54.5 45.5t70 23q40 5 74 -7.5t62 -36.5t48.5 -56.5t32.5 -66.5
q26 -72 49 -155t46 -167z" />
    <glyph glyph-name="uni0E8A" unicode="&#xe8a;" horiz-adv-x="1300" 
d="M415 782q0 18 -7 34t-19 28t-28 19t-35 7q-18 0 -34.5 -7t-28.5 -19t-19.5 -28t-7.5 -34t7.5 -34t19.5 -28t28.5 -19t34.5 -7q38 0 63.5 26t25.5 62zM1157 806q0 -71 -34.5 -127t-91.5 -101t-130.5 -80.5t-152.5 -64.5q-91 -33 -180 -61t-159.5 -54t-114 -52.5
t-43.5 -57.5q0 -35 25.5 -54t60 -28t69.5 -11t55 -2q43 0 78.5 10.5t67 26t61 34t60.5 34t65.5 26t75.5 10.5q39 0 90.5 -9.5t96.5 -32.5t74 -63.5t23 -101.5q-6 -53 -11.5 -98.5t-3.5 -87t14.5 -81t41.5 -79.5l-122 -58q-31 37 -46 84t-19.5 99t-0.5 107t12 110
q5 37 -35 57.5t-119 20.5q-29 0 -55 -10.5t-52 -26t-54.5 -34t-62 -34t-75 -26t-93.5 -10.5q-32 0 -70.5 3t-78 11t-77 23.5t-66.5 40.5t-46.5 61.5t-17.5 86.5q0 49 26 88t70 71t103 58t125 49t135.5 44.5t134.5 44.5q64 22 121 46.5t99.5 54.5t67 65.5t24.5 80.5
q0 41 -19.5 71.5t-51.5 53t-72 36.5t-82 22.5t-81 12t-68 3.5q-26 0 -60 -1.5t-72.5 -6.5t-78.5 -14t-79 -25q34 -4 62 -19.5t47 -39t29.5 -53.5t10.5 -62q0 -87 -51.5 -136.5t-165.5 -49.5q-32 0 -63 13t-55.5 39.5t-40 66t-15.5 93.5q0 52 22 96.5t60.5 80.5t91 64.5
t112.5 47.5t125 29t130 10q53 0 110.5 -6t113 -20.5t105.5 -38.5t88 -61.5t60.5 -88.5t22.5 -119z" />
    <glyph glyph-name="uni0E8D" unicode="&#xe8d;" horiz-adv-x="1320" 
d="M536 956q0 36 -23 61t-60 25q-39 0 -65.5 -23.5t-26.5 -62.5q0 -37 26.5 -63.5t65.5 -26.5q37 0 60 26.5t23 63.5zM1117 1120q8 -19 15.5 -41.5t13 -46t9 -46.5t3.5 -44v-637q0 -56 -23.5 -102t-62 -82t-88.5 -62.5t-103.5 -44t-106 -26t-96.5 -8.5q-78 0 -168 13.5
t-177 51.5q-45 20 -85 48t-69 64.5t-46 81t-17 97.5q0 30 10 58t27.5 52t41.5 42t52 28q-29 18 -53.5 45t-41.5 58.5t-26.5 66.5t-9.5 69q0 100 32.5 173t82 120t107.5 69.5t109 22.5q39 0 73 -15t59 -41.5t39.5 -61.5t14.5 -75q0 -29 -12.5 -60.5t-35 -58t-54 -43.5
t-70.5 -17q-66 0 -115 31t-69 97q-10 -21 -15 -35.5t-7.5 -28.5t-3 -29t-0.5 -36q0 -53 25.5 -87.5t65 -55.5t86.5 -29t89 -7q26 1 47.5 2t49.5 5l14 -134q-18 -1 -53 -4t-77 -9t-85.5 -16t-79.5 -24.5t-59 -34.5t-23 -47q0 -26 12.5 -49t32.5 -43.5t45 -37.5t50 -30
q37 -19 78 -29.5t79.5 -16t71.5 -6.5t56 -1q58 0 119.5 14t111 45.5t81.5 81t32 121.5v495q0 28 -2 61.5t-8.5 68t-18 66t-29.5 54.5h155z" />
    <glyph glyph-name="uni0E94" unicode="&#xe94;" horiz-adv-x="1320" 
d="M546 167q0 37 -25 63t-64 26q-37 0 -62 -26t-25 -63q0 -36 25.5 -61.5t61.5 -25.5q38 0 63.5 25.5t25.5 61.5zM283 229q9 28 27.5 51t43 39t52.5 25t56 9q37 0 70 -16t58 -42t39 -60t14 -71q0 -40 -16 -73.5t-43 -58t-62.5 -38t-74.5 -13.5q-75 0 -134.5 28t-100.5 76
t-63 112t-23 136v395q0 65 24 121t65 102t95.5 81t114 59t121 36.5t117.5 12.5q61 0 124 -10t120.5 -31t108 -53.5t88 -77.5t59 -102.5t21.5 -129.5v-531q0 -31 -9 -60.5t-21.5 -55.5t-27.5 -48.5l-27 -40.5h-158q24 28 44 52.5t34 50t22 54t8 66.5v474q0 89 -33.5 148.5
t-88 95.5t-125 51t-145.5 15q-67 0 -137.5 -20t-128.5 -60t-95 -98.5t-37 -135.5v-323q0 -18 0.5 -38.5t3 -40t7.5 -36t13 -26.5z" />
    <glyph glyph-name="uni0E95" unicode="&#xe95;" horiz-adv-x="1320" 
d="M552 163q0 18 -7 34.5t-19.5 29t-29 19.5t-35.5 7q-37 0 -63.5 -26.5t-26.5 -63.5t26.5 -63.5t63.5 -26.5q19 0 35.5 7t29 19.5t19.5 29t7 34.5zM1048 726q0 20 -0.5 48.5t-5 59.5t-13 61t-25 54t-41 39t-60.5 15q-27 0 -49 -20t-41.5 -50.5t-38 -65.5t-37 -65.5
t-38.5 -50.5t-44 -20t-44.5 20.5t-39.5 50.5t-38.5 66t-40 66t-43.5 50.5t-51 20.5q-51 0 -79 -28.5t-40.5 -69t-15 -85.5t-2.5 -78v-386q0 -17 1 -37t4 -39t8 -34t13 -22q8 29 26.5 51.5t42.5 37.5t52 22.5t56 7.5q38 0 71 -14t57 -38t38 -57t14 -71q0 -41 -16.5 -75
t-44 -58t-63.5 -37.5t-75 -13.5q-71 0 -129.5 27.5t-100.5 74t-65.5 108t-23.5 130.5v440q0 64 14.5 131.5t47 122.5t85 90t129.5 35q50 0 87.5 -19t67 -49t53 -66t45.5 -70q22 34 43.5 70t49 65t65.5 48t92 19q79 0 132.5 -36t86 -92.5t46 -126t13.5 -136.5v-542
q0 -31 -9 -60.5t-21.5 -55.5t-27.5 -48.5l-27 -40.5h-158q24 28 44 52.5t34 50t22 54t8 66.5v503z" />
    <glyph glyph-name="uni0E96" unicode="&#xe96;" horiz-adv-x="1320" 
d="M644 166q0 18 -7 34t-19 28t-28 19t-34 7t-34 -7t-28 -19t-19 -28t-7 -34t7 -34t19 -28t28 -19t34 -7q37 0 62.5 25.5t25.5 62.5zM334 904q-1 23 -5 47.5t-14 44.5t-28 32.5t-47 12.5q-16 0 -31 -5.5t-26 -15.5t-18 -23.5t-7 -28.5q0 -25 9 -40t22.5 -23.5t30 -11
t31.5 -2.5q36 0 55.5 4.5t27.5 8.5zM1148 -353q-27 40 -42 92.5t-22 109.5t-8.5 113.5t-1.5 103.5v768q0 49 -26.5 82t-67 53t-87.5 28.5t-87 8.5q-35 0 -73 -11t-76 -28t-72 -37t-60 -38t-41.5 -31.5t-15.5 -17.5v-506q25 8 44 11.5t36 3.5q41 0 76 -13.5t60.5 -37.5
t40 -58.5t14.5 -76.5q0 -90 -49 -138t-134 -48q-27 0 -65 8t-73.5 31.5t-60 66t-24.5 110.5v589q-16 -2 -39 -4t-33 -2q-45 0 -82 11t-63.5 32.5t-41.5 52.5t-15 71q0 94 48.5 144.5t145.5 50.5q36 0 70.5 -11t63 -32t49.5 -51t29 -67q35 40 80 70t91.5 49.5t90.5 29.5
t77 10q38 0 82.5 -7t89.5 -20.5t87 -34.5t74.5 -48.5t52 -62t19.5 -75.5v-836q0 -32 -0.5 -76t3.5 -90.5t14.5 -90t32.5 -73.5z" />
    <glyph glyph-name="uni0E97" unicode="&#xe97;" horiz-adv-x="1404" 
d="M359 955q0 37 -26 62t-63 25t-62 -25t-25 -62q0 -39 25 -64t62 -25t63 25t26 64zM1276 184q0 -38 -2 -64.5t-6.5 -46.5t-11.5 -37t-17 -36h-165q15 21 27 39.5t20.5 38t13.5 41t5 47.5v608q1 42 -8 83.5t-30 75t-55.5 54.5t-83.5 21q-50 0 -83.5 -18.5t-53.5 -49
t-28.5 -70.5t-8.5 -82v-483q0 -78 -24.5 -139t-68.5 -102t-106.5 -62.5t-138.5 -21.5q-86 0 -153.5 16t-114.5 53.5t-72 99.5t-25 154q0 45 16.5 109t53.5 134q32 60 72 115.5t72 106.5q-44 0 -83 11t-68 33.5t-46 57.5t-17 83q0 43 15.5 78t42 59t60.5 37t70 13
q42 0 79.5 -9.5t66 -31t45.5 -56.5t17 -86q0 -59 -19 -116.5t-49 -115.5t-66.5 -116.5t-70.5 -119.5q-34 -60 -45 -112t-11 -92q0 -56 18 -90t49 -52t72 -24t87 -6q40 0 77.5 14t66.5 39t46 60.5t17 78.5v479q0 75 15 140.5t49.5 113.5t91.5 75.5t141 27.5q87 0 148.5 -24.5
t100.5 -70.5t57.5 -112.5t18.5 -149.5v-600z" />
    <glyph glyph-name="uni0E99" unicode="&#xe99;" horiz-adv-x="1320" 
d="M352 955q0 19 -7 35t-19.5 28t-29 18.5t-34.5 6.5q-38 0 -63.5 -25t-25.5 -63q0 -37 25 -62.5t64 -25.5q37 0 63.5 25.5t26.5 62.5zM1179 240q0 -38 -16 -71t-42.5 -60.5t-61 -49.5t-72 -36.5t-75 -22.5t-69.5 -8q-69 0 -121.5 8.5t-93 22t-71 30t-56 32t-47.5 28
t-45 18.5q-21 -27 -45.5 -47.5t-57 -37.5t-74.5 -30.5t-98 -25.5l-15 133q42 9 83 26t73 49.5t51.5 83t19.5 126.5v383q-17 -11 -41 -16.5t-41 -5.5q-85 0 -136.5 49.5t-51.5 137.5q0 91 50.5 138t141.5 47q45 0 84 -15.5t67.5 -43t45 -65.5t16.5 -83v-535q0 -69 31 -120
t78.5 -85t103.5 -50.5t106 -16.5q39 0 82 8t79 26.5t59.5 50t23.5 79.5v578q0 27 -3 60.5t-10 67.5t-19.5 66.5t-30.5 56.5h155q19 -45 31 -98.5t12 -101.5v-680z" />
    <glyph glyph-name="uni0E9A" unicode="&#xe9a;" horiz-adv-x="1320" 
d="M359 955q0 37 -26 62t-63 25t-62 -25t-25 -62q0 -39 25 -64t62 -25t63 25t26 64zM1165 394q0 -76 -24.5 -136.5t-66 -106.5t-97.5 -78.5t-119 -53t-130 -30t-131 -9.5q-57 0 -117 8t-117 26t-107 45.5t-88 67t-60 90.5t-22 116q0 21 3 49.5t10.5 60.5t21 66t35.5 67
q19 30 32.5 49.5t28 38.5t33.5 42.5t50 61.5q-44 0 -83 11t-68 33.5t-46 57.5t-17 83q0 43 15.5 78t42 59t60.5 37t70 13q42 0 80 -9.5t66.5 -31t45 -56.5t16.5 -86q0 -52 -21 -108t-52.5 -112t-67 -111.5t-64.5 -106.5q-17 -30 -28 -52.5t-17 -44.5t-8.5 -47t-2.5 -61
q0 -38 34.5 -74t89.5 -63.5t124 -45t138 -18.5q83 0 159.5 15.5t135 47.5t93.5 82t35 119v493q0 27 -3 60.5t-10 67.5t-19.5 66t-30.5 56h155q8 -20 15.5 -45t13.5 -51t10 -53t4 -51v-526z" />
    <glyph glyph-name="uni0E9B" unicode="&#xe9b;" horiz-adv-x="1320" 
d="M359 955q0 37 -26 62t-63 25t-62 -25t-25 -62q0 -39 25 -64t62 -25t63 25t26 64zM1282 1446q-42 -68 -65.5 -126.5t-35 -117t-14 -123t-2.5 -143.5v-542q0 -76 -24.5 -136.5t-66 -106.5t-97.5 -78.5t-119 -53t-130 -30t-131 -9.5q-57 0 -117 8.5t-117 26t-107 45
t-88 65.5t-60 87.5t-22 110.5q0 22 3 52.5t10.5 63.5t19 65.5t29.5 59.5q21 31 39 56t35.5 48t36 47t41.5 53q-44 0 -83 11t-68 33.5t-46 57.5t-17 83q0 43 15.5 78t42 59t60.5 37t70 13q42 0 79.5 -9.5t66 -31t45.5 -56.5t17 -86q0 -50 -22 -107.5t-54.5 -117t-69.5 -117
t-67 -108.5q-18 -31 -28 -59t-14.5 -53.5t-5 -48t-0.5 -42.5q0 -33 34.5 -67t89.5 -61t124 -44.5t138 -18.5q83 0 159.5 15.5t135 47.5t93.5 82t35 119v584q0 70 2.5 130t11.5 117t26 114.5t46 123.5h166z" />
    <glyph glyph-name="uni0E9C" unicode="&#xe9c;" horiz-adv-x="1320" 
d="M1009 954q-19 43 -50 65.5t-68 22.5t-62.5 -25.5t-25.5 -62.5t25.5 -62.5t62.5 -25.5t67.5 23t50.5 65zM1208 351q0 -65 -15.5 -131t-49 -119.5t-87.5 -87t-132 -33.5q-41 0 -81.5 12.5t-77.5 34.5t-68.5 51t-53.5 61q-19 -35 -48 -64t-64 -50t-74 -33t-78 -12
q-78 0 -133.5 33.5t-91 87t-52 119.5t-16.5 132v428q0 67 22 131.5t62 115.5t96.5 82t125.5 31q40 0 75.5 -13t62.5 -37t42.5 -59t15.5 -78q0 -39 -15.5 -73t-41 -59t-58.5 -39t-67 -14q-60 0 -102.5 19t-73.5 64q-11 -124 -10 -249.5t1 -251.5q0 -94 31 -148.5t76.5 -75.5
t96 -10.5t90.5 47t60.5 97t4.5 139.5q73 43 135 0q-12 -77 10 -137t61.5 -97.5t89.5 -48.5t93.5 9t73.5 75t30 150q0 126 1 251t-10 250q-37 -42 -79 -62.5t-84 -20.5q-41 0 -76 13.5t-61.5 38t-41.5 58.5t-15 75q0 43 15.5 78t42 59.5t62 37.5t75.5 12q57 0 103 -23t80 -50
q22 30 30.5 69.5t10.5 71.5l126 -44q-3 -29 -9.5 -58t-17 -57t-24.5 -52.5t-32 -42.5q21 -45 30 -84.5t9 -89.5v-429zM315 954q0 -37 25.5 -62.5t62.5 -25.5t62.5 25.5t25.5 62.5t-25.5 62.5t-62.5 25.5t-62.5 -25.5t-25.5 -62.5z" />
    <glyph glyph-name="uni0E9D" unicode="&#xe9d;" horiz-adv-x="1320" 
d="M315 954q0 -37 25.5 -62.5t62.5 -25.5t62.5 25.5t25.5 62.5t-25.5 62.5t-62.5 25.5t-62.5 -25.5t-25.5 -62.5zM1314 1448q-38 -63 -59.5 -120.5t-31.5 -116t-12 -121t-2 -136.5v-603q0 -65 -15.5 -131t-49.5 -119.5t-88 -87t-132 -33.5q-41 0 -81.5 12.5t-77.5 34.5
t-68.5 51t-53.5 61q-19 -35 -48 -64t-64 -50t-74 -33t-78 -12q-78 0 -133.5 33.5t-91 87t-52 119.5t-16.5 132v428q0 67 22 131.5t62 115.5t96.5 82t125.5 31q40 0 75.5 -13t62.5 -37t42.5 -59t15.5 -78q0 -39 -15.5 -73t-41 -59t-58.5 -39t-67 -14q-60 0 -102.5 19
t-73.5 64q-7 -12 -9 -23.5t-2 -23.5q0 -11 1 -23t1 -24v-407q0 -94 31 -148.5t76.5 -75.5t96 -10.5t90.5 47t60.5 97t4.5 139.5q73 43 135 0q-12 -77 10 -137t62 -97.5t89.5 -48.5t93.5 9t74 75t30 150v692q0 58 5 109.5t15.5 100.5t26.5 97t39 99h154z" />
    <glyph glyph-name="uni0E9E" unicode="&#xe9e;" horiz-adv-x="1400" 
d="M359 955q0 37 -26 62t-63 25t-62 -25t-25 -62q0 -39 25 -64t62 -25t63 25t26 64zM300 768q-44 0 -83 11t-68 33.5t-46 57.5t-17 83q0 43 15.5 78t42 59t60.5 37t70 13q42 0 79.5 -9.5t66 -31t45.5 -56.5t17 -86q0 -59 -19 -116.5t-49 -115.5t-66.5 -116.5t-70.5 -119.5
q-34 -60 -45 -112t-11 -92q0 -56 18 -90t49 -52t72 -24t87 -6q43 0 80 15t64.5 41.5t43 63t15.5 80.5v807h135v-809q0 -35 14 -70t39 -63.5t58.5 -46.5t72.5 -18q40 0 71.5 19.5t53.5 50t33.5 68t11.5 73.5v796h135v-809q0 -62 -18.5 -121t-55.5 -106t-92.5 -75.5
t-130.5 -28.5q-36 0 -73 8t-71.5 24t-65 40.5t-53.5 58.5q-21 -32 -51.5 -56.5t-65.5 -41t-72.5 -25t-73.5 -8.5q-86 0 -153.5 16t-114.5 53.5t-72 99.5t-25 154q0 45 16.5 109t53.5 134q32 60 72 115.5t72 106.5z" />
    <glyph glyph-name="uni0E9F" unicode="&#xe9f;" horiz-adv-x="1400" 
d="M379 955q0 37 -26 62t-63 25t-62 -25t-25 -62q0 -39 25 -64t62 -25t63 25t26 64zM1327 1448q-40 -63 -61.5 -121t-31 -117t-11 -122t-1.5 -136q0 -72 7 -142t18 -142q15 -88 31 -177t16 -180q0 -62 -18.5 -121t-55.5 -106t-92.5 -75.5t-130.5 -28.5q-36 0 -73 8t-71.5 24
t-65 40.5t-53.5 58.5q-21 -32 -51.5 -56.5t-65.5 -41t-72.5 -25t-73.5 -8.5q-86 0 -153.5 16t-114.5 53.5t-72 99.5t-25 154q0 45 16.5 109t53.5 134q32 60 72 115.5t72 106.5q-44 0 -83 11t-68 33.5t-46 57.5t-17 83q0 43 15.5 78t42 59t60.5 37t70 13q42 0 79.5 -9.5
t66 -31t45.5 -56.5t17 -86q0 -59 -19 -116.5t-49 -115.5t-66.5 -116.5t-70.5 -119.5q-34 -60 -45 -112t-11 -92q0 -56 18 -90t49 -52t72 -24t87 -6q43 0 80 15t64.5 41.5t43 63t15.5 80.5v807h135v-809q0 -35 14 -70t39 -63.5t58.5 -46.5t72.5 -18q40 0 71.5 19.5t53.5 50
t33.5 68t11.5 73.5q0 66 -11 132.5t-22 129.5q-15 94 -27 188t-12 191q0 62 2.5 124t11.5 123t26 120.5t46 115.5h154z" />
    <glyph glyph-name="uni0EA1" unicode="&#xea1;" horiz-adv-x="1273" 
d="M277 1120h155q12 -22 20 -49.5t13.5 -57t7.5 -58t2 -52.5v-612q0 -62 27.5 -97.5t70.5 -53.5t95 -22.5t100 -4.5q47 0 95 12t87 37t63.5 64t24.5 94v605q0 25 -6 52t-15.5 53t-20.5 49t-21 41h155q14 -19 22.5 -45t13 -53.5t6 -55t1.5 -49.5v-630q0 -75 -37 -132.5
t-95 -96.5t-127.5 -58.5t-135.5 -19.5q-40 0 -86 2.5t-91.5 11t-87.5 25t-74 44.5q-14 -22 -36.5 -37.5t-49 -25t-53 -14t-47.5 -4.5q-46 0 -81 14t-58.5 38.5t-35.5 58.5t-12 73q0 36 13 69.5t37.5 59.5t59 41.5t77.5 15.5q17 0 40.5 -3.5t46.5 -10.5v569q0 23 -5 52
t-13.5 58.5t-20 56.5t-24.5 46zM165 166q0 -37 25.5 -62.5t62.5 -25.5t62.5 25.5t25.5 62.5t-25.5 62.5t-62.5 25.5t-62.5 -25.5t-25.5 -62.5z" />
    <glyph glyph-name="uni0EA2" unicode="&#xea2;" horiz-adv-x="1320" 
d="M536 956q0 36 -23 61t-60 25q-39 0 -65.5 -23.5t-26.5 -62.5q0 -37 26.5 -63.5t65.5 -26.5q37 0 60 26.5t23 63.5zM1158 305q0 -56 -23.5 -102t-62 -82t-88.5 -62.5t-103.5 -44t-106 -26t-96.5 -8.5q-78 0 -168 13.5t-177 51.5q-45 20 -85 48t-69 64.5t-46 81t-17 97.5
q0 30 10 58t27.5 52t41.5 42t52 28q-29 18 -53.5 45t-41.5 58.5t-26.5 66.5t-9.5 69q0 100 32.5 173t82 120t107.5 69.5t109 22.5q39 0 73 -15t59 -41.5t39.5 -61.5t14.5 -75q0 -29 -12.5 -60.5t-35 -58t-54 -43.5t-70.5 -17q-66 0 -115 31t-69 97q-10 -21 -15 -35.5
t-7.5 -28.5t-3 -29t-0.5 -36q0 -53 25.5 -87.5t65 -55.5t86.5 -29t89 -7q26 1 47.5 2t49.5 5l14 -134q-18 -1 -53 -4t-77 -9t-85.5 -16t-79.5 -24.5t-59 -34.5t-23 -47q0 -26 12.5 -49t32.5 -43.5t45 -37.5t50 -30q37 -19 78 -29.5t79.5 -16t71.5 -6.5t56 -1q58 0 119.5 14
t111 45.5t81.5 81t32 121.5v577q0 67 2.5 129.5t11.5 123.5t25.5 121t44.5 122h155q-59 -97 -80 -198t-21 -216v-729z" />
    <glyph glyph-name="uni0EA3" unicode="&#xea3;" horiz-adv-x="1254" 
d="M404 339q0 37 -26 62.5t-63 25.5q-18 0 -33.5 -7t-27.5 -19t-19 -28t-7 -34t7 -34t19 -28t27.5 -19t33.5 -7t34 7t28.5 19t19.5 28t7 34zM1128 317q0 -64 -24 -114t-64.5 -87.5t-93.5 -63t-110.5 -42t-116 -23.5t-109.5 -7q-52 0 -109.5 9t-113.5 27.5t-106.5 45.5
t-89 63.5t-61 82t-22.5 100.5q0 56 18 97t48 67.5t68.5 39.5t79.5 13q39 0 72 -14t56.5 -39t36.5 -59.5t13 -74.5q0 -35 -8.5 -67.5t-27 -57.5t-47 -40.5t-68.5 -15.5q78 -29 142.5 -37t118.5 -8q34 0 75.5 3t84 11.5t82.5 23.5t71.5 39t50.5 57.5t19 79.5q0 74 -27 121
t-77.5 77.5t-123.5 51t-165 41.5q-49 11 -104.5 20.5t-110 21.5t-104.5 29t-88.5 43.5t-61.5 64.5t-23 93q-1 63 22.5 106t64 71t92.5 43t108.5 22t112 8t102.5 1q83 0 155.5 -6.5t132.5 -29t106.5 -66.5t78.5 -119l-118 -63q-21 59 -57.5 90t-83.5 44.5t-101.5 15
t-112.5 1.5q-76 0 -143 -3.5t-117.5 -16t-79 -36t-27.5 -62.5q1 -24 18.5 -41t46.5 -30t67 -22.5t79.5 -17t84 -14.5t80.5 -15q99 -20 191.5 -49t163.5 -77t113 -122t41 -184z" />
    <glyph glyph-name="uni0EA5" unicode="&#xea5;" horiz-adv-x="1320" 
d="M496 166q0 37 -25.5 62.5t-63.5 25.5q-37 0 -62 -25.5t-25 -62.5t25 -62.5t62 -25.5q38 0 63.5 25.5t25.5 62.5zM251 274q12 17 29.5 31t38.5 24.5t42.5 16.5t41.5 6q38 0 72.5 -13.5t60.5 -38t41.5 -58.5t15.5 -74q0 -41 -13.5 -75t-38.5 -59.5t-59 -39.5t-75 -14
q-59 0 -111.5 15t-92.5 50.5t-63.5 93t-23.5 142.5q0 81 33.5 137.5t87.5 92t122 51.5t137 16t118 -22.5t85 -60t62.5 -86.5t50.5 -102q19 -41 33.5 -76.5t27.5 -61.5t26.5 -41t30.5 -15q24 0 41.5 21.5t29.5 55.5t19 78t11 90t5.5 91.5t1.5 81.5q4 100 -7 171t-32.5 119.5
t-50 78.5t-59.5 49q-24 15 -60 26t-75 18t-77 10.5t-66 3.5q-29 0 -53.5 -0.5t-47 -2t-44.5 -4.5t-47 -9q-23 -5 -52.5 -12.5t-55.5 -18t-43.5 -25t-16.5 -33.5q0 -12 7 -22.5t16.5 -19.5t18.5 -15.5t13 -10.5l-80 -100q-48 24 -79 65.5t-31 98.5q0 54 26 92.5t66.5 65
t90 42.5t97.5 25q20 4 48.5 7t59 5.5t59 3.5t48.5 1q38 0 87.5 -4t100 -14t97 -26.5t78.5 -40.5q63 -48 102 -106.5t60.5 -123t29 -132.5t7.5 -134q0 -91 -4 -175t-19 -157q-11 -55 -29 -100.5t-44 -78t-61.5 -50.5t-81.5 -18q-59 0 -94.5 23.5t-59 60t-41 81.5t-39.5 88
q-22 42 -40 81t-41.5 68.5t-58 47t-90.5 17.5q-41 0 -80.5 -10.5t-70.5 -32t-49.5 -54t-18.5 -76.5z" />
    <glyph glyph-name="uni0EA7" unicode="&#xea7;" horiz-adv-x="1262" 
d="M412 340q0 37 -25 62t-62 25q-39 0 -64 -25t-25 -62q0 -39 25 -64t64 -25q37 0 62 25t25 64zM1131 379q0 -111 -47 -187.5t-123 -123.5t-171 -67.5t-191 -20.5q-46 0 -99 8.5t-107 26t-104 45t-88.5 64.5t-61.5 85t-23 107q0 47 16 85.5t45 65.5t68.5 41.5t86.5 14.5
q84 -1 130 -53t46 -134q0 -75 -35 -123t-105 -56q21 -12 51 -20.5t61 -14t61 -8t51 -2.5q68 0 140 11t130.5 41t96 84t37.5 141v318q0 84 -35.5 141t-92.5 92.5t-128 51t-141 15.5q-29 0 -66 -3.5t-75.5 -12.5t-75.5 -23.5t-66 -36.5t-47 -51.5t-18 -68.5h-135
q0 61 22.5 109t60 84.5t86.5 62.5t103 42t109.5 23.5t105.5 7.5q100 0 195 -24t169 -75t119 -131.5t45 -192.5v-338z" />
    <glyph glyph-name="uni0EAA" unicode="&#xeaa;" horiz-adv-x="1320" 
d="M506 166q0 37 -25.5 62.5t-63.5 25.5q-37 0 -62 -25.5t-25 -62.5t25 -62.5t62 -25.5q38 0 63.5 25.5t25.5 62.5zM899 949q-26 16 -62.5 27t-75 18t-75.5 10t-65 3q-29 0 -53.5 -0.5t-47 -2t-44.5 -4.5t-47 -9q-23 -5 -52 -12.5t-55 -18t-43.5 -25t-17.5 -33.5
q0 -15 11 -26.5t28 -20.5t36 -15t36 -10q17 -5 76 -9.5t144 -4.5q42 0 85 7t83.5 22.5t76 41t62.5 62.5zM1165 1133q-17 -43 -37.5 -92.5t-49.5 -85.5q32 -41 52.5 -89t32 -99t16 -104t4.5 -104q0 -91 -4 -175t-19 -157q-11 -55 -29 -100.5t-44 -78t-61.5 -50.5t-81.5 -18
q-59 0 -94.5 23.5t-59 60t-41 81.5t-39.5 88q-22 42 -40 81t-41.5 68.5t-58 47t-90.5 17.5q-41 0 -80.5 -10.5t-70.5 -32t-49.5 -54t-18.5 -76.5q12 17 29.5 31t38.5 24.5t42.5 16.5t41.5 6q38 0 72.5 -13.5t60.5 -38t41.5 -58.5t15.5 -74q0 -41 -13.5 -75t-38.5 -59.5
t-59 -39.5t-75 -14q-59 0 -111.5 15t-92.5 50.5t-63.5 93t-23.5 142.5q0 81 33.5 137.5t87.5 92t122 51.5t137 16t118 -22.5t85 -60t62.5 -86.5t50.5 -102q19 -41 33.5 -76.5t27.5 -61.5t26.5 -41t30.5 -15q24 0 41.5 21t29.5 55.5t19.5 78.5t11 90.5t5 91.5t1.5 81
q0 52 -1.5 98t-7 85t-17 71.5t-31.5 57.5q-83 -79 -188.5 -119.5t-210.5 -40.5q-70 0 -135 3t-128 17q-100 21 -151.5 73t-51.5 122q0 54 26 92.5t66.5 65t90 42.5t97.5 25q20 4 48.5 7t59 5.5t59 3.5t48.5 1q38 0 87.5 -4t100 -14t97 -26.5t78.5 -40.5q22 31 34.5 58
t25.5 66z" />
    <glyph glyph-name="uni0EAB" unicode="&#xeab;" horiz-adv-x="1400" 
d="M359 955q0 37 -25 62t-64 25q-37 0 -62 -25t-25 -62q0 -39 25 -64t62 -25q39 0 64 25t25 64zM1278 184q0 -21 -2 -45.5t-6.5 -49t-11.5 -48t-17 -41.5h-158q15 21 26 46t18.5 52t11.5 54t4 53v663q0 22 -1.5 47t-9 45t-24 33.5t-45.5 13.5q-16 0 -33.5 -18t-40 -39
t-51.5 -39t-67 -18q-15 0 -36.5 4t-37.5 17q8 -45 10 -95t2 -92v-422q0 -78 -25 -139t-71 -102t-109.5 -62.5t-140.5 -21.5q-86 0 -155.5 16t-118 53.5t-75 99.5t-26.5 154q0 63 19 124.5t47.5 120t61.5 114t61 106.5q-33 0 -67 11t-61.5 32.5t-45 53.5t-17.5 75t13.5 80
t39 63.5t61.5 41.5t81 15q43 0 79.5 -13.5t63.5 -38.5t42.5 -61.5t15.5 -82.5q0 -45 -19 -96t-48 -106t-62.5 -112.5t-62.5 -115t-48 -113.5t-19 -108q0 -56 19 -91t51 -55t75 -27t91 -7q40 0 79 14t69 39t48.5 60.5t18.5 78.5v532q0 60 -20.5 118t-71.5 112l120 88
q16 -26 32.5 -50t36 -42t43 -28.5t53.5 -8.5q23 1 39.5 19t35.5 39t45.5 38.5t69.5 17.5q109 0 165 -56.5t56 -168.5v-731z" />
    <glyph glyph-name="uni0EAD" unicode="&#xead;" horiz-adv-x="1320" 
d="M1026 862q-21 40 -70 67.5t-107 45t-115.5 25t-95.5 7.5q-27 0 -66.5 -4t-84 -13t-88.5 -24t-79 -36.5t-57 -51t-22 -67.5q0 -39 21 -65.5t54.5 -44t75 -27t83.5 -13.5t80 -5t64 -1q56 0 115.5 13.5t114 40t101 65t76.5 88.5zM1205 383q0 -73 -22.5 -131t-61 -103
t-90.5 -77t-111.5 -52.5t-124 -30t-126.5 -9.5q-48 0 -108 6t-122.5 20.5t-122.5 38t-106.5 58.5t-75 83t-28.5 111q0 42 14 76t39 58t59 37t74 13q37 0 71 -14t59.5 -38.5t40.5 -57.5t15 -72q0 -18 -4 -38t-12.5 -39t-21 -35t-29.5 -25q18 -14 55 -23t78.5 -14.5t80 -7.5
t58.5 -2q41 0 85.5 7.5t87.5 23t82 39t68 55t46.5 71.5t17.5 89v317q-40 -49 -95.5 -85.5t-118 -61t-128.5 -36.5t-127 -12q-48 0 -103 5t-110 17t-106 33.5t-90 54t-62.5 78.5t-23.5 107q0 65 27.5 114.5t72.5 85.5t103.5 59.5t120.5 37.5t122.5 20t109.5 6
q101 0 198.5 -23t174 -74t123.5 -132t47 -198v-330zM204 296q0 -37 25.5 -62.5t62.5 -25.5t62.5 25.5t25.5 62.5t-25.5 62.5t-62.5 25.5t-62.5 -25.5t-25.5 -62.5z" />
    <glyph glyph-name="uni0EAE" unicode="&#xeae;" horiz-adv-x="1240" 
d="M413 339q0 37 -26 62.5t-63 25.5q-18 0 -33.5 -7t-27.5 -19t-19 -28t-7 -34t7 -34t19 -28t27.5 -19t33.5 -7t34 7t28.5 19t19.5 28t7 34zM1137 317q0 -64 -24 -114t-64.5 -87.5t-93.5 -63t-110.5 -42t-116 -23.5t-109.5 -7q-52 0 -109.5 9t-113.5 27.5t-106.5 45.5
t-89 63.5t-61 82t-22.5 100.5q0 56 18 97t48 67.5t68.5 39.5t79.5 13q39 0 72 -14t56.5 -39t36.5 -59.5t13 -74.5q0 -35 -8.5 -67.5t-27 -57.5t-47 -40.5t-68.5 -15.5q78 -29 142.5 -37t118.5 -8q34 0 75.5 3t84 11.5t82.5 23.5t71.5 39t50.5 57.5t19 79.5q0 74 -27 121
t-77.5 77.5t-123.5 51t-165 41.5q-49 11 -104.5 20.5t-110 21.5t-104.5 29t-88.5 43.5t-61.5 64.5t-23 93q0 65 27.5 112.5t71.5 78t98.5 45.5t107.5 15q28 0 61.5 -10.5t69.5 -27t72 -35t69 -35t60.5 -27t46.5 -10.5q40 0 68.5 20t51.5 51t43 69t43 75l114 -70
q-36 -67 -69.5 -119t-70.5 -87t-79.5 -53.5t-97.5 -18.5q-54 0 -106 22.5t-100.5 50t-95 50t-89.5 22.5q-34 0 -63.5 -8.5t-51.5 -24t-34.5 -37t-11.5 -48.5q1 -24 18.5 -41t46.5 -30t67 -22.5t79.5 -17t84 -14.5t80.5 -15q99 -20 191.5 -49t163.5 -77t113 -122t41 -184z
" />
    <glyph glyph-name="uni0EAF" unicode="&#xeaf;" horiz-adv-x="1355" 
d="M1207 902l-766 -1421l-118 67l560 1038q-140 -128 -402 -136q-398 48 -405 430q10 183 209 194q182 -11 192 -191q-10 -181 -192 -193l-35 9q75 -97 231 -113q413 38 572 389zM285 975q-82 -11 -92 -94q10 -81 92 -92q83 11 93 92q-10 84 -93 94z" />
    <glyph glyph-name="uni0EB0" unicode="&#xeb0;" horiz-adv-x="1177" 
d="M204 377q0 -37 25.5 -62.5t62.5 -25.5t62.5 25.5t25.5 62.5t-25.5 62.5t-62.5 25.5t-62.5 -25.5t-25.5 -62.5zM106 376q0 38 14.5 71.5t40 59t59 40t71.5 14.5t71.5 -14.5t59 -40t40 -59t14.5 -71.5q0 -37 -14.5 -69t-37.5 -57q29 -11 67 -15.5t67 -4.5q69 0 133 15
t113.5 49.5t79 89.5t29.5 135h135q0 -111 -44.5 -190t-116.5 -130t-164.5 -75t-188.5 -24q-78 0 -164 23.5t-171 75.5q-20 12 -36.5 32t-29.5 44.5t-20 50.5t-7 50zM204 847q0 -37 25.5 -62.5t62.5 -25.5t62.5 25.5t25.5 62.5t-25.5 62.5t-62.5 25.5t-62.5 -25.5
t-25.5 -62.5zM106 846q0 38 14.5 71.5t40 59t59 40t71.5 14.5t71.5 -14.5t59 -40t40 -59t14.5 -71.5q0 -37 -14.5 -69t-37.5 -57q29 -11 67 -15.5t67 -4.5q69 0 133 15t113.5 49.5t79 89.5t29.5 135h135q0 -111 -44.5 -190t-116.5 -130t-164.5 -75t-188.5 -24
q-78 0 -164 23.5t-171 75.5q-20 12 -36.5 32t-29.5 44.5t-20 50.5t-7 50z" />
    <glyph glyph-name="uni0EB1" unicode="&#xeb1;" 
d="M-861 1583q0 38 -26 64t-64 26q-18 0 -34.5 -7t-29 -19t-19.5 -28.5t-7 -35.5q0 -37 26.5 -63.5t63.5 -26.5q19 0 35.5 7t28.5 19.5t19 29t7 34.5zM-103 1749q1 -111 -44 -196t-120 -142.5t-171 -87t-197 -29.5q-45 0 -100.5 5t-112 17.5t-110 34t-95.5 53.5t-67 76
t-25 103q0 39 13.5 72.5t37.5 58t57 39t72 14.5q34 0 69.5 -13t64.5 -36t47 -55t18 -70q0 -43 -13.5 -75.5t-44.5 -63.5q17 -8 38.5 -14t44 -10.5t44 -6.5t39.5 -2q79 0 154.5 17t134 55.5t94 101t35.5 154.5h137z" />
    <glyph glyph-name="uni0EB2" unicode="&#xeb2;" horiz-adv-x="1030" 
d="M416 758q0 37 -25 62t-62 25t-63 -25t-26 -62q0 -39 26 -64t63 -25t62 25t25 64zM267 929q19 9 31.5 11.5t32.5 2.5q43 0 77 -14t57.5 -38.5t35.5 -58t12 -72.5q0 -41 -14 -75.5t-39 -60t-59 -39.5t-74 -14q-57 0 -99 17t-69 49t-40 77t-13 101q0 61 32 119.5t84.5 104
t120 73t138.5 27.5q79 0 156 -25t137 -71.5t97 -113t37 -150.5v-558q1 -6 -0.5 -22.5t-4.5 -39t-7 -48t-8 -48.5t-7.5 -40t-5.5 -23h-155q3 6 11.5 34.5t18 65t16.5 75t7 65.5v561q0 45 -28.5 83t-72 65t-95.5 42t-98 15q-32 0 -65 -6.5t-62.5 -17t-52 -24.5t-32.5 -29z" />
    <glyph glyph-name="uni0EB3" unicode="&#xeb3;" horiz-adv-x="1030" 
d="M-506 1471q0 42 -28 70t-70 28t-70 -28t-28 -70t28 -70t70 -28t70 28t28 70zM-383 1469q0 -46 -17.5 -86.5t-48 -71t-71 -48t-86.5 -17.5t-86.5 17.5t-71 48t-48 71t-17.5 86.5t17.5 86.5t48 71t71 48t86.5 17.5t86.5 -17.5t71 -48t48 -71t17.5 -86.5zM416 758
q0 37 -25 62t-62 25t-63 -25t-26 -62q0 -39 26 -64t63 -25t62 25t25 64zM773 240v561q0 45 -28.5 83t-72 65t-95.5 42t-98 15q-32 0 -65 -6.5t-62.5 -17t-52 -24.5t-32.5 -29q19 9 31.5 11.5t32.5 2.5q43 0 77 -14t57.5 -38.5t35.5 -58t12 -72.5q0 -41 -14 -75.5t-39 -60
t-59 -39.5t-74 -14q-57 0 -99 17t-69 49t-40 77t-13 101q0 61 32 119.5t84.5 104t120 73t138.5 27.5q79 0 156 -25t137 -71.5t97 -113t37 -150.5v-558q1 -6 -0.5 -22.5t-4.5 -39t-7 -48t-8 -48.5t-7.5 -40t-5.5 -23h-155q3 6 11.5 34.5t18 65t16.5 75t7 65.5z" />
    <glyph glyph-name="uni0EB4" unicode="&#xeb4;" 
d="M-567 1368q0 58 98 76q137 39 151 127q-10 134 -359 154q-349 -20 -359 -154q12 -88 151 -127q98 -18 98 -76q0 -54 -86 -53q-270 70 -288 256q14 255 484 278q470 -23 484 -278q-17 -185 -288 -256q-86 -1 -86 53z" />
    <glyph glyph-name="uni0EB5" unicode="&#xeb5;" 
d="M-37 1350q-191 -44 -444 -35q-86 -1 -86 53q0 58 98 76q137 39 151 127q-10 134 -359 154q-349 -20 -359 -154q12 -88 151 -127q98 -18 98 -76q0 -54 -86 -53q-270 70 -288 256q14 255 484 278q470 -23 484 -278q-4 -72 -32.5 -101.5l-28.5 -29.5q107 2 193 33
q67 -44 24 -123z" />
    <glyph glyph-name="uni0EB6" unicode="&#xeb6;" 
d="M-784 1544q0 21 8.5 39t23 31.5t34 21.5t41.5 8t41.5 -8t34 -21.5t23 -31.5t8.5 -39t-8.5 -39t-23 -31.5t-34 -21.5t-41.5 -8t-41.5 8t-34 21.5t-23 31.5t-8.5 39zM-567 1368q0 58 98 76q137 39 151 127q-10 134 -359 154q-349 -20 -359 -154q12 -88 151 -127
q98 -18 98 -76q0 -54 -86 -53q-270 70 -288 256q14 255 484 278q470 -23 484 -278q-17 -185 -288 -256q-86 -1 -86 53z" />
    <glyph glyph-name="uni0EB7" unicode="&#xeb7;" 
d="M-784 1544q0 21 8.5 39t23 31.5t34 21.5t41.5 8t41.5 -8t34 -21.5t23 -31.5t8.5 -39t-8.5 -39t-23 -31.5t-34 -21.5t-41.5 -8t-41.5 8t-34 21.5t-23 31.5t-8.5 39zM-37 1350q-191 -44 -444 -35q-86 -1 -86 53q0 58 98 76q137 39 151 127q-10 134 -359 154
q-349 -20 -359 -154q12 -88 151 -127q98 -18 98 -76q0 -54 -86 -53q-270 70 -288 256q14 255 484 278q470 -23 484 -278q-4 -72 -32.5 -101.5l-28.5 -29.5q107 2 193 33q67 -44 24 -123z" />
    <glyph glyph-name="uni0EB8" unicode="&#xeb8;" 
d="M-329 -342q0 18 -7 33.5t-18.5 27t-27 18.5t-33.5 7t-33.5 -7t-27 -18.5t-18.5 -27t-7 -33.5t7 -33.5t18.5 -27t27 -18.5t33.5 -7t33.5 7t27 18.5t18.5 27t7 33.5zM-177 -559q-1 -18 -7 -45.5t-16.5 -58.5t-25 -63.5t-31.5 -60.5l-129 94q36 45 57 93t23 106
q-23 -11 -50.5 -19.5t-52.5 -8.5q-35 0 -68 13.5t-58.5 37.5t-40.5 55.5t-15 67.5q0 40 14.5 73.5t40 57.5t60 37.5t74.5 13.5q51 0 88 -17t62.5 -46t41 -68t23.5 -82.5t10 -89.5t0 -90z" />
    <glyph glyph-name="uni0EB9" unicode="&#xeb9;" 
d="M-577 -365q0 36 -25 61t-63 25q-18 0 -33.5 -6.5t-27 -18.5t-18.5 -27.5t-7 -33.5t7 -34t18.5 -28t27 -19t33.5 -7q38 0 63 25.5t25 62.5zM-192 -545q0 -103 -48.5 -160t-151.5 -57q-60 0 -97.5 16.5t-59 47t-29 73t-7.5 95.5q-18 -11 -42 -18t-44 -7q-38 0 -70 16
t-55.5 42t-37 60t-13.5 70q0 40 14.5 73.5t39.5 58t59 38t73 13.5q42 0 81 -17t69 -46t48 -67t18 -81v-160q0 -32 13 -53t48 -21q38 0 48.5 19t10.5 57v349h133v-341z" />
    <glyph glyph-name="uni0EBB" unicode="&#xebb;" 
d="M-861 1504q0 38 -26 64.5t-64 26.5q-18 0 -34.5 -7t-29 -19.5t-19.5 -29t-7 -35.5q0 -37 26.5 -63.5t63.5 -26.5q19 0 35.5 7t28.5 19.5t19 29t7 34.5zM-240 1341q0 90 -35.5 152.5t-94 100.5t-134 55t-154.5 17q-18 0 -40.5 -2t-45 -5.5t-43.5 -10t-37 -15.5
q31 -29 44.5 -61.5t13.5 -77.5q0 -38 -18 -69.5t-47 -55t-64.5 -36.5t-69.5 -13q-39 0 -72 14.5t-57 39.5t-37.5 58.5t-13.5 71.5q0 59 25 104t67 77t95.5 53t110 33t112 17t100.5 5q101 0 197 -29t170.5 -86t119.5 -141.5t45 -195.5h-137z" />
    <glyph glyph-name="uni0EBC" unicode="&#xebc;" 
d="M-134 -217q-30 -33 -72 -69t-89.5 -63.5t-98 -42t-97.5 -3.5q-40 4 -82.5 16.5t-83 30.5t-77.5 39.5t-66 43.5q5 -37 -7 -72.5t-34.5 -65t-53.5 -49.5t-64 -26q-39 -6 -77.5 1t-70 26.5t-53 52t-27.5 78.5q-9 45 0 84.5t31.5 70.5t56 51.5t72.5 26.5q50 9 97.5 2.5
t92.5 -23.5t88 -39.5t85.5 -45t85.5 -41t87 -25.5q43 -11 83.5 4.5t77 43t67.5 59.5t57 56zM-1083 -283q0 -37 25.5 -62.5t62.5 -25.5t62.5 25.5t25.5 62.5t-25.5 62.5t-62.5 25.5t-62.5 -25.5t-25.5 -62.5z" />
    <glyph glyph-name="uni0EBD" unicode="&#xebd;" horiz-adv-x="792" 
d="M-72 -520q0 18 -7 34.5t-19.5 29t-29 19.5t-35.5 7q-39 0 -65.5 -26.5t-26.5 -63.5q0 -39 26.5 -65.5t65.5 -26.5q38 0 64.5 26.5t26.5 65.5zM656 1014q-63 -21 -130.5 -25.5t-133.5 2.5q24 -23 45.5 -54t37 -66t25 -71.5t9.5 -70.5v-1110q0 -107 -36.5 -195t-98.5 -152
t-144 -99t-173 -35q-75 0 -149 17.5t-132.5 56.5t-94.5 101.5t-36 152.5q0 43 15 81t42 66t64 44t82 16q35 0 66 -13t53.5 -35.5t35.5 -53t13 -66.5q0 -34 -9.5 -67.5t-28.5 -61t-47 -45.5t-65 -21q28 -13 50 -22t43.5 -14.5t44.5 -8t53 -2.5q61 0 118.5 29.5t101.5 79.5
t70.5 115.5t26.5 137.5v1045q0 64 -16 112.5t-40 85.5t-51.5 65.5t-51.5 51t-40 41.5t-16 39q0 12 4.5 26t12 25.5t18.5 19t24 7.5q103 -22 209.5 -24t210.5 21z" />
    <glyph glyph-name="uni0EC0" unicode="&#xec0;" horiz-adv-x="758" 
d="M511 166q0 18 -7 33.5t-19.5 27.5t-28.5 19t-34 7t-33.5 -7t-27.5 -19t-19 -27.5t-7 -33.5t7 -34t19 -28.5t27.5 -19.5t33.5 -7q37 0 63 26t26 63zM608 165q0 -42 -14.5 -76t-39.5 -58t-60 -37.5t-75 -13.5q-42 0 -81.5 13.5t-70 41.5t-49 71t-18.5 102v651
q0 58 13 109.5t41.5 89.5t73 60t108.5 22q34 0 75.5 -8.5t73.5 -20.5l-38 -128q-30 14 -54 19t-59 5q-26 0 -44.5 -11t-30.5 -29t-18 -40t-6 -43v-554q23 8 46.5 14.5t46.5 6.5q88 0 134 -49t46 -137z" />
    <glyph glyph-name="uni0EC1" unicode="&#xec1;" horiz-adv-x="1241" 
d="M994 166q0 18 -7 33.5t-19.5 27.5t-28.5 19t-34 7t-33.5 -7t-27.5 -19t-19 -27.5t-7 -33.5t7 -34t19 -28.5t27.5 -19.5t33.5 -7q37 0 63 26t26 63zM1091 165q0 -42 -14.5 -76t-39.5 -58t-60 -37.5t-75 -13.5q-42 0 -81.5 13.5t-70 41.5t-49 71t-18.5 102v651
q0 58 13 109.5t41.5 89.5t73 60t108.5 22q34 0 75.5 -8.5t73.5 -20.5l-38 -128q-30 14 -54 19t-59 5q-26 0 -44.5 -11t-30.5 -29t-18 -40t-6 -43v-554q23 8 46.5 14.5t46.5 6.5q88 0 134 -49t46 -137zM511 166q0 18 -7 33.5t-19.5 27.5t-28.5 19t-34 7t-33.5 -7t-27.5 -19
t-19 -27.5t-7 -33.5t7 -34t19 -28.5t27.5 -19.5t33.5 -7q37 0 63 26t26 63zM608 165q0 -42 -14.5 -76t-39.5 -58t-60 -37.5t-75 -13.5q-42 0 -81.5 13.5t-70 41.5t-49 71t-18.5 102v651q0 58 13 109.5t41.5 89.5t73 60t108.5 22q34 0 75.5 -8.5t73.5 -20.5l-38 -128
q-30 14 -54 19t-59 5q-26 0 -44.5 -11t-30.5 -29t-18 -40t-6 -43v-554q23 8 46.5 14.5t46.5 6.5q88 0 134 -49t46 -137z" />
    <glyph glyph-name="uni0EC2" unicode="&#xec2;" horiz-adv-x="1068" 
d="M791 166q0 18 -7 33.5t-19.5 27.5t-28.5 19t-34 7t-33.5 -7t-27.5 -19t-19 -27.5t-7 -33.5t7 -34t19 -28.5t27.5 -19.5t33.5 -7q37 0 63 26t26 63zM888 165q0 -42 -14.5 -76t-39.5 -58t-60 -37.5t-75 -13.5q-42 0 -81.5 13.5t-70 41.5t-49 71t-18.5 102v697
q0 57 16.5 96.5t45 66t66.5 43.5t82 30q-22 3 -54.5 21t-70 44t-77.5 57.5t-76.5 62t-66 57t-46.5 42.5q-27 25 -64.5 61t-72 77.5t-58.5 85t-24 82.5q0 37 11 69.5t33 56t53.5 37t72.5 13.5q43 0 91.5 -26t98.5 -64t99.5 -82t95 -80t84.5 -58t68 -16q12 3 17.5 5.5t10.5 5
l11 5.5t19 7l10 -131q-21 -8 -35 -14.5t-33 -10.5q-33 -6 -78 16t-95.5 59t-102.5 81t-100 83t-88.5 65t-66.5 26q-6 0 -13 -2.5t-14 -7t-11.5 -10t-4.5 -11.5q0 -21 27 -58.5t68.5 -82.5t93 -92.5t100 -89.5t89.5 -74t62 -45q18 -11 51 -27t65.5 -36.5t57 -45t24.5 -52.5
v-1q0 -31 -17.5 -51t-43.5 -35t-57 -27.5t-57 -28.5t-43.5 -38t-17.5 -56v-577q23 8 46.5 14.5t46.5 6.5q88 0 134 -49t46 -137z" />
    <glyph glyph-name="uni0EC3" unicode="&#xec3;" horiz-adv-x="1056" 
d="M779 166q0 18 -7 33.5t-19.5 27.5t-28.5 19t-34 7t-33.5 -7t-27.5 -19t-19 -27.5t-7 -33.5t7 -34t19 -28.5t27.5 -19.5t33.5 -7q37 0 63 26t26 63zM876 165q0 -42 -14.5 -76t-39.5 -58t-60 -37.5t-75 -13.5q-42 0 -81.5 13.5t-70 41.5t-49 71t-18.5 102v736
q1 76 20.5 133t48.5 104t62.5 87.5t62 84.5t47.5 94.5t19 117.5q0 44 -28 82.5t-69 67t-88 45t-84 16.5q-54 0 -100.5 -13.5t-80.5 -42t-53.5 -71.5t-19.5 -101q0 -90 52 -137t137 -47q34 0 59 22.5t25 57.5q0 19 -7 36.5t-18.5 31.5t-27 23.5t-32.5 12.5l72 103
q26 -16 50.5 -39t43 -51t30 -59t11.5 -62q0 -41 -14 -78.5t-39 -66.5t-60.5 -46.5t-78.5 -17.5q-73 0 -135 21.5t-107 62.5t-70.5 100.5t-25.5 136.5q0 84 31 150.5t84 112t123.5 70t150.5 24.5q69 0 140.5 -22.5t130 -64.5t95.5 -103t37 -138q0 -93 -19 -159t-48 -117
t-62.5 -91.5t-62.5 -82t-48 -89t-19 -112.5v-600q23 8 46.5 14.5t46.5 6.5q88 0 134 -49t46 -137z" />
    <glyph glyph-name="uni0EC4" unicode="&#xec4;" horiz-adv-x="1014" 
d="M726 166q0 18 -7 33.5t-19.5 27.5t-28.5 19t-34 7t-33.5 -7t-27.5 -19t-19 -27.5t-7 -33.5t7 -34t19 -28.5t27.5 -19.5t33.5 -7q37 0 63 26t26 63zM823 165q0 -42 -14.5 -76t-39.5 -58t-60 -37.5t-75 -13.5q-42 0 -81.5 13.5t-70 41.5t-49 71t-18.5 102v665q2 48 12 78.5
t29.5 52.5t47.5 40.5t66 42.5q13 9 35 21t43.5 26.5t37 30.5t15.5 33q0 16 -12.5 21.5t-24.5 5.5q-22 0 -48 -13t-54.5 -29t-58.5 -29t-60 -13q-31 0 -54 10t-41 31.5t-32.5 55.5t-28.5 82q-20 67 -45 128.5t-58.5 121t-77 117.5t-100.5 119l91 99q57 -46 102 -107.5
t81.5 -129.5t66 -140t55.5 -139q4 -11 8.5 -30t11 -38t16 -33t23.5 -14q25 0 48 13t47 29t50 29t56 13q36 0 67.5 -9t54.5 -26.5t36.5 -44t13.5 -60.5q0 -48 -21 -82.5t-52.5 -62t-68.5 -51t-68.5 -48.5t-52.5 -54.5t-21 -69.5v-520q23 8 46.5 14.5t46.5 6.5q88 0 134 -49
t46 -137z" />
    <glyph glyph-name="uni0EC6" unicode="&#xec6;" horiz-adv-x="1355" 
d="M413 781q0 19 -7 36.5t-20 30.5t-30 20.5t-36 7.5t-36 -7.5t-30 -20.5t-20.5 -30.5t-7.5 -36.5q0 -20 7.5 -36.5t20.5 -29t30 -19.5t36 -7q39 0 66 26.5t27 65.5zM1176 -215q0 -67 -33.5 -119t-85.5 -90.5t-116 -64.5t-125 -42t-111.5 -23t-77.5 -7q-65 0 -122.5 11
t-109.5 33.5t-99.5 56.5t-92.5 79l96 102q40 -41 72 -69t67 -45t79.5 -25t109.5 -8q29 0 71 6t88 17.5t91 30t81 43.5t58 57t22 71v1015q0 37 -1.5 70.5t-12.5 59.5t-35.5 41.5t-70.5 15.5q-28 0 -59.5 -22.5t-67.5 -49.5t-78 -49.5t-90 -22.5q-41 0 -73.5 21.5t-62.5 47
t-61 47t-70 21.5q-19 0 -38 -1.5t-36 -6.5t-31.5 -15t-24.5 -28q11 10 20.5 15t20 7t22.5 2.5t29 0.5q39 0 73 -15t59.5 -40t40 -57.5t14.5 -67.5q0 -41 -15 -76t-41.5 -60.5t-61.5 -40t-75 -14.5q-53 0 -97.5 15.5t-77 46t-51 75t-18.5 103.5q0 64 21.5 119t60 96t92 64.5
t118.5 23.5q29 0 56 -11t52.5 -27t49 -35t45 -35t40.5 -27t36 -11q13 0 32 11t42 27t49 35t52.5 35t53 27t50.5 11q91 0 143 -30.5t77.5 -82.5t31.5 -120.5t6 -143.5v-978z" />
    <glyph glyph-name="uni0EC8" unicode="&#xec8;" 
d="M-670 1861v430h109v-430h-109z" />
    <glyph glyph-name="uni0EC9" unicode="&#xec9;" 
d="M-119 2136q-17 -81 -74 -129.5t-135 -75.5q-26 -8 -56.5 -14.5t-65.5 -11.5t-66 -8t-59 -5q-56 -3 -103 -3h-246q0 26 10.5 43t28 29t39 20.5t42.5 17.5q19 8 37.5 15.5t32.5 16t22.5 19.5t8.5 26q0 12 -9.5 23.5t-26.5 11.5q-11 0 -22.5 -9t-11.5 -19q0 -4 -1 -6t5 -11
l-114 -37q-2 14 -2.5 19t-0.5 12q0 31 11.5 57.5t32 45.5t49 29.5t61.5 10.5q30 0 57.5 -10.5t48.5 -28.5t33.5 -42.5t12.5 -52.5q0 -37 -21 -73q29 3 61 6.5t68 8.5q35 5 73 13t59 20q16 12 32 24.5t29 30t21.5 41t10.5 57.5z" />
    <glyph glyph-name="uni0ECA" unicode="&#xeca;" 
d="M-436 1871q-24 4 -38 19.5t-18 37.5q10 10 23.5 18.5t26 19.5t21 25.5t8.5 35.5q0 26 -22 40t-59 15q-27 0 -45.5 -17t-33.5 -37t-29 -37t-33 -17q-17 0 -31.5 16.5t-30.5 37t-35 37t-46 16.5q-32 0 -55 -11t-23 -41q0 -22 10.5 -38.5t25.5 -29.5t30.5 -23.5t25.5 -20.5
q-26 -44 -68 -51q-68 28 -108 67t-39 98q0 36 17.5 65t45.5 48.5t64 30t74 10.5q17 0 37.5 -7.5t40 -18.5t37 -24.5t28.5 -25.5q24 30 61 54t82 24q34 0 69.5 -13t64.5 -32.5t47 -44t18 -46.5q14 18 23.5 32t16 27.5t12 29t11.5 37.5q29 -3 45.5 -13t27.5 -31
q-15 -49 -36.5 -89.5t-53.5 -73t-78.5 -57.5t-110.5 -42z" />
    <glyph glyph-name="uni0ECB" unicode="&#xecb;" 
d="M-515 1995v-145h-120v145h-141v121h142v150h120v-150h138v-122z" />
    <glyph glyph-name="uni0ECC" unicode="&#xecc;" 
d="M-502 1982q0 34 -15 50t-39 16q-21 0 -37.5 -18t-14.5 -39q-2 -27 14 -40t35 -13q20 0 34.5 11.5t20.5 30.5zM-410 2031q13 -42 1 -81t-39.5 -66.5t-66.5 -39.5t-79 -1q-32 7 -57 25t-40.5 42.5t-21 54t1.5 59.5q7 29 26 53.5t45 41t57 23.5t62 1q38 -7 78.5 -3.5t80 13
t76 22t66.5 23.5q25 -16 29.5 -35.5t4.5 -40.5q-54 -25 -109 -49.5t-115 -41.5z" />
    <glyph glyph-name="uni0ECD" unicode="&#xecd;" 
d="M-392 1537q0 -43 -17.5 -83t-47.5 -70.5t-70.5 -49t-87.5 -18.5q-45 0 -85.5 16.5t-71 45.5t-49 70t-18.5 89q0 47 17.5 88t47.5 71.5t71 48t88 17.5q45 0 85 -16.5t71 -46t49 -71t18 -91.5zM-515 1541q0 21 -8 39t-21.5 31.5t-31.5 21t-39 7.5q-22 0 -40.5 -8.5t-32 -22
t-21 -31.5t-7.5 -37q0 -39 26.5 -69.5t74.5 -30.5q17 0 34.5 6.5t32 19t24 31t9.5 43.5z" />
    <glyph glyph-name="uni0ED0" unicode="&#xed0;" horiz-adv-x="1139" 
d="M983 574q0 -114 -29 -204.5t-83.5 -153.5t-132 -97t-174.5 -34q-208 0 -313 123.5t-105 365.5q0 236 106.5 362t311.5 126q217 0 318 -121t101 -367zM848 574q0 178 -69.5 265.5t-214.5 87.5q-137 0 -210 -90t-73 -263q0 -176 70.5 -265t212.5 -89q66 0 119 24.5
t89.5 70.5t56 111.5t19.5 147.5z" />
    <glyph glyph-name="uni0ED1" unicode="&#xed1;" horiz-adv-x="1139" 
d="M1030 552q0 -70 -24 -146t-73.5 -147t-125.5 -131.5t-180 -99.5q-61 -23 -112 -36t-97 -13q-8 0 -20 2t-23 5.5t-19 9.5t-8 15q0 15 11 27.5t37.5 28t71.5 37t114 53.5q70 33 126.5 75t96.5 93t61.5 109.5t21.5 123.5q0 88 -21.5 161.5t-67 127t-117 83t-171.5 29.5
q-67 0 -118.5 -19t-86.5 -50.5t-53 -72.5t-18 -85q0 -41 7.5 -77t26.5 -64t51.5 -46.5t82.5 -25.5q-8 16 -13 34t-5 37q0 31 12 59t32.5 49t48 33t59.5 12q31 0 58.5 -11.5t48.5 -32t33.5 -47.5t12.5 -57q0 -41 -17 -80t-48 -69t-74 -48t-94 -18q-84 0 -150.5 22.5
t-113.5 66t-72 107.5t-25 148q0 86 30 154t86.5 115.5t136.5 73t180 25.5q115 0 207.5 -37t158 -106.5t100.5 -168.5t35 -223v-5zM612 596q0 30 -21 51t-51 21t-51 -21t-21 -51t21 -51t51 -21t51 21t21 51z" />
    <glyph glyph-name="uni0ED2" unicode="&#xed2;" horiz-adv-x="1139" 
d="M1027 1451q5 -15 5 -30q0 -48 -22 -95.5t-57.5 -92.5t-79.5 -85.5t-87 -75t-80.5 -61.5t-61.5 -45q-40 -30 -86 -61.5t-85.5 -57.5t-66 -43t-28.5 -20q-34 -30 -59.5 -57t-42 -58t-25 -67t-8.5 -84q0 -80 25 -151t71.5 -124t111.5 -84.5t146 -31.5q48 0 91.5 14.5
t71.5 34.5q-48 40 -48 111q0 31 12 59t33 49t48.5 33t58.5 12t59 -12t49 -33t33 -49t12 -59q0 -35 -10.5 -67.5t-27.5 -60.5t-38 -51t-41 -38q-59 -45 -132.5 -67.5t-170.5 -22.5q-117 0 -211 36.5t-159.5 106.5t-100.5 171t-35 230q0 66 10.5 119t32.5 98t56.5 84.5
t82.5 78.5t110 80t140 89q129 79 250 177t221 222q25 -6 33 -21zM939 293q0 30 -21 51t-51 21t-51 -21t-21 -51t21 -51t51 -21t51 21t21 51z" />
    <glyph glyph-name="uni0ED3" unicode="&#xed3;" horiz-adv-x="1139" 
d="M498 267q12 -18 22 -28t25 -19.5t39 -22.5t63 -37q42 -25 73 -36t50 -12q26 0 46 6.5t35.5 22t27 43t21.5 69.5q21 82 32.5 161t11.5 148q0 44 -5.5 95t-18 98.5t-32 86t-47.5 57.5q-67 45 -113 77.5t-77.5 58t-51 45t-32.5 39.5q-35 47 -35 87q0 52 32 83t95 31
q48 0 95.5 -19t94 -51.5t90.5 -76t83 -91.5q33 -42 33 -59q0 -5 -2 -10.5t-8 -5.5q-4 0 -11.5 4t-16.5 9.5t-19 11.5t-17 11q-35 20 -69.5 43.5t-70 47t-71.5 43.5t-73 33q-16 0 -25.5 -9.5t-9.5 -20.5q0 -16 14.5 -34t34.5 -31q57 -36 112 -71.5t112 -71.5q41 -26 66.5 -69
t40 -98.5t20 -121.5t5.5 -138q0 -133 -18.5 -238t-53 -177.5t-84 -111t-112.5 -38.5q-31 0 -73.5 8t-91.5 27.5t-100.5 51.5t-100.5 81q-54 -75 -107.5 -121.5t-111.5 -46.5q-32 0 -59.5 12t-48 32.5t-32.5 48t-12 59.5q0 31 12 59t33 49t48.5 33t58.5 12q39 0 73.5 -18.5
t54.5 -49.5l13 13q-30 38 -49.5 70t-31.5 58t-17.5 45.5t-8.5 32.5q-4 20 -6 47.5t-2 64.5q0 75 12 143t35.5 119t59 81t83.5 30q32 0 56 -21t41.5 -57t28.5 -83t15.5 -99t2.5 -105.5t-9 -101.5q-4 -26 -17 -72.5t-50 -114.5zM476 591q0 101 -12 149t-40 48q-20 0 -34 -11.5
t-22.5 -39.5t-12.5 -75t-4 -119q0 -21 1 -45.5t8 -50t21.5 -51t41.5 -49.5l10.5 21t18 47.5t17 74.5t7.5 101zM289 138q0 30 -21 51t-51 21t-51 -21t-21 -51t21 -51t51 -21t51 21t21 51z" />
    <glyph glyph-name="uni0ED4" unicode="&#xed4;" horiz-adv-x="1139" 
d="M931 149q0 23 -22 34.5t-54 11.5q-21 0 -44.5 -10.5t-48.5 -29.5q26 -38 47.5 -56t45.5 -18q30 0 53 20t23 48zM1037 158q0 -29 -15.5 -60.5t-41 -57.5t-59 -43t-69.5 -17q-48 0 -96.5 34.5t-88.5 94.5q-42 -20 -87 -42.5t-87.5 -41t-79.5 -31t-62 -12.5q-60 0 -105.5 37
t-76 107.5t-46 172.5t-15.5 233q0 137 13.5 239t43 175t76.5 118t113 68l412 141q26 9 46 28t34.5 40.5t24.5 42t16 33.5q31 54 68 54q35 0 52.5 -20t17.5 -44q0 -27 -14 -65.5t-38.5 -76.5t-57 -69.5t-69.5 -43.5l-406 -138q-51 -17 -87 -48.5t-58.5 -79.5t-33 -114
t-10.5 -153q0 -56 3 -112.5t9 -109.5t15.5 -99t23.5 -80t32 -53.5t41 -19.5q8 0 27 6t43 15t50 19.5t48.5 20t38.5 16t20 8.5q-26 64 -25.5 132.5t29 130.5t87.5 112.5t151 79.5q34 0 65 -12t55 -33.5t38.5 -50.5t14.5 -63q0 -32 -12 -60t-32 -49t-48 -33t-59 -12
q-58 0 -95.5 30t-59.5 88q-14 -35 -20.5 -62t-6.5 -48q0 -24 8 -50.5t16 -51.5q12 5 31.5 10.5t41 10t41 7.5t30.5 3q38 0 72 -11t59 -31t39.5 -48t14.5 -61zM926 566q-21 37 -62 37q-33 0 -53 -22.5t-20 -50.5q0 -32 21.5 -52t50.5 -20q32 0 52.5 21.5t20.5 50.5
q0 20 -10 36z" />
    <glyph glyph-name="uni0ED5" unicode="&#xed5;" horiz-adv-x="1139" 
d="M1037 158q0 -29 -15.5 -60.5t-41 -57.5t-59 -43t-69.5 -17q-48 0 -96.5 34.5t-88.5 94.5q-42 -20 -87 -42.5t-87.5 -41t-79.5 -31t-62 -12.5q-59 0 -104.5 37t-76 107.5t-46.5 173t-16 233.5q0 151 11.5 253.5t39.5 170.5t75.5 108.5t119.5 67.5l163 62
q-18 21 -31.5 51.5t-13.5 57.5q0 31 12 59t33 49t48.5 33t58.5 12t59 -12.5t48 -34t32 -50t12 -59.5q0 -16 -1 -21q24 6 42.5 24t32 39.5t23 42t15.5 32.5q31 54 68 54q35 0 52.5 -20t17.5 -44q0 -27 -14 -65.5t-38.5 -76.5t-57 -69.5t-69.5 -43.5l-406 -138
q-54 -18 -90.5 -48t-58 -76.5t-31 -113t-9.5 -157.5q0 -56 3 -112.5t9 -109.5t15.5 -99t23.5 -80t32 -53.5t41 -19.5q12 0 46.5 12t72.5 27t69.5 28.5l38.5 16.5q-28 60 -29.5 125.5t26.5 127t88.5 114.5t156.5 88q34 0 65 -12t55 -33.5t38.5 -50.5t14.5 -63q0 -32 -12 -60
t-32 -49t-48 -33t-59 -12q-58 0 -95.5 30t-59.5 88q-14 -35 -20.5 -62t-6.5 -48q0 -24 8 -50.5t16 -51.5q12 5 31.5 10.5t41 10t41 7.5t30.5 3q38 0 72 -11t59 -31t39.5 -48t14.5 -61zM699 1310q0 30 -21 51t-51 21t-51 -21t-21 -51t21 -51t51 -21t51 21t21 51zM926 566
q-21 37 -62 37q-33 0 -53 -22.5t-20 -50.5q0 -32 21.5 -52t50.5 -20q32 0 52.5 21.5t20.5 50.5q0 20 -10 36zM931 149q0 23 -22 34.5t-54 11.5q-21 0 -44.5 -10.5t-48.5 -29.5q26 -38 47.5 -56t45.5 -18q30 0 53 20t23 48z" />
    <glyph glyph-name="uni0ED6" unicode="&#xed6;" horiz-adv-x="1139" 
d="M1108 1010q-2 -3 -6 -3t-11.5 4t-16.5 9.5t-19 11.5t-17 11l-222 142q-21 14 -36 19.5t-26 5.5q-16 0 -25.5 -9.5t-9.5 -20.5q0 -16 14.5 -34t34.5 -31l224 -143q39 -25 65 -66t41 -95t21.5 -121t6.5 -144q0 -114 -16.5 -216.5t-50.5 -180.5t-85 -123.5t-120 -45.5
q-39 0 -74.5 6t-70.5 27t-71 61.5t-77 109.5q-18 -37 -44.5 -73.5t-58.5 -65.5t-68 -47t-73 -18q-87 0 -141.5 46t-85.5 127.5t-42 192.5t-11 242q0 37 4 81.5t12 87.5t19.5 80t25.5 58q48 72 95 105.5t101 33.5q31 0 59 -12t49 -33t33 -49t12 -59q0 -32 -12 -59.5t-33 -48
t-49 -32.5t-59 -12q-65 0 -108 38q-2 -5 -4.5 -17t-5 -34t-4.5 -56.5t-2 -84.5q0 -25 2.5 -59t6.5 -71.5t8.5 -75t9.5 -69t9.5 -55t7.5 -31.5q18 -51 37 -75.5t44 -24.5q10 0 27.5 3.5t44 21.5t62.5 57t83 111q-28 38 -45 95t-23 113v17q0 77 32 118.5t93 41.5
q54 0 81.5 -37.5t27.5 -109.5q0 -63 -11 -123t-40 -115q9 -22 27 -48t38 -49.5t37.5 -42t24.5 -24.5q37 -31 71 -31q27 0 47.5 6.5t36 23t27.5 43.5t22 68q32 139 32 266q0 26 -1 61t-4.5 73t-9.5 76t-15.5 71.5t-23.5 59t-33 38.5q-78 52 -131 91t-88 68t-54 50t-28.5 38
t-11 31t-1.5 30q0 52 32 83t95 31q48 0 95.5 -19t94 -51.5t90.5 -76t83 -91.5q33 -42 33 -59q0 -9 -4 -13zM369 887q0 30 -21 51t-51 21t-51 -21t-21 -51t21 -51t51 -21t51 21t21 51zM584 494q1 10 1.5 18t0.5 15q0 29 -6 51t-19 22q-17 0 -24 -29t-7 -77q0 -30 7 -50.5
t24 -46.5q7 16 10.5 26.5t5.5 20t3.5 20.5t3.5 30z" />
    <glyph glyph-name="uni0ED7" unicode="&#xed7;" horiz-adv-x="1139" 
d="M267 166q0 18 -7 34t-19 28t-28 19t-34 7t-34 -7t-28 -19t-19 -28t-7 -34q0 -37 25.5 -62.5t62.5 -25.5q18 0 34 7t28 19t19 28t7 34zM267 904q0 19 -4 43t-14 45t-27 35t-42 14q-17 0 -32.5 -4.5t-28.5 -13.5t-20.5 -23t-7.5 -32q0 -38 27 -57t62 -19q20 0 43.5 2
t43.5 10zM1082 166q0 -261 64 -486l-127 -69q-72 253 -72 555v675q0 45 -25 77t-63 51.5t-82 28.5t-81 9q-44 0 -83.5 -14t-77.5 -37t-70.5 -52.5t-62.5 -60.5v-677q0 -44 -19 -78.5t-50 -58.5t-71.5 -36.5t-82.5 -12.5q-85 0 -135 50.5t-50 135.5q0 42 15.5 76.5t41 59
t59 37.5t69.5 13q19 0 45 -4t43 -10v447q-17 -2 -43 -4t-44 -2q-85 0 -135.5 46t-50.5 137q0 87 50.5 132.5t135.5 45.5q37 0 72.5 -11t65 -31.5t51 -50.5t29.5 -67q28 34 59 63.5t67.5 51t75.5 33.5t84 12q29 0 70 -6.5t85 -19t87.5 -31.5t78 -44.5t56 -57t21.5 -69.5v-746
z" />
    <glyph glyph-name="uni0ED8" unicode="&#xed8;" horiz-adv-x="1139" 
d="M468 -410q-119 2 -125 112q1 71 90 126l238 152q91 49 196 77q71 219 88 516q4 219 -9.5 329.5t-123.5 110.5q-62 0 -130.5 -105t-108.5 -105t-109.5 105t-129.5 105q-110 0 -132 -167t-22 -273q4 -203 15 -288q45 34 105 34q68 0 116.5 -48t51.5 -121q-3 -83 -55.5 -126
t-112.5 -43q-147 6 -202 169q-49 176 -48 423q-1 345 61.5 457.5t222.5 112.5q100 0 161 -95t78 -95q15 -1 77 94.5t162 95.5q160 0 211 -112.5t52 -457.5q-6 -266 -81 -481q55 21 77.5 32t37.5 -9q5 -21 -33.5 -48t-112.5 -64l-21 -46h12q35 0 65.5 -13.5t53.5 -36.5
t36.5 -53.5t13.5 -65.5t-13.5 -65.5t-36.5 -53.5t-53.5 -36.5t-65.5 -13.5q-33 0 -63 12t-52.5 33t-36.5 49.5t-17 60.5l-244 -160q-38 -24 -83 -24zM844 -36q-48 -16 -129 -61l-238 -152q-34 -16 -45 -49q3 -27 31 -26q19 -2 46 16l242 159q25 17 76 39zM382 150
q0 30 -21 51t-51 21t-51 -21t-21 -51t21 -51t51 -21t51 21t21 51zM893 -212q0 -30 21 -51t51 -21t51 21t21 51t-21 51t-51 21t-51 -21t-21 -51z" />
    <glyph glyph-name="uni0ED9" unicode="&#xed9;" horiz-adv-x="1139" 
d="M1087 1121q20 -296 17 -566q12 -574 -260 -574q-300 0 -310 574q10 436 -164 436q-204 0 -214 -436q8 -169 28 -275q46 34 103 36q141 -9 154 -178q-13 -148 -171 -157q-149 9 -201 167q-43 166 -43 407q10 591 344 589q304 2 294 -589q10 -446 180 -446q140 0 130 446
q-1 270 -17 566h130zM344 152q-5 62 -74 67q-66 -5 -71 -71q5 -67 71 -72q69 5 74 76z" />
    <glyph glyph-name="uni0EDC" unicode="&#xedc;" horiz-adv-x="1858" 
d="M359 955q0 37 -25 62t-64 25q-37 0 -62 -25t-25 -62q0 -39 25 -64t62 -25q39 0 64 25t25 64zM1738 244q0 -62 -22 -110.5t-58.5 -83t-84.5 -52.5t-99 -18q-49 0 -85.5 11.5t-64 28t-48 35.5t-37.5 33q-6 -12 -10.5 -22t-10 -19.5t-11.5 -20.5t-15 -26h-155q21 33 40 66
t34 71t23.5 84t8.5 105v542q0 22 -1.5 47t-9 45t-24 33.5t-45.5 13.5q-16 0 -33.5 -18t-40 -39t-51.5 -39t-67 -18q-15 0 -36.5 4t-37.5 17q8 -45 10 -95t2 -92v-422q0 -78 -25 -139t-71 -102t-109.5 -62.5t-140.5 -21.5q-86 0 -155.5 16t-118 53.5t-75 99.5t-26.5 154
q0 63 19 124.5t47.5 120t61.5 114t61 106.5q-33 0 -67 11t-61.5 32.5t-45 53.5t-17.5 75t13.5 80t39 63.5t61.5 41.5t81 15q43 0 79.5 -13.5t63.5 -38.5t42.5 -61.5t15.5 -82.5q0 -45 -19 -96t-48 -106t-62.5 -112.5t-62.5 -115t-48 -113.5t-19 -108q0 -56 19 -91t51 -55
t75 -27t91 -7q40 0 79 14t69 39t48.5 60.5t18.5 78.5v532q0 60 -20.5 118t-71.5 112l120 88q16 -26 32.5 -50t36 -42t43 -28.5t53.5 -8.5q23 1 39.5 19t35.5 39t45.5 38.5t69.5 17.5q109 0 165 -56.5t56 -168.5q0 -172 0.5 -341.5t-1.5 -341.5q12 -13 29.5 -33t41.5 -39
t53.5 -33t64.5 -14q40 0 65 11.5t39 35t19 58t5 79.5v628q0 22 -6.5 48t-16 52t-21.5 51t-23 44h163q8 -22 16.5 -48.5t15.5 -53.5t11.5 -53.5t4.5 -47.5v-673z" />
    <glyph glyph-name="uni0EDD" unicode="&#xedd;" horiz-adv-x="1859" 
d="M1143 165q0 37 -25 62t-64 25q-37 0 -62 -25t-25 -62t25 -62t62 -25q39 0 64 25t25 62zM359 955q0 37 -25 62t-64 25q-37 0 -62 -25t-25 -62q0 -39 25 -64t62 -25q39 0 64 25t25 64zM1739 236q0 -58 -29 -105t-73.5 -80.5t-98.5 -52t-104 -18.5q-39 0 -68 4t-54.5 13
t-50 25t-53.5 40q-26 -40 -67.5 -62t-86.5 -20q-43 1 -77 17t-58 41.5t-36.5 58.5t-12.5 68t13 68.5t36.5 59.5t56.5 41.5t74 15.5q22 0 47.5 -4t45.5 -10v532q0 22 -1.5 47t-9 45t-24 33.5t-45.5 13.5q-16 0 -33.5 -18t-40 -39t-51.5 -39t-67 -18q-15 0 -36.5 4t-37.5 17
q8 -45 10 -95t2 -92v-422q0 -78 -25 -139t-71 -102t-109.5 -62.5t-140.5 -21.5q-86 0 -155.5 16t-118 53.5t-75 99.5t-26.5 154q0 63 19 124.5t47.5 120t61.5 114t61 106.5q-33 0 -67 11t-61.5 32.5t-45 53.5t-17.5 75t13.5 80t39 63.5t61.5 41.5t81 15q43 0 79.5 -13.5
t63.5 -38.5t42.5 -61.5t15.5 -82.5q0 -45 -19 -96t-48 -106t-62.5 -112.5t-62.5 -115t-48 -113.5t-19 -108q0 -56 19 -91t51 -55t75 -27t91 -7q40 0 79 14t69 39t48.5 60.5t18.5 78.5v532q0 60 -20.5 118t-71.5 112l120 88q16 -26 32.5 -50t36 -42t43 -28.5t53.5 -8.5
q23 1 39.5 19t35.5 39t45.5 38.5t69.5 17.5q109 0 165 -56.5t56 -168.5v-715q15 -27 28.5 -44t30 -26.5t37.5 -13t50 -3.5q81 0 130.5 43t49.5 133v636q0 23 -6.5 49.5t-16 52.5t-22 50t-24.5 43h155q18 -46 33.5 -101t15.5 -104v-679z" />
    <glyph glyph-name="ZWSP" unicode="&#x200b;" 
d="M-1 0v2h2v-2h-2z" />
    <glyph glyph-name="ZWJ" unicode="&#x200c;" 
d="M-1 0v2h2v-2h-2z" />
    <glyph glyph-name="ZWNJ" unicode="&#x200d;" 
d="M36 -275h-72v1389l-134 -136l-49 49l171 169l-171 168l49 49l170 -171l170 171l49 -49l-171 -168l171 -169l-49 -49l-134 136v-1389z" />
    <glyph glyph-name="endash" unicode="&#x2013;" horiz-adv-x="1139" 
d="M-4 458v145h1139v-145h-1139z" />
    <glyph glyph-name="emdash" unicode="&#x2014;" horiz-adv-x="1706" 
d="M0 459v143h1706v-143h-1706z" />
    <glyph glyph-name="quoteleft" unicode="&#x2018;" horiz-adv-x="455" 
d="M321 1220v-209h-193v165q0 74 10 125t30.5 86.5t51.5 59.5t73 44l44 -70q-41 -16 -64.5 -44t-38.5 -82l-7 -75h94z" />
    <glyph glyph-name="quoteright" unicode="&#x2019;" horiz-adv-x="455" 
d="M124 1272v209h193v-165q0 -75 -10 -126t-30.5 -86t-51.5 -58.5t-73 -44.5l-44 71q37 14 62.5 44.5t39.5 81.5l8 74h-94z" />
    <glyph glyph-name="quotedblleft" unicode="&#x201c;" horiz-adv-x="682" 
d="M276 1220v-209h-193v165q0 74 10 125t30.5 86.5t51.5 59.5t73 44l44 -70q-41 -16 -64.5 -44t-38.5 -82l-7 -75h94zM586 1220v-209h-193v165q0 74 10 125t30.5 86.5t51.5 59.5t73 44l44 -70q-41 -16 -64.5 -44t-38.5 -82l-7 -75h94z" />
    <glyph glyph-name="quotedblright" unicode="&#x201d;" horiz-adv-x="682" 
d="M87 1272v209h193v-165q0 -75 -10 -126t-30.5 -86t-51.5 -58.5t-73 -44.5l-44 71q37 14 62.5 44.5t39.5 81.5l8 74h-94zM397 1272v209h193v-165q0 -75 -10 -126t-30.5 -86t-51.5 -58.5t-73 -44.5l-44 71q37 14 62.5 44.5t39.5 81.5l8 74h-94z" />
    <glyph glyph-name="guilsinglleft" unicode="&#x2039;" horiz-adv-x="682" 
d="M291 527l265 -455h-149l-315 455l315 457h149z" />
    <glyph glyph-name="guilsinglright" unicode="&#x203a;" horiz-adv-x="682" 
d="M357 530l-265 454h149l304 -448l-304 -464h-149z" />
    <glyph glyph-name="Kip" unicode="&#x20ad;" horiz-adv-x="1366" 
d="M175 880v580h173v-580h171l593 580h208l-584 -580h570v-169h-465l516 -701h-221l-500 701h-85l-208 -208v-493h-168v701h-135v169h135z" />
    <glyph glyph-name="circledash" unicode="&#x25cc;" horiz-adv-x="1200" 
d="M984 872q4 -56 -52 -56q-49 0 -52 43q-4 59 54 59q47 0 50 -46zM831 976q4 -58 -52 -58q-51 0 -54 45q-4 58 56 58q47 0 50 -45zM1085 720q4 -62 -54 -62q-48 0 -51 47q-4 57 55 57q47 0 50 -42zM649 1014q4 -60 -54 -60q-45 0 -48 45q-4 58 52 58q47 0 50 -43zM1118 536
q4 -58 -53 -58q-49 0 -52 46q-4 57 55 57q47 0 50 -45zM469 976q4 -58 -55 -58q-45 0 -48 45q-4 58 50 58q50 0 53 -45zM1088 354q4 -58 -56 -58q-47 0 -50 45q-4 59 52 59q51 0 54 -46zM311 872q4 -56 -54 -56q-46 0 -49 41q-4 61 51 61q49 0 52 -46zM983 199
q4 -59 -50 -59q-48 0 -51 45q-4 60 53 60q45 0 48 -46zM205 718q4 -60 -50 -60q-48 0 -51 45q-4 59 50 59q48 0 51 -44zM826 99q4 -60 -51 -60q-47 0 -50 46q-4 57 52 57q46 0 49 -43zM166 536q4 -58 -53 -58q-50 0 -53 46q-4 57 54 57q49 0 52 -45zM648 59q4 -59 -53 -59
q-45 0 -48 43q-4 58 52 58q46 0 49 -42zM207 354q4 -58 -54 -58q-47 0 -50 45q-4 59 53 59q48 0 51 -46zM473 99q4 -60 -55 -60q-48 0 -51 45q-4 58 54 58q49 0 52 -43zM312 199q4 -59 -53 -59q-50 0 -53 45q-4 62 53 62q50 0 53 -48z" />
    <glyph glyph-name="uniE001" unicode="&#xe001;" 
d="M-689 1512v430h109v-430h-109z" />
    <glyph glyph-name="uniE002" unicode="&#xe002;" 
d="M-148 1767q-17 -81 -74 -129.5t-135 -75.5q-26 -8 -56.5 -14.5t-65.5 -11.5t-66 -8t-59 -5q-56 -3 -103 -3h-246q0 26 10.5 43t28 29t39 20.5t42.5 17.5q19 8 37.5 15.5t32.5 16t22.5 19.5t8.5 26q0 12 -9.5 23.5t-26.5 11.5q-11 0 -22.5 -9t-11.5 -19q0 -4 -1 -6t5 -11
l-114 -37q-2 14 -2.5 19t-0.5 12q0 31 11.5 57.5t32 45.5t49 29.5t61.5 10.5q30 0 57.5 -10.5t48.5 -28.5t33.5 -42.5t12.5 -52.5q0 -37 -21 -73q29 3 61 6.5t68 8.5q35 5 73 13t59 20q16 12 32 24.5t29 30t21.5 41t10.5 57.5z" />
    <glyph glyph-name="uniE003" unicode="&#xe003;" 
d="M-436 1502q-24 4 -38 19.5t-18 37.5q10 10 23.5 18.5t26 19.5t21 25.5t8.5 35.5q0 26 -22 40t-59 15q-27 0 -45.5 -17t-33.5 -37t-29 -37t-33 -17q-17 0 -31.5 16.5t-30.5 37t-35 37t-46 16.5q-32 0 -55 -11t-23 -41q0 -22 10.5 -38.5t25.5 -29.5t30.5 -23.5t25.5 -20.5
q-26 -44 -68 -51q-68 28 -108 67t-39 98q0 36 17.5 65t45.5 48.5t64 30t74 10.5q17 0 37.5 -7.5t40 -18.5t37 -24.5t28.5 -25.5q24 30 61 54t82 24q34 0 69.5 -13t64.5 -32.5t47 -44t18 -46.5q14 18 23.5 32t16 27.5t12 29t11.5 37.5q29 -3 45.5 -13t27.5 -31
q-15 -49 -36.5 -89.5t-53.5 -73t-78.5 -57.5t-110.5 -42z" />
    <glyph glyph-name="uniE004" unicode="&#xe004;" 
d="M-554 1646v-145h-120v145h-141v121h142v150h120v-150h138v-122z" />
    <glyph glyph-name="uniE005" unicode="&#xe005;" 
d="M-502 1623q0 34 -15 50t-39 16q-21 0 -37.5 -18t-14.5 -39q-2 -27 14 -40t35 -13q20 0 34.5 11.5t20.5 30.5zM-410 1672q13 -42 1 -81t-39.5 -66.5t-66.5 -39.5t-79 -1q-32 7 -57 25t-40.5 42.5t-21 54t1.5 59.5q7 29 26 53.5t45 41t57 23.5t62 1q38 -7 78.5 -3.5t80 13
t76 22t66.5 23.5q25 -16 29.5 -35.5t4.5 -40.5q-54 -25 -109 -49.5t-115 -41.5z" />
    <glyph glyph-name="uniE015" unicode="&#xe015;" 
d="M-329 -611q0 18 -7 33.5t-18.5 27t-27 18.5t-33.5 7t-33.5 -7t-27 -18.5t-18.5 -27t-7 -33.5t7 -33.5t18.5 -27t27 -18.5t33.5 -7t33.5 7t27 18.5t18.5 27t7 33.5zM-177 -828q-1 -18 -7 -45.5t-16.5 -58.5t-25 -63.5t-31.5 -60.5l-129 94q36 45 57 93t23 106
q-23 -11 -50.5 -19.5t-52.5 -8.5q-35 0 -68 13.5t-58.5 37.5t-40.5 55.5t-15 67.5q0 40 14.5 73.5t40 57.5t60 37.5t74.5 13.5q51 0 88 -17t62.5 -46t41 -68t23.5 -82.5t10 -89.5t0 -90z" />
    <glyph glyph-name="uniE016" unicode="&#xe016;" 
d="M-577 -614q0 36 -25 61t-63 25q-18 0 -33.5 -6.5t-27 -18.5t-18.5 -27.5t-7 -33.5t7 -34t18.5 -28t27 -19t33.5 -7q38 0 63 25.5t25 62.5zM-192 -794q0 -103 -48.5 -160t-151.5 -57q-60 0 -97.5 16.5t-59 47t-29 73t-7.5 95.5q-18 -11 -42 -18t-44 -7q-38 0 -70 16
t-55.5 42t-37 60t-13.5 70q0 40 14.5 73.5t39.5 58t59 38t73 13.5q42 0 81 -17t69 -46t48 -67t18 -81v-160q0 -32 13 -53t48 -21q38 0 48.5 19t10.5 57v349h133v-341z" />
    <glyph glyph-name="uniE017" unicode="&#xe017;" horiz-adv-x="1030" 
d="M-699 1874.95v387.011h109v-387.011h-109zM-418 1537q0 -43 -17.5 -83t-47.5 -70.5t-70.5 -49t-87.5 -18.5q-45 0 -85.5 16.5t-71 45.5t-49 70t-18.5 89q0 47 17.5 88t47.5 71.5t71 48t88 17.5q45 0 85 -16.5t71 -46t49 -71t18 -91.5zM-541 1541q0 21 -8 39t-21.5 31.5
t-31.5 21t-39 7.5q-22 0 -40.5 -8.5t-32 -22t-21 -31.5t-7.5 -37q0 -39 26.5 -69.5t74.5 -30.5q17 0 34.5 6.5t32 19t24 31t9.5 43.5zM416 758q0 37 -25 62t-62 25t-63 -25t-26 -62q0 -39 26 -64t63 -25t62 25t25 64zM267 929q19 9 31.5 11.5t32.5 2.5q43 0 77 -14
t57.5 -38.5t35.5 -58t12 -72.5q0 -41 -14 -75.5t-39 -60t-59 -39.5t-74 -14q-57 0 -99 17t-69 49t-40 77t-13 101q0 61 32 119.5t84.5 104t120 73t138.5 27.5q79 0 156 -25t137 -71.5t97 -113t37 -150.5v-558q1 -6 -0.5 -22.5t-4.5 -39t-7 -48t-8 -48.5t-7.5 -40t-5.5 -23
h-155q3 6 11.5 34.5t18 65t16.5 75t7 65.5v561q0 45 -28.5 83t-72 65t-95.5 42t-98 15q-32 0 -65 -6.5t-62.5 -17t-52 -24.5t-32.5 -29z" />
    <glyph glyph-name="uniE018" unicode="&#xe018;" horiz-adv-x="1030" 
d="M-418 1537q0 -43 -17.5 -83t-47.5 -70.5t-70.5 -49t-87.5 -18.5q-45 0 -85.5 16.5t-71 45.5t-49 70t-18.5 89q0 47 17.5 88t47.5 71.5t71 48t88 17.5q45 0 85 -16.5t71 -46t49 -71t18 -91.5zM-541 1541q0 21 -8 39t-21.5 31.5t-31.5 21t-39 7.5q-22 0 -40.5 -8.5t-32 -22
t-21 -31.5t-7.5 -37q0 -39 26.5 -69.5t74.5 -30.5q17 0 34.5 6.5t32 19t24 31t9.5 43.5zM416 758q0 37 -25 62t-62 25t-63 -25t-26 -62q0 -39 26 -64t63 -25t62 25t25 64zM267 929q19 9 31.5 11.5t32.5 2.5q43 0 77 -14t57.5 -38.5t35.5 -58t12 -72.5q0 -41 -14 -75.5
t-39 -60t-59 -39.5t-74 -14q-57 0 -99 17t-69 49t-40 77t-13 101q0 61 32 119.5t84.5 104t120 73t138.5 27.5q79 0 156 -25t137 -71.5t97 -113t37 -150.5v-558q1 -6 -0.5 -22.5t-4.5 -39t-7 -48t-8 -48.5t-7.5 -40t-5.5 -23h-155q3 6 11.5 34.5t18 65t16.5 75t7 65.5v561
q0 45 -28.5 83t-72 65t-95.5 42t-98 15q-32 0 -65 -6.5t-62.5 -17t-52 -24.5t-32.5 -29zM-119 2136q-17 -81 -74 -129.5t-135 -75.5q-26 -8 -56.5 -14.5t-65.5 -11.5t-66 -8t-59 -5q-56 -3 -103 -3h-246q0 26 10.5 43t28 29t39 20.5t42.5 17.5q19 8 37.5 15.5t32.5 16
t22.5 19.5t8.5 26q0 12 -9.5 23.5t-26.5 11.5q-11 0 -22.5 -9t-11.5 -19q0 -4 -1 -6t5 -11l-114 -37q-2 14 -2.5 19t-0.5 12q0 31 11.5 57.5t32 45.5t49 29.5t61.5 10.5q30 0 57.5 -10.5t48.5 -28.5t33.5 -42.5t12.5 -52.5q0 -37 -21 -73q29 3 61 6.5t68 8.5q35 5 73 13
t59 20q16 12 32 24.5t29 30t21.5 41t10.5 57.5z" />
    <glyph glyph-name="uniE019" unicode="&#xe019;" horiz-adv-x="1030" 
d="M-418 1537q0 -43 -17.5 -83t-47.5 -70.5t-70.5 -49t-87.5 -18.5q-45 0 -85.5 16.5t-71 45.5t-49 70t-18.5 89q0 47 17.5 88t47.5 71.5t71 48t88 17.5q45 0 85 -16.5t71 -46t49 -71t18 -91.5zM-541 1541q0 21 -8 39t-21.5 31.5t-31.5 21t-39 7.5q-22 0 -40.5 -8.5t-32 -22
t-21 -31.5t-7.5 -37q0 -39 26.5 -69.5t74.5 -30.5q17 0 34.5 6.5t32 19t24 31t9.5 43.5zM416 758q0 37 -25 62t-62 25t-63 -25t-26 -62q0 -39 26 -64t63 -25t62 25t25 64zM267 929q19 9 31.5 11.5t32.5 2.5q43 0 77 -14t57.5 -38.5t35.5 -58t12 -72.5q0 -41 -14 -75.5
t-39 -60t-59 -39.5t-74 -14q-57 0 -99 17t-69 49t-40 77t-13 101q0 61 32 119.5t84.5 104t120 73t138.5 27.5q79 0 156 -25t137 -71.5t97 -113t37 -150.5v-558q1 -6 -0.5 -22.5t-4.5 -39t-7 -48t-8 -48.5t-7.5 -40t-5.5 -23h-155q3 6 11.5 34.5t18 65t16.5 75t7 65.5v561
q0 45 -28.5 83t-72 65t-95.5 42t-98 15q-32 0 -65 -6.5t-62.5 -17t-52 -24.5t-32.5 -29zM-436 1832q-24 4 -38 19.5t-18 37.5q10 10 23.5 18.5t26 19.5t21 25.5t8.5 35.5q0 26 -22 40t-59 15q-27 0 -45.5 -17t-33.5 -37t-29 -37t-33 -17q-17 0 -31.5 16.5t-30.5 37t-35 37
t-46 16.5q-32 0 -55 -11t-23 -41q0 -22 10.5 -38.5t25.5 -29.5t30.5 -23.5t25.5 -20.5q-26 -44 -68 -51q-68 28 -108 67t-39 98q0 36 17.5 65t45.5 48.5t64 30t74 10.5q17 0 37.5 -7.5t40 -18.5t37 -24.5t28.5 -25.5q24 30 61 54t82 24q34 0 69.5 -13t64.5 -32.5t47 -44
t18 -46.5q14 18 23.5 32t16 27.5t12 29t11.5 37.5q29 -3 45.5 -13t27.5 -31q-15 -49 -36.5 -89.5t-53.5 -73t-78.5 -57.5t-110.5 -42z" />
    <glyph glyph-name="uniE01A" unicode="&#xe01a;" horiz-adv-x="1030" 
d="M-418 1537q0 -43 -17.5 -83t-47.5 -70.5t-70.5 -49t-87.5 -18.5q-45 0 -85.5 16.5t-71 45.5t-49 70t-18.5 89q0 47 17.5 88t47.5 71.5t71 48t88 17.5q45 0 85 -16.5t71 -46t49 -71t18 -91.5zM-541 1541q0 21 -8 39t-21.5 31.5t-31.5 21t-39 7.5q-22 0 -40.5 -8.5t-32 -22
t-21 -31.5t-7.5 -37q0 -39 26.5 -69.5t74.5 -30.5q17 0 34.5 6.5t32 19t24 31t9.5 43.5zM416 758q0 37 -25 62t-62 25t-63 -25t-26 -62q0 -39 26 -64t63 -25t62 25t25 64zM267 929q19 9 31.5 11.5t32.5 2.5q43 0 77 -14t57.5 -38.5t35.5 -58t12 -72.5q0 -41 -14 -75.5
t-39 -60t-59 -39.5t-74 -14q-57 0 -99 17t-69 49t-40 77t-13 101q0 61 32 119.5t84.5 104t120 73t138.5 27.5q79 0 156 -25t137 -71.5t97 -113t37 -150.5v-558q1 -6 -0.5 -22.5t-4.5 -39t-7 -48t-8 -48.5t-7.5 -40t-5.5 -23h-155q3 6 11.5 34.5t18 65t16.5 75t7 65.5v561
q0 45 -28.5 83t-72 65t-95.5 42t-98 15q-32 0 -65 -6.5t-62.5 -17t-52 -24.5t-32.5 -29zM-584 1966v-145h-120v145h-141v121h142v150h120v-150h138v-122z" />
    <glyph glyph-name="uni0EB3_x" horiz-adv-x="1030" 
d="M-418 1537q0 -43 -17.5 -83t-47.5 -70.5t-70.5 -49t-87.5 -18.5q-45 0 -85.5 16.5t-71 45.5t-49 70t-18.5 89q0 47 17.5 88t47.5 71.5t71 48t88 17.5q45 0 85 -16.5t71 -46t49 -71t18 -91.5zM-541 1541q0 21 -8 39t-21.5 31.5t-31.5 21t-39 7.5q-22 0 -40.5 -8.5t-32 -22
t-21 -31.5t-7.5 -37q0 -39 26.5 -69.5t74.5 -30.5q17 0 34.5 6.5t32 19t24 31t9.5 43.5zM416 758q0 37 -25 62t-62 25t-63 -25t-26 -62q0 -39 26 -64t63 -25t62 25t25 64zM267 929q19 9 31.5 11.5t32.5 2.5q43 0 77 -14t57.5 -38.5t35.5 -58t12 -72.5q0 -41 -14 -75.5
t-39 -60t-59 -39.5t-74 -14q-57 0 -99 17t-69 49t-40 77t-13 101q0 61 32 119.5t84.5 104t120 73t138.5 27.5q79 0 156 -25t137 -71.5t97 -113t37 -150.5v-558q1 -6 -0.5 -22.5t-4.5 -39t-7 -48t-8 -48.5t-7.5 -40t-5.5 -23h-155q3 6 11.5 34.5t18 65t16.5 75t7 65.5v561
q0 45 -28.5 83t-72 65t-95.5 42t-98 15q-32 0 -65 -6.5t-62.5 -17t-52 -24.5t-32.5 -29z" />
    <glyph glyph-name="uni0EB1_a" 
d="M-461 1583q0 38 -26 64t-64 26q-18 0 -34.5 -7t-29 -19t-19.5 -28.5t-7 -35.5q0 -37 26.5 -63.5t63.5 -26.5q19 0 35.5 7t28.5 19.5t19 29t7 34.5zM297 1749q1 -111 -44 -196t-120 -142.5t-171 -87t-197 -29.5q-45 0 -100.5 5t-112 17.5t-110 34t-95.5 53.5t-67 76
t-25 103q0 39 13.5 72.5t37.5 58t57 39t72 14.5q34 0 69.5 -13t64.5 -36t47 -55t18 -70q0 -43 -13.5 -75.5t-44.5 -63.5q17 -8 38.5 -14t44 -10.5t44 -6.5t39.5 -2q79 0 154.5 17t134 55.5t94 101t35.5 154.5h137z" />
    <glyph glyph-name="uni0EBB_a" 
d="M-461 1504q0 38 -26 64.5t-64 26.5q-18 0 -34.5 -7t-29 -19.5t-19.5 -29t-7 -35.5q0 -37 26.5 -63.5t63.5 -26.5q19 0 35.5 7t28.5 19.5t19 29t7 34.5zM160 1341q0 90 -35.5 152.5t-94 100.5t-134 55t-154.5 17q-18 0 -40.5 -2t-45 -5.5t-43.5 -10t-37 -15.5
q31 -29 44.5 -61.5t13.5 -77.5q0 -38 -18 -69.5t-47 -55t-64.5 -36.5t-69.5 -13q-39 0 -72 14.5t-57 39.5t-37.5 58.5t-13.5 71.5q0 59 25 104t67 77t95.5 53t110 33t112 17t100.5 5q101 0 197 -29t170.5 -86t119.5 -141.5t45 -195.5h-137z" />
    <glyph glyph-name="uniE007_a" 
d="M-270 1874.95v387.011h109v-387.011h-109zM-461 1583q0 38 -26 64t-64 26q-18 0 -34.5 -7t-29 -19t-19.5 -28.5t-7 -35.5q0 -37 26.5 -63.5t63.5 -26.5q19 0 35.5 7t28.5 19.5t19 29t7 34.5zM297 1749q1 -111 -44 -196t-120 -142.5t-171 -87t-197 -29.5q-45 0 -100.5 5
t-112 17.5t-110 34t-95.5 53.5t-67 76t-25 103q0 39 13.5 72.5t37.5 58t57 39t72 14.5q34 0 69.5 -13t64.5 -36t47 -55t18 -70q0 -43 -13.5 -75.5t-44.5 -63.5q17 -8 38.5 -14t44 -10.5t44 -6.5t39.5 -2q79 0 154.5 17t134 55.5t94 101t35.5 154.5h137z" />
    <glyph glyph-name="uniE00C_a" 
d="M-461 1504q0 38 -26 64.5t-64 26.5q-18 0 -34.5 -7t-29 -19.5t-19.5 -29t-7 -35.5q0 -37 26.5 -63.5t63.5 -26.5q19 0 35.5 7t28.5 19.5t19 29t7 34.5zM160 1341q0 90 -35.5 152.5t-94 100.5t-134 55t-154.5 17q-18 0 -40.5 -2t-45 -5.5t-43.5 -10t-37 -15.5
q31 -29 44.5 -61.5t13.5 -77.5q0 -38 -18 -69.5t-47 -55t-64.5 -36.5t-69.5 -13q-39 0 -72 14.5t-57 39.5t-37.5 58.5t-13.5 71.5q0 59 25 104t67 77t95.5 53t110 33t112 17t100.5 5q101 0 197 -29t170.5 -86t119.5 -141.5t45 -195.5h-137zM-300 1874.95v387.011h109
v-387.011h-109z" />
    <glyph glyph-name="uniE00E_a" 
d="M-461 1583q0 38 -26 64t-64 26q-18 0 -34.5 -7t-29 -19t-19.5 -28.5t-7 -35.5q0 -37 26.5 -63.5t63.5 -26.5q19 0 35.5 7t28.5 19.5t19 29t7 34.5zM297 1749q1 -111 -44 -196t-120 -142.5t-171 -87t-197 -29.5q-45 0 -100.5 5t-112 17.5t-110 34t-95.5 53.5t-67 76
t-25 103q0 39 13.5 72.5t37.5 58t57 39t72 14.5q34 0 69.5 -13t64.5 -36t47 -55t18 -70q0 -43 -13.5 -75.5t-44.5 -63.5q17 -8 38.5 -14t44 -10.5t44 -6.5t39.5 -2q79 0 154.5 17t134 55.5t94 101t35.5 154.5h137zM281 2136q-17 -81 -74 -129.5t-135 -75.5
q-26 -8 -56.5 -14.5t-65.5 -11.5t-66 -8t-59 -5q-56 -3 -103 -3h-246q0 26 10.5 43t28 29t39 20.5t42.5 17.5q19 8 37.5 15.5t32.5 16t22.5 19.5t8.5 26q0 12 -9.5 23.5t-26.5 11.5q-11 0 -22.5 -9t-11.5 -19q0 -4 -1 -6t5 -11l-114 -37q-2 14 -2.5 19t-0.5 12
q0 31 11.5 57.5t32 45.5t49 29.5t61.5 10.5q30 0 57.5 -10.5t48.5 -28.5t33.5 -42.5t12.5 -52.5q0 -37 -21 -73q29 3 61 6.5t68 8.5q35 5 73 13t59 20q16 12 32 24.5t29 30t21.5 41t10.5 57.5z" />
    <glyph glyph-name="uniE013_a" 
d="M-461 1504q0 38 -26 64.5t-64 26.5q-18 0 -34.5 -7t-29 -19.5t-19.5 -29t-7 -35.5q0 -37 26.5 -63.5t63.5 -26.5q19 0 35.5 7t28.5 19.5t19 29t7 34.5zM160 1341q0 90 -35.5 152.5t-94 100.5t-134 55t-154.5 17q-18 0 -40.5 -2t-45 -5.5t-43.5 -10t-37 -15.5
q31 -29 44.5 -61.5t13.5 -77.5q0 -38 -18 -69.5t-47 -55t-64.5 -36.5t-69.5 -13q-39 0 -72 14.5t-57 39.5t-37.5 58.5t-13.5 71.5q0 59 25 104t67 77t95.5 53t110 33t112 17t100.5 5q101 0 197 -29t170.5 -86t119.5 -141.5t45 -195.5h-137zM281 2136q-17 -81 -74 -129.5
t-135 -75.5q-26 -8 -56.5 -14.5t-65.5 -11.5t-66 -8t-59 -5q-56 -3 -103 -3h-246q0 26 10.5 43t28 29t39 20.5t42.5 17.5q19 8 37.5 15.5t32.5 16t22.5 19.5t8.5 26q0 12 -9.5 23.5t-26.5 11.5q-11 0 -22.5 -9t-11.5 -19q0 -4 -1 -6t5 -11l-114 -37q-2 14 -2.5 19t-0.5 12
q0 31 11.5 57.5t32 45.5t49 29.5t61.5 10.5q30 0 57.5 -10.5t48.5 -28.5t33.5 -42.5t12.5 -52.5q0 -37 -21 -73q29 3 61 6.5t68 8.5q35 5 73 13t59 20q16 12 32 24.5t29 30t21.5 41t10.5 57.5z" />
    <glyph glyph-name="uni0E81.001" horiz-adv-x="1320" 
d="M293 166q0 18 -7 34t-19 28t-28 19t-34 7t-34 -7t-28 -19t-19 -28t-7 -34q0 -37 25.5 -62.5t62.5 -25.5q18 0 34 7t28 19t19 28t7 34zM293 904q0 19 -4 43t-14 45t-27 35t-42 14q-17 0 -32.5 -4.5t-28.5 -13.5t-20.5 -23t-7.5 -32q0 -38 27 -57t62 -19q20 0 43.5 2
t43.5 10zM1168 166q0 -32 -3 -55t-9 -42t-14.5 -35.5t-19.5 -33.5h-155q10 16 21.5 32.5t21.5 36t16.5 43t6.5 54.5v675q0 45 -25 77t-63 51.5t-82 28.5t-81 9q-44 0 -93.5 -14t-97.5 -37t-90.5 -52.5t-72.5 -60.5v-677q0 -44 -19 -78.5t-50 -58.5t-71.5 -36.5t-82.5 -12.5
q-85 0 -135 50.5t-50 135.5q0 42 15.5 76.5t41 59t59 37.5t69.5 13q19 0 45 -4t43 -10v447q-17 -2 -43 -4t-44 -2q-85 0 -135.5 46t-50.5 137q0 87 50.5 132.5t135.5 45.5q37 0 72.5 -11t65 -31.5t51 -50.5t29.5 -67q28 34 69 63.5t87.5 51t95.5 33.5t94 12q29 0 70 -6.5
t85 -19t87.5 -31.5t78 -44.5t56 -57t21.5 -69.5v-746z" />
    <glyph glyph-name="uni0E82.001" horiz-adv-x="1320" 
d="M435 782q0 18 -7 34t-19 28t-28 19t-35 7q-18 0 -34.5 -7t-28.5 -19t-19.5 -28t-7.5 -34t7.5 -34t19.5 -28t28.5 -19t34.5 -7q38 0 63.5 26t25.5 62zM1177 806q0 -71 -34.5 -127t-91.5 -101t-130.5 -80.5t-152.5 -64.5q-91 -33 -180 -61t-159.5 -54t-114 -52.5
t-43.5 -57.5q0 -35 25.5 -54t60 -28t69.5 -11t55 -2q43 0 78.5 10.5t67 26t61 34t61 34t66.5 26t77 10.5q44 0 94 -9.5t92.5 -33t70.5 -63.5t28 -101q0 -11 -2.5 -23t-6.5 -24h-135q4 11 6.5 21.5t2.5 21.5q0 21 -13 36t-35 24t-50.5 13.5t-59.5 4.5q-43 0 -80.5 -22
t-80.5 -48.5t-98 -48.5t-133 -22q-32 0 -70.5 3t-78 11t-77 23.5t-66.5 40.5t-46.5 61.5t-17.5 86.5q0 49 26 88t70 71t103 58t125 49t135.5 44.5t134.5 44.5q64 22 121 46.5t99.5 54.5t67 65.5t24.5 80.5q0 41 -19.5 71.5t-51.5 53t-72 36.5t-82 22.5t-81 12t-68 3.5
q-26 0 -60 -1.5t-72.5 -6.5t-78.5 -14t-79 -25q34 -4 62 -19.5t47 -39t29.5 -53.5t10.5 -62q0 -87 -51.5 -136.5t-165.5 -49.5q-32 0 -63 13t-55.5 39.5t-40 66t-15.5 93.5q0 77 46 138t121.5 103t173 64.5t200.5 22.5q53 0 110.5 -6t113 -20.5t105.5 -38.5t88 -61.5
t60.5 -88.5t22.5 -119z" />
    <glyph glyph-name="uni0E84.001" horiz-adv-x="1320" 
d="M527 165q0 37 -25 63t-64 26q-37 0 -62 -26t-25 -63q0 -36 25.5 -61.5t61.5 -25.5q38 0 63.5 25.5t25.5 61.5zM525 606q0 35 -21 60.5t-55 25.5q-45 0 -70.5 -24.5t-49.5 -61.5q25 -29 47.5 -46t59.5 -17q15 0 31 3t29 10t21 19.5t8 30.5zM265 228q9 28 27.5 51t43 39
t52.5 25t56 9q37 0 70 -15.5t57.5 -41.5t38.5 -59.5t14 -70.5q0 -40 -16 -74t-43 -58.5t-62 -38.5t-74 -14q-75 0 -134.5 27.5t-101 75t-64 111.5t-23.5 136q-2 33 0.5 69t10.5 71.5t22.5 68t37.5 59.5q-31 37 -50 90.5t-19 104.5q0 64 26.5 115.5t70.5 90t101.5 66t118 45
t120.5 25.5t110 8q41 0 95 -8.5t111 -26t111.5 -43.5t97.5 -61.5t69 -79.5t26 -97v-661q0 -31 -4 -54t-11 -42t-15 -35.5t-16 -34.5h-155q11 18 23 38t21.5 41.5t15.5 43.5t6 43v608q0 40 -19.5 73t-51.5 59.5t-73 45.5t-83 32t-82 19.5t-70 6.5q-41 0 -87.5 -5t-92 -16.5
t-87 -30.5t-73.5 -48t-51 -68.5t-19 -91.5q0 -16 6 -30.5t12 -27.5q30 48 72.5 74t94.5 26q40 0 76 -12.5t63.5 -36.5t43.5 -58t16 -77t-17 -75t-45 -53.5t-64.5 -32.5t-76.5 -11q-32 0 -50.5 5.5t-33.5 15.5t-30.5 24t-40.5 31q-15 -34 -20.5 -73.5t-5.5 -77.5
q0 -18 1 -37.5t3.5 -37.5t7 -33t12.5 -25z" />
    <glyph glyph-name="uni0E87.001" horiz-adv-x="1000" 
d="M330 758q0 37 -25 62t-62 25t-63 -25t-26 -62q0 -39 26 -64t63 -25t62 25t25 64zM103 -197q35 -24 87 -39t108 -20.5t109.5 1t91.5 26.5q40 20 74.5 48.5t59.5 63.5t39.5 77.5t14.5 90.5v750q0 45 -28.5 83t-72 65.5t-95.5 42.5t-98 15q-32 0 -65.5 -6.5t-62.5 -17
t-51.5 -25t-32.5 -29.5q19 9 29.5 11.5t19.5 2.5h15q43 0 77 -14t57.5 -38.5t35.5 -58t12 -72.5q0 -41 -14 -75.5t-39 -60t-59 -39.5t-74 -14q-57 0 -99 17t-69 49t-40 77t-13 101q0 61 32 119.5t84.5 104t120 73.5t138.5 28q79 0 156 -25t137 -72t97 -113.5t37 -150.5v-716
q0 -83 -23 -149.5t-61 -117.5t-88 -88.5t-104 -63.5q-48 -22 -115.5 -28.5t-138.5 0t-136 24.5t-107 45z" />
    <glyph glyph-name="uni0E88.001" horiz-adv-x="1235" 
d="M680 631q-5 39 -33 61t-66 17q-37 -4 -58.5 -32t-17.5 -67q4 -38 32 -59.5t64 -17.5q39 5 61 32.5t18 65.5zM882 317q22 100 42 172.5t35 128t23.5 100t8.5 89.5q0 48 -17 81.5t-45.5 55t-65.5 34t-77.5 18t-81 7t-75.5 1.5q-16 0 -51 -4.5t-78.5 -13t-90 -20.5
t-84.5 -27.5t-62.5 -34.5t-24.5 -40q0 -14 6.5 -24.5t15.5 -18t19 -12t18 -7.5l-70 -113q-23 10 -46.5 27t-42 39.5t-30.5 51t-12 61.5q0 55 33 97t86 72.5t118.5 50.5t131.5 31.5t124.5 16.5t96.5 5q75 0 153 -14t142 -49t105 -94.5t41 -149.5q0 -43 -11.5 -103t-28.5 -131
t-37.5 -149t-38.5 -156t-31.5 -153.5t-16.5 -141.5h-170q0 52 -6.5 111t-18.5 119t-29.5 119t-39.5 111q-27 -11 -46 -16t-39 -8q-38 -6 -73.5 4.5t-63.5 33.5t-46.5 56.5t-22.5 73.5q-5 37 5 71.5t32.5 62t54.5 45.5t70 23q40 5 74 -7.5t62 -36.5t48.5 -56.5t32.5 -66.5
q26 -72 49 -155t46 -167z" />
    <glyph glyph-name="uni0E8A.001" horiz-adv-x="1300" 
d="M415 782q0 18 -7 34t-19 28t-28 19t-35 7q-18 0 -34.5 -7t-28.5 -19t-19.5 -28t-7.5 -34t7.5 -34t19.5 -28t28.5 -19t34.5 -7q38 0 63.5 26t25.5 62zM1157 806q0 -71 -34.5 -127t-91.5 -101t-130.5 -80.5t-152.5 -64.5q-91 -33 -180 -61t-159.5 -54t-114 -52.5
t-43.5 -57.5q0 -35 25.5 -54t60 -28t69.5 -11t55 -2q43 0 78.5 10.5t67 26t61 34t60.5 34t65.5 26t75.5 10.5q39 0 90.5 -9.5t96.5 -32.5t74 -63.5t23 -101.5q-6 -53 -11.5 -98.5t-3.5 -87t14.5 -81t41.5 -79.5l-122 -58q-31 37 -46 84t-19.5 99t-0.5 107t12 110
q5 37 -35 57.5t-119 20.5q-29 0 -55 -10.5t-52 -26t-54.5 -34t-62 -34t-75 -26t-93.5 -10.5q-32 0 -70.5 3t-78 11t-77 23.5t-66.5 40.5t-46.5 61.5t-17.5 86.5q0 49 26 88t70 71t103 58t125 49t135.5 44.5t134.5 44.5q64 22 121 46.5t99.5 54.5t67 65.5t24.5 80.5
q0 41 -19.5 71.5t-51.5 53t-72 36.5t-82 22.5t-81 12t-68 3.5q-26 0 -60 -1.5t-72.5 -6.5t-78.5 -14t-79 -25q34 -4 62 -19.5t47 -39t29.5 -53.5t10.5 -62q0 -87 -51.5 -136.5t-165.5 -49.5q-32 0 -63 13t-55.5 39.5t-40 66t-15.5 93.5q0 52 22 96.5t60.5 80.5t91 64.5
t112.5 47.5t125 29t130 10q53 0 110.5 -6t113 -20.5t105.5 -38.5t88 -61.5t60.5 -88.5t22.5 -119z" />
    <glyph glyph-name="uni0E8D.001" horiz-adv-x="1320" 
d="M536 956q0 36 -23 61t-60 25q-39 0 -65.5 -23.5t-26.5 -62.5q0 -37 26.5 -63.5t65.5 -26.5q37 0 60 26.5t23 63.5zM1117 1120q8 -19 15.5 -41.5t13 -46t9 -46.5t3.5 -44v-637q0 -56 -23.5 -102t-62 -82t-88.5 -62.5t-103.5 -44t-106 -26t-96.5 -8.5q-78 0 -168 13.5
t-177 51.5q-45 20 -85 48t-69 64.5t-46 81t-17 97.5q0 30 10 58t27.5 52t41.5 42t52 28q-29 18 -53.5 45t-41.5 58.5t-26.5 66.5t-9.5 69q0 100 32.5 173t82 120t107.5 69.5t109 22.5q39 0 73 -15t59 -41.5t39.5 -61.5t14.5 -75q0 -29 -12.5 -60.5t-35 -58t-54 -43.5
t-70.5 -17q-66 0 -115 31t-69 97q-10 -21 -15 -35.5t-7.5 -28.5t-3 -29t-0.5 -36q0 -53 25.5 -87.5t65 -55.5t86.5 -29t89 -7q26 1 47.5 2t49.5 5l14 -134q-18 -1 -53 -4t-77 -9t-85.5 -16t-79.5 -24.5t-59 -34.5t-23 -47q0 -26 12.5 -49t32.5 -43.5t45 -37.5t50 -30
q37 -19 78 -29.5t79.5 -16t71.5 -6.5t56 -1q58 0 119.5 14t111 45.5t81.5 81t32 121.5v495q0 28 -2 61.5t-8.5 68t-18 66t-29.5 54.5h155z" />
    <glyph glyph-name="uni0E94.001" horiz-adv-x="1320" 
d="M546 167q0 37 -25 63t-64 26q-37 0 -62 -26t-25 -63q0 -36 25.5 -61.5t61.5 -25.5q38 0 63.5 25.5t25.5 61.5zM283 229q9 28 27.5 51t43 39t52.5 25t56 9q37 0 70 -16t58 -42t39 -60t14 -71q0 -40 -16 -73.5t-43 -58t-62.5 -38t-74.5 -13.5q-75 0 -134.5 28t-100.5 76
t-63 112t-23 136v395q0 65 24 121t65 102t95.5 81t114 59t121 36.5t117.5 12.5q61 0 124 -10t120.5 -31t108 -53.5t88 -77.5t59 -102.5t21.5 -129.5v-531q0 -31 -9 -60.5t-21.5 -55.5t-27.5 -48.5l-27 -40.5h-158q24 28 44 52.5t34 50t22 54t8 66.5v474q0 89 -33.5 148.5
t-88 95.5t-125 51t-145.5 15q-67 0 -137.5 -20t-128.5 -60t-95 -98.5t-37 -135.5v-323q0 -18 0.5 -38.5t3 -40t7.5 -36t13 -26.5z" />
    <glyph glyph-name="uni0E95.001" horiz-adv-x="1320" 
d="M552 163q0 18 -7 34.5t-19.5 29t-29 19.5t-35.5 7q-37 0 -63.5 -26.5t-26.5 -63.5t26.5 -63.5t63.5 -26.5q19 0 35.5 7t29 19.5t19.5 29t7 34.5zM1048 726q0 20 -0.5 48.5t-5 59.5t-13 61t-25 54t-41 39t-60.5 15q-27 0 -49 -20t-41.5 -50.5t-38 -65.5t-37 -65.5
t-38.5 -50.5t-44 -20t-44.5 20.5t-39.5 50.5t-38.5 66t-40 66t-43.5 50.5t-51 20.5q-51 0 -79 -28.5t-40.5 -69t-15 -85.5t-2.5 -78v-386q0 -17 1 -37t4 -39t8 -34t13 -22q8 29 26.5 51.5t42.5 37.5t52 22.5t56 7.5q38 0 71 -14t57 -38t38 -57t14 -71q0 -41 -16.5 -75
t-44 -58t-63.5 -37.5t-75 -13.5q-71 0 -129.5 27.5t-100.5 74t-65.5 108t-23.5 130.5v440q0 64 14.5 131.5t47 122.5t85 90t129.5 35q50 0 87.5 -19t67 -49t53 -66t45.5 -70q22 34 43.5 70t49 65t65.5 48t92 19q79 0 132.5 -36t86 -92.5t46 -126t13.5 -136.5v-542
q0 -31 -9 -60.5t-21.5 -55.5t-27.5 -48.5l-27 -40.5h-158q24 28 44 52.5t34 50t22 54t8 66.5v503z" />
    <glyph glyph-name="uni0E96.001" horiz-adv-x="1320" 
d="M644 166q0 18 -7 34t-19 28t-28 19t-34 7t-34 -7t-28 -19t-19 -28t-7 -34t7 -34t19 -28t28 -19t34 -7q37 0 62.5 25.5t25.5 62.5zM334 904q-1 23 -5 47.5t-14 44.5t-28 32.5t-47 12.5q-16 0 -31 -5.5t-26 -15.5t-18 -23.5t-7 -28.5q0 -25 9 -40t22.5 -23.5t30 -11
t31.5 -2.5q36 0 55.5 4.5t27.5 8.5zM1148 -353q-27 40 -42 92.5t-22 109.5t-8.5 113.5t-1.5 103.5v768q0 49 -26.5 82t-67 53t-87.5 28.5t-87 8.5q-35 0 -73 -11t-76 -28t-72 -37t-60 -38t-41.5 -31.5t-15.5 -17.5v-506q25 8 44 11.5t36 3.5q41 0 76 -13.5t60.5 -37.5
t40 -58.5t14.5 -76.5q0 -90 -49 -138t-134 -48q-27 0 -65 8t-73.5 31.5t-60 66t-24.5 110.5v589q-16 -2 -39 -4t-33 -2q-45 0 -82 11t-63.5 32.5t-41.5 52.5t-15 71q0 94 48.5 144.5t145.5 50.5q36 0 70.5 -11t63 -32t49.5 -51t29 -67q35 40 80 70t91.5 49.5t90.5 29.5
t77 10q38 0 82.5 -7t89.5 -20.5t87 -34.5t74.5 -48.5t52 -62t19.5 -75.5v-836q0 -32 -0.5 -76t3.5 -90.5t14.5 -90t32.5 -73.5z" />
    <glyph glyph-name="uni0E97.001" horiz-adv-x="1404" 
d="M359 955q0 37 -26 62t-63 25t-62 -25t-25 -62q0 -39 25 -64t62 -25t63 25t26 64zM1276 184q0 -38 -2 -64.5t-6.5 -46.5t-11.5 -37t-17 -36h-165q15 21 27 39.5t20.5 38t13.5 41t5 47.5v608q1 42 -8 83.5t-30 75t-55.5 54.5t-83.5 21q-50 0 -83.5 -18.5t-53.5 -49
t-28.5 -70.5t-8.5 -82v-483q0 -78 -24.5 -139t-68.5 -102t-106.5 -62.5t-138.5 -21.5q-86 0 -153.5 16t-114.5 53.5t-72 99.5t-25 154q0 45 16.5 109t53.5 134q32 60 72 115.5t72 106.5q-44 0 -83 11t-68 33.5t-46 57.5t-17 83q0 43 15.5 78t42 59t60.5 37t70 13
q42 0 79.5 -9.5t66 -31t45.5 -56.5t17 -86q0 -59 -19 -116.5t-49 -115.5t-66.5 -116.5t-70.5 -119.5q-34 -60 -45 -112t-11 -92q0 -56 18 -90t49 -52t72 -24t87 -6q40 0 77.5 14t66.5 39t46 60.5t17 78.5v479q0 75 15 140.5t49.5 113.5t91.5 75.5t141 27.5q87 0 148.5 -24.5
t100.5 -70.5t57.5 -112.5t18.5 -149.5v-600z" />
    <glyph glyph-name="uni0E99.001" horiz-adv-x="1320" 
d="M352 955q0 19 -7 35t-19.5 28t-29 18.5t-34.5 6.5q-38 0 -63.5 -25t-25.5 -63q0 -37 25 -62.5t64 -25.5q37 0 63.5 25.5t26.5 62.5zM1179 240q0 -38 -16 -71t-42.5 -60.5t-61 -49.5t-72 -36.5t-75 -22.5t-69.5 -8q-69 0 -121.5 8.5t-93 22t-71 30t-56 32t-47.5 28
t-45 18.5q-21 -27 -45.5 -47.5t-57 -37.5t-74.5 -30.5t-98 -25.5l-15 133q42 9 83 26t73 49.5t51.5 83t19.5 126.5v383q-17 -11 -41 -16.5t-41 -5.5q-85 0 -136.5 49.5t-51.5 137.5q0 91 50.5 138t141.5 47q45 0 84 -15.5t67.5 -43t45 -65.5t16.5 -83v-535q0 -69 31 -120
t78.5 -85t103.5 -50.5t106 -16.5q39 0 82 8t79 26.5t59.5 50t23.5 79.5v578q0 27 -3 60.5t-10 67.5t-19.5 66.5t-30.5 56.5h155q19 -45 31 -98.5t12 -101.5v-680z" />
    <glyph glyph-name="uni0E9A.001" horiz-adv-x="1320" 
d="M359 955q0 37 -26 62t-63 25t-62 -25t-25 -62q0 -39 25 -64t62 -25t63 25t26 64zM1165 394q0 -76 -24.5 -136.5t-66 -106.5t-97.5 -78.5t-119 -53t-130 -30t-131 -9.5q-57 0 -117 8t-117 26t-107 45.5t-88 67t-60 90.5t-22 116q0 21 3 49.5t10.5 60.5t21 66t35.5 67
q19 30 32.5 49.5t28 38.5t33.5 42.5t50 61.5q-44 0 -83 11t-68 33.5t-46 57.5t-17 83q0 43 15.5 78t42 59t60.5 37t70 13q42 0 80 -9.5t66.5 -31t45 -56.5t16.5 -86q0 -52 -21 -108t-52.5 -112t-67 -111.5t-64.5 -106.5q-17 -30 -28 -52.5t-17 -44.5t-8.5 -47t-2.5 -61
q0 -38 34.5 -74t89.5 -63.5t124 -45t138 -18.5q83 0 159.5 15.5t135 47.5t93.5 82t35 119v493q0 27 -3 60.5t-10 67.5t-19.5 66t-30.5 56h155q8 -20 15.5 -45t13.5 -51t10 -53t4 -51v-526z" />
    <glyph glyph-name="uni0E9B.001" horiz-adv-x="1320" 
d="M359 955q0 37 -26 62t-63 25t-62 -25t-25 -62q0 -39 25 -64t62 -25t63 25t26 64zM1282 1446q-42 -68 -65.5 -126.5t-35 -117t-14 -123t-2.5 -143.5v-542q0 -76 -24.5 -136.5t-66 -106.5t-97.5 -78.5t-119 -53t-130 -30t-131 -9.5q-57 0 -117 8.5t-117 26t-107 45
t-88 65.5t-60 87.5t-22 110.5q0 22 3 52.5t10.5 63.5t19 65.5t29.5 59.5q21 31 39 56t35.5 48t36 47t41.5 53q-44 0 -83 11t-68 33.5t-46 57.5t-17 83q0 43 15.5 78t42 59t60.5 37t70 13q42 0 79.5 -9.5t66 -31t45.5 -56.5t17 -86q0 -50 -22 -107.5t-54.5 -117t-69.5 -117
t-67 -108.5q-18 -31 -28 -59t-14.5 -53.5t-5 -48t-0.5 -42.5q0 -33 34.5 -67t89.5 -61t124 -44.5t138 -18.5q83 0 159.5 15.5t135 47.5t93.5 82t35 119v584q0 70 2.5 130t11.5 117t26 114.5t46 123.5h166z" />
    <glyph glyph-name="uni0E9C.001" horiz-adv-x="1320" 
d="M1009 954q-19 43 -50 65.5t-68 22.5t-62.5 -25.5t-25.5 -62.5t25.5 -62.5t62.5 -25.5t67.5 23t50.5 65zM1208 351q0 -65 -15.5 -131t-49 -119.5t-87.5 -87t-132 -33.5q-41 0 -81.5 12.5t-77.5 34.5t-68.5 51t-53.5 61q-19 -35 -48 -64t-64 -50t-74 -33t-78 -12
q-78 0 -133.5 33.5t-91 87t-52 119.5t-16.5 132v428q0 67 22 131.5t62 115.5t96.5 82t125.5 31q40 0 75.5 -13t62.5 -37t42.5 -59t15.5 -78q0 -39 -15.5 -73t-41 -59t-58.5 -39t-67 -14q-60 0 -102.5 19t-73.5 64q-11 -124 -10 -249.5t1 -251.5q0 -94 31 -148.5t76.5 -75.5
t96 -10.5t90.5 47t60.5 97t4.5 139.5q73 43 135 0q-12 -77 10 -137t61.5 -97.5t89.5 -48.5t93.5 9t73.5 75t30 150q0 126 1 251t-10 250q-37 -42 -79 -62.5t-84 -20.5q-41 0 -76 13.5t-61.5 38t-41.5 58.5t-15 75q0 43 15.5 78t42 59.5t62 37.5t75.5 12q57 0 103 -23t80 -50
q22 30 30.5 69.5t10.5 71.5l126 -44q-3 -29 -9.5 -58t-17 -57t-24.5 -52.5t-32 -42.5q21 -45 30 -84.5t9 -89.5v-429zM315 954q0 -37 25.5 -62.5t62.5 -25.5t62.5 25.5t25.5 62.5t-25.5 62.5t-62.5 25.5t-62.5 -25.5t-25.5 -62.5z" />
    <glyph glyph-name="uni0E9D.001" horiz-adv-x="1320" 
d="M315 954q0 -37 25.5 -62.5t62.5 -25.5t62.5 25.5t25.5 62.5t-25.5 62.5t-62.5 25.5t-62.5 -25.5t-25.5 -62.5zM1314 1448q-38 -63 -59.5 -120.5t-31.5 -116t-12 -121t-2 -136.5v-603q0 -65 -15.5 -131t-49.5 -119.5t-88 -87t-132 -33.5q-41 0 -81.5 12.5t-77.5 34.5
t-68.5 51t-53.5 61q-19 -35 -48 -64t-64 -50t-74 -33t-78 -12q-78 0 -133.5 33.5t-91 87t-52 119.5t-16.5 132v428q0 67 22 131.5t62 115.5t96.5 82t125.5 31q40 0 75.5 -13t62.5 -37t42.5 -59t15.5 -78q0 -39 -15.5 -73t-41 -59t-58.5 -39t-67 -14q-60 0 -102.5 19
t-73.5 64q-7 -12 -9 -23.5t-2 -23.5q0 -11 1 -23t1 -24v-407q0 -94 31 -148.5t76.5 -75.5t96 -10.5t90.5 47t60.5 97t4.5 139.5q73 43 135 0q-12 -77 10 -137t62 -97.5t89.5 -48.5t93.5 9t74 75t30 150v692q0 58 5 109.5t15.5 100.5t26.5 97t39 99h154z" />
    <glyph glyph-name="uni0E9E.001" horiz-adv-x="1400" 
d="M359 955q0 37 -26 62t-63 25t-62 -25t-25 -62q0 -39 25 -64t62 -25t63 25t26 64zM300 768q-44 0 -83 11t-68 33.5t-46 57.5t-17 83q0 43 15.5 78t42 59t60.5 37t70 13q42 0 79.5 -9.5t66 -31t45.5 -56.5t17 -86q0 -59 -19 -116.5t-49 -115.5t-66.5 -116.5t-70.5 -119.5
q-34 -60 -45 -112t-11 -92q0 -56 18 -90t49 -52t72 -24t87 -6q43 0 80 15t64.5 41.5t43 63t15.5 80.5v807h135v-809q0 -35 14 -70t39 -63.5t58.5 -46.5t72.5 -18q40 0 71.5 19.5t53.5 50t33.5 68t11.5 73.5v796h135v-809q0 -62 -18.5 -121t-55.5 -106t-92.5 -75.5
t-130.5 -28.5q-36 0 -73 8t-71.5 24t-65 40.5t-53.5 58.5q-21 -32 -51.5 -56.5t-65.5 -41t-72.5 -25t-73.5 -8.5q-86 0 -153.5 16t-114.5 53.5t-72 99.5t-25 154q0 45 16.5 109t53.5 134q32 60 72 115.5t72 106.5z" />
    <glyph glyph-name="uni0E9F.001" horiz-adv-x="1400" 
d="M379 955q0 37 -26 62t-63 25t-62 -25t-25 -62q0 -39 25 -64t62 -25t63 25t26 64zM1327 1448q-40 -63 -61.5 -121t-31 -117t-11 -122t-1.5 -136q0 -72 7 -142t18 -142q15 -88 31 -177t16 -180q0 -62 -18.5 -121t-55.5 -106t-92.5 -75.5t-130.5 -28.5q-36 0 -73 8t-71.5 24
t-65 40.5t-53.5 58.5q-21 -32 -51.5 -56.5t-65.5 -41t-72.5 -25t-73.5 -8.5q-86 0 -153.5 16t-114.5 53.5t-72 99.5t-25 154q0 45 16.5 109t53.5 134q32 60 72 115.5t72 106.5q-44 0 -83 11t-68 33.5t-46 57.5t-17 83q0 43 15.5 78t42 59t60.5 37t70 13q42 0 79.5 -9.5
t66 -31t45.5 -56.5t17 -86q0 -59 -19 -116.5t-49 -115.5t-66.5 -116.5t-70.5 -119.5q-34 -60 -45 -112t-11 -92q0 -56 18 -90t49 -52t72 -24t87 -6q43 0 80 15t64.5 41.5t43 63t15.5 80.5v807h135v-809q0 -35 14 -70t39 -63.5t58.5 -46.5t72.5 -18q40 0 71.5 19.5t53.5 50
t33.5 68t11.5 73.5q0 66 -11 132.5t-22 129.5q-15 94 -27 188t-12 191q0 62 2.5 124t11.5 123t26 120.5t46 115.5h154z" />
    <glyph glyph-name="uni0EA1.001" horiz-adv-x="1273" 
d="M277 1120h155q12 -22 20 -49.5t13.5 -57t7.5 -58t2 -52.5v-612q0 -62 27.5 -97.5t70.5 -53.5t95 -22.5t100 -4.5q47 0 95 12t87 37t63.5 64t24.5 94v605q0 25 -6 52t-15.5 53t-20.5 49t-21 41h155q14 -19 22.5 -45t13 -53.5t6 -55t1.5 -49.5v-630q0 -75 -37 -132.5
t-95 -96.5t-127.5 -58.5t-135.5 -19.5q-40 0 -86 2.5t-91.5 11t-87.5 25t-74 44.5q-14 -22 -36.5 -37.5t-49 -25t-53 -14t-47.5 -4.5q-46 0 -81 14t-58.5 38.5t-35.5 58.5t-12 73q0 36 13 69.5t37.5 59.5t59 41.5t77.5 15.5q17 0 40.5 -3.5t46.5 -10.5v569q0 23 -5 52
t-13.5 58.5t-20 56.5t-24.5 46zM165 166q0 -37 25.5 -62.5t62.5 -25.5t62.5 25.5t25.5 62.5t-25.5 62.5t-62.5 25.5t-62.5 -25.5t-25.5 -62.5z" />
    <glyph glyph-name="uni0EA2.001" horiz-adv-x="1320" 
d="M536 956q0 36 -23 61t-60 25q-39 0 -65.5 -23.5t-26.5 -62.5q0 -37 26.5 -63.5t65.5 -26.5q37 0 60 26.5t23 63.5zM1158 305q0 -56 -23.5 -102t-62 -82t-88.5 -62.5t-103.5 -44t-106 -26t-96.5 -8.5q-78 0 -168 13.5t-177 51.5q-45 20 -85 48t-69 64.5t-46 81t-17 97.5
q0 30 10 58t27.5 52t41.5 42t52 28q-29 18 -53.5 45t-41.5 58.5t-26.5 66.5t-9.5 69q0 100 32.5 173t82 120t107.5 69.5t109 22.5q39 0 73 -15t59 -41.5t39.5 -61.5t14.5 -75q0 -29 -12.5 -60.5t-35 -58t-54 -43.5t-70.5 -17q-66 0 -115 31t-69 97q-10 -21 -15 -35.5
t-7.5 -28.5t-3 -29t-0.5 -36q0 -53 25.5 -87.5t65 -55.5t86.5 -29t89 -7q26 1 47.5 2t49.5 5l14 -134q-18 -1 -53 -4t-77 -9t-85.5 -16t-79.5 -24.5t-59 -34.5t-23 -47q0 -26 12.5 -49t32.5 -43.5t45 -37.5t50 -30q37 -19 78 -29.5t79.5 -16t71.5 -6.5t56 -1q58 0 119.5 14
t111 45.5t81.5 81t32 121.5v577q0 67 2.5 129.5t11.5 123.5t25.5 121t44.5 122h155q-59 -97 -80 -198t-21 -216v-729z" />
    <glyph glyph-name="uni0EA3.001" horiz-adv-x="1254" 
d="M404 339q0 37 -26 62.5t-63 25.5q-18 0 -33.5 -7t-27.5 -19t-19 -28t-7 -34t7 -34t19 -28t27.5 -19t33.5 -7t34 7t28.5 19t19.5 28t7 34zM1128 317q0 -64 -24 -114t-64.5 -87.5t-93.5 -63t-110.5 -42t-116 -23.5t-109.5 -7q-52 0 -109.5 9t-113.5 27.5t-106.5 45.5
t-89 63.5t-61 82t-22.5 100.5q0 56 18 97t48 67.5t68.5 39.5t79.5 13q39 0 72 -14t56.5 -39t36.5 -59.5t13 -74.5q0 -35 -8.5 -67.5t-27 -57.5t-47 -40.5t-68.5 -15.5q78 -29 142.5 -37t118.5 -8q34 0 75.5 3t84 11.5t82.5 23.5t71.5 39t50.5 57.5t19 79.5q0 74 -27 121
t-77.5 77.5t-123.5 51t-165 41.5q-49 11 -104.5 20.5t-110 21.5t-104.5 29t-88.5 43.5t-61.5 64.5t-23 93q-1 63 22.5 106t64 71t92.5 43t108.5 22t112 8t102.5 1q83 0 155.5 -6.5t132.5 -29t106.5 -66.5t78.5 -119l-118 -63q-21 59 -57.5 90t-83.5 44.5t-101.5 15
t-112.5 1.5q-76 0 -143 -3.5t-117.5 -16t-79 -36t-27.5 -62.5q1 -24 18.5 -41t46.5 -30t67 -22.5t79.5 -17t84 -14.5t80.5 -15q99 -20 191.5 -49t163.5 -77t113 -122t41 -184z" />
    <glyph glyph-name="uni0EA5.001" horiz-adv-x="1320" 
d="M496 166q0 37 -25.5 62.5t-63.5 25.5q-37 0 -62 -25.5t-25 -62.5t25 -62.5t62 -25.5q38 0 63.5 25.5t25.5 62.5zM251 274q12 17 29.5 31t38.5 24.5t42.5 16.5t41.5 6q38 0 72.5 -13.5t60.5 -38t41.5 -58.5t15.5 -74q0 -41 -13.5 -75t-38.5 -59.5t-59 -39.5t-75 -14
q-59 0 -111.5 15t-92.5 50.5t-63.5 93t-23.5 142.5q0 81 33.5 137.5t87.5 92t122 51.5t137 16t118 -22.5t85 -60t62.5 -86.5t50.5 -102q19 -41 33.5 -76.5t27.5 -61.5t26.5 -41t30.5 -15q24 0 41.5 21.5t29.5 55.5t19 78t11 90t5.5 91.5t1.5 81.5q4 100 -7 171t-32.5 119.5
t-50 78.5t-59.5 49q-24 15 -60 26t-75 18t-77 10.5t-66 3.5q-29 0 -53.5 -0.5t-47 -2t-44.5 -4.5t-47 -9q-23 -5 -52.5 -12.5t-55.5 -18t-43.5 -25t-16.5 -33.5q0 -12 7 -22.5t16.5 -19.5t18.5 -15.5t13 -10.5l-80 -100q-48 24 -79 65.5t-31 98.5q0 54 26 92.5t66.5 65
t90 42.5t97.5 25q20 4 48.5 7t59 5.5t59 3.5t48.5 1q38 0 87.5 -4t100 -14t97 -26.5t78.5 -40.5q63 -48 102 -106.5t60.5 -123t29 -132.5t7.5 -134q0 -91 -4 -175t-19 -157q-11 -55 -29 -100.5t-44 -78t-61.5 -50.5t-81.5 -18q-59 0 -94.5 23.5t-59 60t-41 81.5t-39.5 88
q-22 42 -40 81t-41.5 68.5t-58 47t-90.5 17.5q-41 0 -80.5 -10.5t-70.5 -32t-49.5 -54t-18.5 -76.5z" />
    <glyph glyph-name="uni0EA7.001" horiz-adv-x="1262" 
d="M412 340q0 37 -25 62t-62 25q-39 0 -64 -25t-25 -62q0 -39 25 -64t64 -25q37 0 62 25t25 64zM1131 379q0 -111 -47 -187.5t-123 -123.5t-171 -67.5t-191 -20.5q-46 0 -99 8.5t-107 26t-104 45t-88.5 64.5t-61.5 85t-23 107q0 47 16 85.5t45 65.5t68.5 41.5t86.5 14.5
q84 -1 130 -53t46 -134q0 -75 -35 -123t-105 -56q21 -12 51 -20.5t61 -14t61 -8t51 -2.5q68 0 140 11t130.5 41t96 84t37.5 141v318q0 84 -35.5 141t-92.5 92.5t-128 51t-141 15.5q-29 0 -66 -3.5t-75.5 -12.5t-75.5 -23.5t-66 -36.5t-47 -51.5t-18 -68.5h-135
q0 61 22.5 109t60 84.5t86.5 62.5t103 42t109.5 23.5t105.5 7.5q100 0 195 -24t169 -75t119 -131.5t45 -192.5v-338z" />
    <glyph glyph-name="uni0EAA.001" horiz-adv-x="1320" 
d="M506 166q0 37 -25.5 62.5t-63.5 25.5q-37 0 -62 -25.5t-25 -62.5t25 -62.5t62 -25.5q38 0 63.5 25.5t25.5 62.5zM899 949q-26 16 -62.5 27t-75 18t-75.5 10t-65 3q-29 0 -53.5 -0.5t-47 -2t-44.5 -4.5t-47 -9q-23 -5 -52 -12.5t-55 -18t-43.5 -25t-17.5 -33.5
q0 -15 11 -26.5t28 -20.5t36 -15t36 -10q17 -5 76 -9.5t144 -4.5q42 0 85 7t83.5 22.5t76 41t62.5 62.5zM1165 1133q-17 -43 -37.5 -92.5t-49.5 -85.5q32 -41 52.5 -89t32 -99t16 -104t4.5 -104q0 -91 -4 -175t-19 -157q-11 -55 -29 -100.5t-44 -78t-61.5 -50.5t-81.5 -18
q-59 0 -94.5 23.5t-59 60t-41 81.5t-39.5 88q-22 42 -40 81t-41.5 68.5t-58 47t-90.5 17.5q-41 0 -80.5 -10.5t-70.5 -32t-49.5 -54t-18.5 -76.5q12 17 29.5 31t38.5 24.5t42.5 16.5t41.5 6q38 0 72.5 -13.5t60.5 -38t41.5 -58.5t15.5 -74q0 -41 -13.5 -75t-38.5 -59.5
t-59 -39.5t-75 -14q-59 0 -111.5 15t-92.5 50.5t-63.5 93t-23.5 142.5q0 81 33.5 137.5t87.5 92t122 51.5t137 16t118 -22.5t85 -60t62.5 -86.5t50.5 -102q19 -41 33.5 -76.5t27.5 -61.5t26.5 -41t30.5 -15q24 0 41.5 21t29.5 55.5t19.5 78.5t11 90.5t5 91.5t1.5 81
q0 52 -1.5 98t-7 85t-17 71.5t-31.5 57.5q-83 -79 -188.5 -119.5t-210.5 -40.5q-70 0 -135 3t-128 17q-100 21 -151.5 73t-51.5 122q0 54 26 92.5t66.5 65t90 42.5t97.5 25q20 4 48.5 7t59 5.5t59 3.5t48.5 1q38 0 87.5 -4t100 -14t97 -26.5t78.5 -40.5q22 31 34.5 58
t25.5 66z" />
    <glyph glyph-name="uni0EAB.001" horiz-adv-x="1400" 
d="M359 955q0 37 -25 62t-64 25q-37 0 -62 -25t-25 -62q0 -39 25 -64t62 -25q39 0 64 25t25 64zM1278 184q0 -21 -2 -45.5t-6.5 -49t-11.5 -48t-17 -41.5h-158q15 21 26 46t18.5 52t11.5 54t4 53v663q0 22 -1.5 47t-9 45t-24 33.5t-45.5 13.5q-16 0 -33.5 -18t-40 -39
t-51.5 -39t-67 -18q-15 0 -36.5 4t-37.5 17q8 -45 10 -95t2 -92v-422q0 -78 -25 -139t-71 -102t-109.5 -62.5t-140.5 -21.5q-86 0 -155.5 16t-118 53.5t-75 99.5t-26.5 154q0 63 19 124.5t47.5 120t61.5 114t61 106.5q-33 0 -67 11t-61.5 32.5t-45 53.5t-17.5 75t13.5 80
t39 63.5t61.5 41.5t81 15q43 0 79.5 -13.5t63.5 -38.5t42.5 -61.5t15.5 -82.5q0 -45 -19 -96t-48 -106t-62.5 -112.5t-62.5 -115t-48 -113.5t-19 -108q0 -56 19 -91t51 -55t75 -27t91 -7q40 0 79 14t69 39t48.5 60.5t18.5 78.5v532q0 60 -20.5 118t-71.5 112l120 88
q16 -26 32.5 -50t36 -42t43 -28.5t53.5 -8.5q23 1 39.5 19t35.5 39t45.5 38.5t69.5 17.5q109 0 165 -56.5t56 -168.5v-731z" />
    <glyph glyph-name="uni0EAD.001" horiz-adv-x="1320" 
d="M1026 862q-21 40 -70 67.5t-107 45t-115.5 25t-95.5 7.5q-27 0 -66.5 -4t-84 -13t-88.5 -24t-79 -36.5t-57 -51t-22 -67.5q0 -39 21 -65.5t54.5 -44t75 -27t83.5 -13.5t80 -5t64 -1q56 0 115.5 13.5t114 40t101 65t76.5 88.5zM1205 383q0 -73 -22.5 -131t-61 -103
t-90.5 -77t-111.5 -52.5t-124 -30t-126.5 -9.5q-48 0 -108 6t-122.5 20.5t-122.5 38t-106.5 58.5t-75 83t-28.5 111q0 42 14 76t39 58t59 37t74 13q37 0 71 -14t59.5 -38.5t40.5 -57.5t15 -72q0 -18 -4 -38t-12.5 -39t-21 -35t-29.5 -25q18 -14 55 -23t78.5 -14.5t80 -7.5
t58.5 -2q41 0 85.5 7.5t87.5 23t82 39t68 55t46.5 71.5t17.5 89v317q-40 -49 -95.5 -85.5t-118 -61t-128.5 -36.5t-127 -12q-48 0 -103 5t-110 17t-106 33.5t-90 54t-62.5 78.5t-23.5 107q0 65 27.5 114.5t72.5 85.5t103.5 59.5t120.5 37.5t122.5 20t109.5 6
q101 0 198.5 -23t174 -74t123.5 -132t47 -198v-330zM204 296q0 -37 25.5 -62.5t62.5 -25.5t62.5 25.5t25.5 62.5t-25.5 62.5t-62.5 25.5t-62.5 -25.5t-25.5 -62.5z" />
    <glyph glyph-name="uni0EAE.001" horiz-adv-x="1240" 
d="M413 339q0 37 -26 62.5t-63 25.5q-18 0 -33.5 -7t-27.5 -19t-19 -28t-7 -34t7 -34t19 -28t27.5 -19t33.5 -7t34 7t28.5 19t19.5 28t7 34zM1137 317q0 -64 -24 -114t-64.5 -87.5t-93.5 -63t-110.5 -42t-116 -23.5t-109.5 -7q-52 0 -109.5 9t-113.5 27.5t-106.5 45.5
t-89 63.5t-61 82t-22.5 100.5q0 56 18 97t48 67.5t68.5 39.5t79.5 13q39 0 72 -14t56.5 -39t36.5 -59.5t13 -74.5q0 -35 -8.5 -67.5t-27 -57.5t-47 -40.5t-68.5 -15.5q78 -29 142.5 -37t118.5 -8q34 0 75.5 3t84 11.5t82.5 23.5t71.5 39t50.5 57.5t19 79.5q0 74 -27 121
t-77.5 77.5t-123.5 51t-165 41.5q-49 11 -104.5 20.5t-110 21.5t-104.5 29t-88.5 43.5t-61.5 64.5t-23 93q0 65 27.5 112.5t71.5 78t98.5 45.5t107.5 15q28 0 61.5 -10.5t69.5 -27t72 -35t69 -35t60.5 -27t46.5 -10.5q40 0 68.5 20t51.5 51t43 69t43 75l114 -70
q-36 -67 -69.5 -119t-70.5 -87t-79.5 -53.5t-97.5 -18.5q-54 0 -106 22.5t-100.5 50t-95 50t-89.5 22.5q-34 0 -63.5 -8.5t-51.5 -24t-34.5 -37t-11.5 -48.5q1 -24 18.5 -41t46.5 -30t67 -22.5t79.5 -17t84 -14.5t80.5 -15q99 -20 191.5 -49t163.5 -77t113 -122t41 -184z
" />
    <glyph glyph-name="uni0EDC.001" horiz-adv-x="1858" 
d="M359 955q0 37 -25 62t-64 25q-37 0 -62 -25t-25 -62q0 -39 25 -64t62 -25q39 0 64 25t25 64zM1738 244q0 -62 -22 -110.5t-58.5 -83t-84.5 -52.5t-99 -18q-49 0 -85.5 11.5t-64 28t-48 35.5t-37.5 33q-6 -12 -10.5 -22t-10 -19.5t-11.5 -20.5t-15 -26h-155q21 33 40 66
t34 71t23.5 84t8.5 105v542q0 22 -1.5 47t-9 45t-24 33.5t-45.5 13.5q-16 0 -33.5 -18t-40 -39t-51.5 -39t-67 -18q-15 0 -36.5 4t-37.5 17q8 -45 10 -95t2 -92v-422q0 -78 -25 -139t-71 -102t-109.5 -62.5t-140.5 -21.5q-86 0 -155.5 16t-118 53.5t-75 99.5t-26.5 154
q0 63 19 124.5t47.5 120t61.5 114t61 106.5q-33 0 -67 11t-61.5 32.5t-45 53.5t-17.5 75t13.5 80t39 63.5t61.5 41.5t81 15q43 0 79.5 -13.5t63.5 -38.5t42.5 -61.5t15.5 -82.5q0 -45 -19 -96t-48 -106t-62.5 -112.5t-62.5 -115t-48 -113.5t-19 -108q0 -56 19 -91t51 -55
t75 -27t91 -7q40 0 79 14t69 39t48.5 60.5t18.5 78.5v532q0 60 -20.5 118t-71.5 112l120 88q16 -26 32.5 -50t36 -42t43 -28.5t53.5 -8.5q23 1 39.5 19t35.5 39t45.5 38.5t69.5 17.5q109 0 165 -56.5t56 -168.5q0 -172 0.5 -341.5t-1.5 -341.5q12 -13 29.5 -33t41.5 -39
t53.5 -33t64.5 -14q40 0 65 11.5t39 35t19 58t5 79.5v628q0 22 -6.5 48t-16 52t-21.5 51t-23 44h163q8 -22 16.5 -48.5t15.5 -53.5t11.5 -53.5t4.5 -47.5v-673z" />
    <glyph glyph-name="uni0EDD.001" horiz-adv-x="1859" 
d="M1143 165q0 37 -25 62t-64 25q-37 0 -62 -25t-25 -62t25 -62t62 -25q39 0 64 25t25 62zM359 955q0 37 -25 62t-64 25q-37 0 -62 -25t-25 -62q0 -39 25 -64t62 -25q39 0 64 25t25 64zM1739 236q0 -58 -29 -105t-73.5 -80.5t-98.5 -52t-104 -18.5q-39 0 -68 4t-54.5 13
t-50 25t-53.5 40q-26 -40 -67.5 -62t-86.5 -20q-43 1 -77 17t-58 41.5t-36.5 58.5t-12.5 68t13 68.5t36.5 59.5t56.5 41.5t74 15.5q22 0 47.5 -4t45.5 -10v532q0 22 -1.5 47t-9 45t-24 33.5t-45.5 13.5q-16 0 -33.5 -18t-40 -39t-51.5 -39t-67 -18q-15 0 -36.5 4t-37.5 17
q8 -45 10 -95t2 -92v-422q0 -78 -25 -139t-71 -102t-109.5 -62.5t-140.5 -21.5q-86 0 -155.5 16t-118 53.5t-75 99.5t-26.5 154q0 63 19 124.5t47.5 120t61.5 114t61 106.5q-33 0 -67 11t-61.5 32.5t-45 53.5t-17.5 75t13.5 80t39 63.5t61.5 41.5t81 15q43 0 79.5 -13.5
t63.5 -38.5t42.5 -61.5t15.5 -82.5q0 -45 -19 -96t-48 -106t-62.5 -112.5t-62.5 -115t-48 -113.5t-19 -108q0 -56 19 -91t51 -55t75 -27t91 -7q40 0 79 14t69 39t48.5 60.5t18.5 78.5v532q0 60 -20.5 118t-71.5 112l120 88q16 -26 32.5 -50t36 -42t43 -28.5t53.5 -8.5
q23 1 39.5 19t35.5 39t45.5 38.5t69.5 17.5q109 0 165 -56.5t56 -168.5v-715q15 -27 28.5 -44t30 -26.5t37.5 -13t50 -3.5q81 0 130.5 43t49.5 133v636q0 23 -6.5 49.5t-16 52.5t-22 50t-24.5 43h155q18 -46 33.5 -101t15.5 -104v-679z" />
    <glyph glyph-name="uniE014.001" horiz-adv-x="1400" 
d="M1266 -216q-30 -33 -72 -69t-89.5 -63.5t-98 -42t-97.5 -3.5q-40 4 -82.5 16.5t-83 30.5t-77.5 39.5t-66 43.5q5 -37 -7 -72.5t-34.5 -65t-53.5 -49.5t-64 -26q-39 -6 -77.5 1t-70 26.5t-53 52t-27.5 78.5q-9 45 0 84.5t31.5 70.5t56 51.5t72.5 26.5q50 9 97.5 2.5
t92.5 -23.5t88 -39.5t85.5 -45t85.5 -41t87 -25.5q43 -11 83.5 4.5t77 43t67.5 59.5t57 56zM367 955q0 37 -25 62t-64 25q-37 0 -62 -25t-25 -62q0 -39 25 -64t62 -25q39 0 64 25t25 64zM1286 184q0 -21 -2 -45.5t-6.5 -49t-11.5 -48t-17 -41.5h-158q15 21 26 46t18.5 52
t11.5 54t4 53v663q0 22 -1.5 47t-9 45t-24 33.5t-45.5 13.5q-16 0 -33.5 -18t-40 -39t-51.5 -39t-67 -18q-15 0 -36.5 4t-37.5 17q8 -45 10 -95t2 -92v-422q0 -78 -25 -139t-71 -102t-109.5 -62.5t-140.5 -21.5q-86 0 -155.5 16t-118 53.5t-75 99.5t-26.5 154q0 63 19 124.5
t47.5 120t61.5 114t61 106.5q-33 0 -67 11t-61.5 32.5t-45 53.5t-17.5 75t13.5 80t39 63.5t61.5 41.5t81 15q43 0 79.5 -13.5t63.5 -38.5t42.5 -61.5t15.5 -82.5q0 -45 -19 -96t-48 -106t-62.5 -112.5t-62.5 -115t-48 -113.5t-19 -108q0 -56 19 -91t51 -55t75 -27t91 -7
q40 0 79 14t69 39t48.5 60.5t18.5 78.5v532q0 60 -20.5 118t-71.5 112l120 88q16 -26 32.5 -50t36 -42t43 -28.5t53.5 -8.5q23 1 39.5 19t35.5 39t45.5 38.5t69.5 17.5q109 0 165 -56.5t56 -168.5v-731zM317 -282q0 -37 25.5 -62.5t62.5 -25.5t62.5 25.5t25.5 62.5
t-25.5 62.5t-62.5 25.5t-62.5 -25.5t-25.5 -62.5z" />
    <glyph glyph-name="laoHNG.001" horiz-adv-x="2331" 
d="M359 955q0 37 -25 62t-64 25q-37 0 -62 -25t-25 -62q0 -39 25 -64t62 -25q39 0 64 25t25 64zM1278 184q0 -21 -2 -45.5t-6.5 -49t-11.5 -48t-17 -41.5h-158q15 21 26 46t18.5 52t11.5 54t4 53v663q0 22 -1.5 47t-9 45t-24 33.5t-45.5 13.5q-16 0 -33.5 -18t-40 -39
t-51.5 -39t-67 -18q-15 0 -36.5 4t-37.5 17q8 -45 10 -95t2 -92v-422q0 -78 -25 -139t-71 -102t-109.5 -62.5t-140.5 -21.5q-86 0 -155.5 16t-118 53.5t-75 99.5t-26.5 154q0 63 19 124.5t47.5 120t61.5 114t61 106.5q-33 0 -67 11t-61.5 32.5t-45 53.5t-17.5 75t13.5 80
t39 63.5t61.5 41.5t81 15q43 0 79.5 -13.5t63.5 -38.5t42.5 -61.5t15.5 -82.5q0 -45 -19 -96t-48 -106t-62.5 -112.5t-62.5 -115t-48 -113.5t-19 -108q0 -56 19 -91t51 -55t75 -27t91 -7q40 0 79 14t69 39t48.5 60.5t18.5 78.5v532q0 60 -20.5 118t-71.5 112l120 88
q16 -26 32.5 -50t36 -42t43 -28.5t53.5 -8.5q23 1 39.5 19t35.5 39t45.5 38.5t69.5 17.5q109 0 165 -56.5t56 -168.5v-731zM1766 758q0 37 -25 62t-62 25t-63 -25t-26 -62q0 -39 26 -64t63 -25t62 25t25 64zM1539 -197q35 -24 87 -39t108 -20.5t109.5 1t91.5 26.5
q40 20 74.5 48.5t59.5 63.5t39.5 77.5t14.5 90.5v750q0 45 -28.5 83t-72 65.5t-95.5 42.5t-98 15q-32 0 -65.5 -6.5t-62.5 -17t-51.5 -25t-32.5 -29.5q19 9 29.5 11.5t19.5 2.5h15q43 0 77 -14t57.5 -38.5t35.5 -58t12 -72.5q0 -41 -14 -75.5t-39 -60t-59 -39.5t-74 -14
q-57 0 -99 17t-69 49t-40 77t-13 101q0 61 32 119.5t84.5 104t120 73.5t138.5 28q79 0 156 -25t137 -72t97 -113.5t37 -150.5v-716q0 -83 -23 -149.5t-61 -117.5t-88 -88.5t-104 -63.5q-48 -22 -115.5 -28.5t-138.5 0t-136 24.5t-107 45z" />
    <glyph glyph-name="laoHNY.001" horiz-adv-x="2720" 
d="M359 955q0 37 -25 62t-64 25q-37 0 -62 -25t-25 -62q0 -39 25 -64t62 -25q39 0 64 25t25 64zM1278 184q0 -21 -2 -45.5t-6.5 -49t-11.5 -48t-17 -41.5h-158q15 21 26 46t18.5 52t11.5 54t4 53v663q0 22 -1.5 47t-9 45t-24 33.5t-45.5 13.5q-16 0 -33.5 -18t-40 -39
t-51.5 -39t-67 -18q-15 0 -36.5 4t-37.5 17q8 -45 10 -95t2 -92v-422q0 -78 -25 -139t-71 -102t-109.5 -62.5t-140.5 -21.5q-86 0 -155.5 16t-118 53.5t-75 99.5t-26.5 154q0 63 19 124.5t47.5 120t61.5 114t61 106.5q-33 0 -67 11t-61.5 32.5t-45 53.5t-17.5 75t13.5 80
t39 63.5t61.5 41.5t81 15q43 0 79.5 -13.5t63.5 -38.5t42.5 -61.5t15.5 -82.5q0 -45 -19 -96t-48 -106t-62.5 -112.5t-62.5 -115t-48 -113.5t-19 -108q0 -56 19 -91t51 -55t75 -27t91 -7q40 0 79 14t69 39t48.5 60.5t18.5 78.5v532q0 60 -20.5 118t-71.5 112l120 88
q16 -26 32.5 -50t36 -42t43 -28.5t53.5 -8.5q23 1 39.5 19t35.5 39t45.5 38.5t69.5 17.5q109 0 165 -56.5t56 -168.5v-731zM1936 956q0 36 -23 61t-60 25q-39 0 -65.5 -23.5t-26.5 -62.5q0 -37 26.5 -63.5t65.5 -26.5q37 0 60 26.5t23 63.5zM2517 1120q8 -19 15.5 -41.5
t13 -46t9 -46.5t3.5 -44v-637q0 -56 -23.5 -102t-62 -82t-88.5 -62.5t-103.5 -44t-106 -26t-96.5 -8.5q-78 0 -168 13.5t-177 51.5q-45 20 -85 48t-69 64.5t-46 81t-17 97.5q0 30 10 58t27.5 52t41.5 42t52 28q-29 18 -53.5 45t-41.5 58.5t-26.5 66.5t-9.5 69
q0 100 32.5 173t82 120t107.5 69.5t109 22.5q39 0 73 -15t59 -41.5t39.5 -61.5t14.5 -75q0 -29 -12.5 -60.5t-35 -58t-54 -43.5t-70.5 -17q-66 0 -115 31t-69 97q-10 -21 -15 -35.5t-7.5 -28.5t-3 -29t-0.5 -36q0 -53 25.5 -87.5t65 -55.5t86.5 -29t89 -7q26 1 47.5 2
t49.5 5l14 -134q-18 -1 -53 -4t-77 -9t-85.5 -16t-79.5 -24.5t-59 -34.5t-23 -47q0 -26 12.5 -49t32.5 -43.5t45 -37.5t50 -30q37 -19 78 -29.5t79.5 -16t71.5 -6.5t56 -1q58 0 119.5 14t111 45.5t81.5 81t32 121.5v495q0 28 -2 61.5t-8.5 68t-18 66t-29.5 54.5h155z" />
    <glyph glyph-name="laoHN.001" horiz-adv-x="2720" 
d="M359 955q0 37 -25 62t-64 25q-37 0 -62 -25t-25 -62q0 -39 25 -64t62 -25q39 0 64 25t25 64zM1278 184q0 -21 -2 -45.5t-6.5 -49t-11.5 -48t-17 -41.5h-158q15 21 26 46t18.5 52t11.5 54t4 53v663q0 22 -1.5 47t-9 45t-24 33.5t-45.5 13.5q-16 0 -33.5 -18t-40 -39
t-51.5 -39t-67 -18q-15 0 -36.5 4t-37.5 17q8 -45 10 -95t2 -92v-422q0 -78 -25 -139t-71 -102t-109.5 -62.5t-140.5 -21.5q-86 0 -155.5 16t-118 53.5t-75 99.5t-26.5 154q0 63 19 124.5t47.5 120t61.5 114t61 106.5q-33 0 -67 11t-61.5 32.5t-45 53.5t-17.5 75t13.5 80
t39 63.5t61.5 41.5t81 15q43 0 79.5 -13.5t63.5 -38.5t42.5 -61.5t15.5 -82.5q0 -45 -19 -96t-48 -106t-62.5 -112.5t-62.5 -115t-48 -113.5t-19 -108q0 -56 19 -91t51 -55t75 -27t91 -7q40 0 79 14t69 39t48.5 60.5t18.5 78.5v532q0 60 -20.5 118t-71.5 112l120 88
q16 -26 32.5 -50t36 -42t43 -28.5t53.5 -8.5q23 1 39.5 19t35.5 39t45.5 38.5t69.5 17.5q109 0 165 -56.5t56 -168.5v-731zM1752 955q0 19 -7 35t-19.5 28t-29 18.5t-34.5 6.5q-38 0 -63.5 -25t-25.5 -63q0 -37 25 -62.5t64 -25.5q37 0 63.5 25.5t26.5 62.5zM2579 240
q0 -38 -16 -71t-42.5 -60.5t-61 -49.5t-72 -36.5t-75 -22.5t-69.5 -8q-69 0 -121.5 8.5t-93 22t-71 30t-56 32t-47.5 28t-45 18.5q-21 -27 -45.5 -47.5t-57 -37.5t-74.5 -30.5t-98 -25.5l-15 133q42 9 83 26t73 49.5t51.5 83t19.5 126.5v383q-17 -11 -41 -16.5t-41 -5.5
q-85 0 -136.5 49.5t-51.5 137.5q0 91 50.5 138t141.5 47q45 0 84 -15.5t67.5 -43t45 -65.5t16.5 -83v-535q0 -69 31 -120t78.5 -85t103.5 -50.5t106 -16.5q39 0 82 8t79 26.5t59.5 50t23.5 79.5v578q0 27 -3 60.5t-10 67.5t-19.5 66.5t-30.5 56.5h155q19 -45 31 -98.5
t12 -101.5v-680z" />
    <glyph glyph-name="laoHM.001" horiz-adv-x="2673" 
d="M359 955q0 37 -25 62t-64 25q-37 0 -62 -25t-25 -62q0 -39 25 -64t62 -25q39 0 64 25t25 64zM1278 184q0 -21 -2 -45.5t-6.5 -49t-11.5 -48t-17 -41.5h-158q15 21 26 46t18.5 52t11.5 54t4 53v663q0 22 -1.5 47t-9 45t-24 33.5t-45.5 13.5q-16 0 -33.5 -18t-40 -39
t-51.5 -39t-67 -18q-15 0 -36.5 4t-37.5 17q8 -45 10 -95t2 -92v-422q0 -78 -25 -139t-71 -102t-109.5 -62.5t-140.5 -21.5q-86 0 -155.5 16t-118 53.5t-75 99.5t-26.5 154q0 63 19 124.5t47.5 120t61.5 114t61 106.5q-33 0 -67 11t-61.5 32.5t-45 53.5t-17.5 75t13.5 80
t39 63.5t61.5 41.5t81 15q43 0 79.5 -13.5t63.5 -38.5t42.5 -61.5t15.5 -82.5q0 -45 -19 -96t-48 -106t-62.5 -112.5t-62.5 -115t-48 -113.5t-19 -108q0 -56 19 -91t51 -55t75 -27t91 -7q40 0 79 14t69 39t48.5 60.5t18.5 78.5v532q0 60 -20.5 118t-71.5 112l120 88
q16 -26 32.5 -50t36 -42t43 -28.5t53.5 -8.5q23 1 39.5 19t35.5 39t45.5 38.5t69.5 17.5q109 0 165 -56.5t56 -168.5v-731zM1677 1120h155q12 -22 20 -49.5t13.5 -57t7.5 -58t2 -52.5v-612q0 -62 27.5 -97.5t70.5 -53.5t95 -22.5t100 -4.5q47 0 95 12t87 37t63.5 64t24.5 94
v605q0 25 -6 52t-15.5 53t-20.5 49t-21 41h155q14 -19 22.5 -45t13 -53.5t6 -55t1.5 -49.5v-630q0 -75 -37 -132.5t-95 -96.5t-127.5 -58.5t-135.5 -19.5q-40 0 -86 2.5t-91.5 11t-87.5 25t-74 44.5q-14 -22 -36.5 -37.5t-49 -25t-53 -14t-47.5 -4.5q-46 0 -81 14
t-58.5 38.5t-35.5 58.5t-12 73q0 36 13 69.5t37.5 59.5t59 41.5t77.5 15.5q17 0 40.5 -3.5t46.5 -10.5v569q0 23 -5 52t-13.5 58.5t-20 56.5t-24.5 46zM1565 166q0 -37 25.5 -62.5t62.5 -25.5t62.5 25.5t25.5 62.5t-25.5 62.5t-62.5 25.5t-62.5 -25.5t-25.5 -62.5z" />
    <glyph glyph-name="laoHR.001" horiz-adv-x="2654" 
d="M359 955q0 37 -25 62t-64 25q-37 0 -62 -25t-25 -62q0 -39 25 -64t62 -25q39 0 64 25t25 64zM1278 184q0 -21 -2 -45.5t-6.5 -49t-11.5 -48t-17 -41.5h-158q15 21 26 46t18.5 52t11.5 54t4 53v663q0 22 -1.5 47t-9 45t-24 33.5t-45.5 13.5q-16 0 -33.5 -18t-40 -39
t-51.5 -39t-67 -18q-15 0 -36.5 4t-37.5 17q8 -45 10 -95t2 -92v-422q0 -78 -25 -139t-71 -102t-109.5 -62.5t-140.5 -21.5q-86 0 -155.5 16t-118 53.5t-75 99.5t-26.5 154q0 63 19 124.5t47.5 120t61.5 114t61 106.5q-33 0 -67 11t-61.5 32.5t-45 53.5t-17.5 75t13.5 80
t39 63.5t61.5 41.5t81 15q43 0 79.5 -13.5t63.5 -38.5t42.5 -61.5t15.5 -82.5q0 -45 -19 -96t-48 -106t-62.5 -112.5t-62.5 -115t-48 -113.5t-19 -108q0 -56 19 -91t51 -55t75 -27t91 -7q40 0 79 14t69 39t48.5 60.5t18.5 78.5v532q0 60 -20.5 118t-71.5 112l120 88
q16 -26 32.5 -50t36 -42t43 -28.5t53.5 -8.5q23 1 39.5 19t35.5 39t45.5 38.5t69.5 17.5q109 0 165 -56.5t56 -168.5v-731zM1804 339q0 37 -26 62.5t-63 25.5q-18 0 -33.5 -7t-27.5 -19t-19 -28t-7 -34t7 -34t19 -28t27.5 -19t33.5 -7t34 7t28.5 19t19.5 28t7 34zM2528 317
q0 -64 -24 -114t-64.5 -87.5t-93.5 -63t-110.5 -42t-116 -23.5t-109.5 -7q-52 0 -109.5 9t-113.5 27.5t-106.5 45.5t-89 63.5t-61 82t-22.5 100.5q0 56 18 97t48 67.5t68.5 39.5t79.5 13q39 0 72 -14t56.5 -39t36.5 -59.5t13 -74.5q0 -35 -8.5 -67.5t-27 -57.5t-47 -40.5
t-68.5 -15.5q78 -29 142.5 -37t118.5 -8q34 0 75.5 3t84 11.5t82.5 23.5t71.5 39t50.5 57.5t19 79.5q0 74 -27 121t-77.5 77.5t-123.5 51t-165 41.5q-49 11 -104.5 20.5t-110 21.5t-104.5 29t-88.5 43.5t-61.5 64.5t-23 93q-1 63 22.5 106t64 71t92.5 43t108.5 22t112 8
t102.5 1q83 0 155.5 -6.5t132.5 -29t106.5 -66.5t78.5 -119l-118 -63q-21 59 -57.5 90t-83.5 44.5t-101.5 15t-112.5 1.5q-76 0 -143 -3.5t-117.5 -16t-79 -36t-27.5 -62.5q1 -24 18.5 -41t46.5 -30t67 -22.5t79.5 -17t84 -14.5t80.5 -15q99 -20 191.5 -49t163.5 -77
t113 -122t41 -184z" />
    <glyph glyph-name="laoHL.001" horiz-adv-x="2720" 
d="M359 955q0 37 -25 62t-64 25q-37 0 -62 -25t-25 -62q0 -39 25 -64t62 -25q39 0 64 25t25 64zM1278 184q0 -21 -2 -45.5t-6.5 -49t-11.5 -48t-17 -41.5h-158q15 21 26 46t18.5 52t11.5 54t4 53v663q0 22 -1.5 47t-9 45t-24 33.5t-45.5 13.5q-16 0 -33.5 -18t-40 -39
t-51.5 -39t-67 -18q-15 0 -36.5 4t-37.5 17q8 -45 10 -95t2 -92v-422q0 -78 -25 -139t-71 -102t-109.5 -62.5t-140.5 -21.5q-86 0 -155.5 16t-118 53.5t-75 99.5t-26.5 154q0 63 19 124.5t47.5 120t61.5 114t61 106.5q-33 0 -67 11t-61.5 32.5t-45 53.5t-17.5 75t13.5 80
t39 63.5t61.5 41.5t81 15q43 0 79.5 -13.5t63.5 -38.5t42.5 -61.5t15.5 -82.5q0 -45 -19 -96t-48 -106t-62.5 -112.5t-62.5 -115t-48 -113.5t-19 -108q0 -56 19 -91t51 -55t75 -27t91 -7q40 0 79 14t69 39t48.5 60.5t18.5 78.5v532q0 60 -20.5 118t-71.5 112l120 88
q16 -26 32.5 -50t36 -42t43 -28.5t53.5 -8.5q23 1 39.5 19t35.5 39t45.5 38.5t69.5 17.5q109 0 165 -56.5t56 -168.5v-731zM1896 166q0 37 -25.5 62.5t-63.5 25.5q-37 0 -62 -25.5t-25 -62.5t25 -62.5t62 -25.5q38 0 63.5 25.5t25.5 62.5zM1651 274q12 17 29.5 31t38.5 24.5
t42.5 16.5t41.5 6q38 0 72.5 -13.5t60.5 -38t41.5 -58.5t15.5 -74q0 -41 -13.5 -75t-38.5 -59.5t-59 -39.5t-75 -14q-59 0 -111.5 15t-92.5 50.5t-63.5 93t-23.5 142.5q0 81 33.5 137.5t87.5 92t122 51.5t137 16t118 -22.5t85 -60t62.5 -86.5t50.5 -102q19 -41 33.5 -76.5
t27.5 -61.5t26.5 -41t30.5 -15q24 0 41.5 21.5t29.5 55.5t19 78t11 90t5.5 91.5t1.5 81.5q4 100 -7 171t-32.5 119.5t-50 78.5t-59.5 49q-24 15 -60 26t-75 18t-77 10.5t-66 3.5q-29 0 -53.5 -0.5t-47 -2t-44.5 -4.5t-47 -9q-23 -5 -52.5 -12.5t-55.5 -18t-43.5 -25
t-16.5 -33.5q0 -12 7 -22.5t16.5 -19.5t18.5 -15.5t13 -10.5l-80 -100q-48 24 -79 65.5t-31 98.5q0 54 26 92.5t66.5 65t90 42.5t97.5 25q20 4 48.5 7t59 5.5t59 3.5t48.5 1q38 0 87.5 -4t100 -14t97 -26.5t78.5 -40.5q63 -48 102 -106.5t60.5 -123t29 -132.5t7.5 -134
q0 -91 -4 -175t-19 -157q-11 -55 -29 -100.5t-44 -78t-61.5 -50.5t-81.5 -18q-59 0 -94.5 23.5t-59 60t-41 81.5t-39.5 88q-22 42 -40 81t-41.5 68.5t-58 47t-90.5 17.5q-41 0 -80.5 -10.5t-70.5 -32t-49.5 -54t-18.5 -76.5z" />
    <glyph glyph-name="laoHW.001" horiz-adv-x="2662" 
d="M359 955q0 37 -25 62t-64 25q-37 0 -62 -25t-25 -62q0 -39 25 -64t62 -25q39 0 64 25t25 64zM1278 184q0 -21 -2 -45.5t-6.5 -49t-11.5 -48t-17 -41.5h-158q15 21 26 46t18.5 52t11.5 54t4 53v663q0 22 -1.5 47t-9 45t-24 33.5t-45.5 13.5q-16 0 -33.5 -18t-40 -39
t-51.5 -39t-67 -18q-15 0 -36.5 4t-37.5 17q8 -45 10 -95t2 -92v-422q0 -78 -25 -139t-71 -102t-109.5 -62.5t-140.5 -21.5q-86 0 -155.5 16t-118 53.5t-75 99.5t-26.5 154q0 63 19 124.5t47.5 120t61.5 114t61 106.5q-33 0 -67 11t-61.5 32.5t-45 53.5t-17.5 75t13.5 80
t39 63.5t61.5 41.5t81 15q43 0 79.5 -13.5t63.5 -38.5t42.5 -61.5t15.5 -82.5q0 -45 -19 -96t-48 -106t-62.5 -112.5t-62.5 -115t-48 -113.5t-19 -108q0 -56 19 -91t51 -55t75 -27t91 -7q40 0 79 14t69 39t48.5 60.5t18.5 78.5v532q0 60 -20.5 118t-71.5 112l120 88
q16 -26 32.5 -50t36 -42t43 -28.5t53.5 -8.5q23 1 39.5 19t35.5 39t45.5 38.5t69.5 17.5q109 0 165 -56.5t56 -168.5v-731zM1812 340q0 37 -25 62t-62 25q-39 0 -64 -25t-25 -62q0 -39 25 -64t64 -25q37 0 62 25t25 64zM2531 379q0 -111 -47 -187.5t-123 -123.5t-171 -67.5
t-191 -20.5q-46 0 -99 8.5t-107 26t-104 45t-88.5 64.5t-61.5 85t-23 107q0 47 16 85.5t45 65.5t68.5 41.5t86.5 14.5q84 -1 130 -53t46 -134q0 -75 -35 -123t-105 -56q21 -12 51 -20.5t61 -14t61 -8t51 -2.5q68 0 140 11t130.5 41t96 84t37.5 141v318q0 84 -35.5 141
t-92.5 92.5t-128 51t-141 15.5q-29 0 -66 -3.5t-75.5 -12.5t-75.5 -23.5t-66 -36.5t-47 -51.5t-18 -68.5h-135q0 61 22.5 109t60 84.5t86.5 62.5t103 42t109.5 23.5t105.5 7.5q100 0 195 -24t169 -75t119 -131.5t45 -192.5v-338z" />
    <glyph glyph-name="uni0E4D" unicode="&#xe4d;" 
d="M-616 1436q0 75 61 133q59 59 139 59q79 0 142 -57t63 -135q0 -84 -63 -144q-64 -61 -142 -61t-139 61q-61 64 -61 144zM-408 1542q-24 0 -46 -8.5t-39.5 -23t-28 -34t-10.5 -40.5q0 -50 32.5 -86.5t83.5 -42.5q25 0 47 10t38.5 27t26 39.5t9.5 48.5q0 44 -35 77
q-32 33 -78 33z" />
    <glyph glyph-name="uniE015_a" 
d="M-428 -441q0 18 -7 33.5t-18.5 27t-27 18.5t-33.5 7t-33.5 -7t-27 -18.5t-18.5 -27t-7 -33.5t7 -33.5t18.5 -27t27 -18.5t33.5 -7t33.5 7t27 18.5t18.5 27t7 33.5zM-276 -658q-1 -18 -7 -45.5t-16.5 -58.5t-25 -63.5t-31.5 -60.5l-129 94q36 45 57 93t23 106
q-23 -11 -50.5 -19.5t-52.5 -8.5q-35 0 -68 13.5t-58.5 37.5t-40.5 55.5t-15 67.5q0 40 14.5 73.5t40 57.5t60 37.5t74.5 13.5q51 0 88 -17t62.5 -46t41 -68t23.5 -82.5t10 -89.5t0 -90z" />
    <glyph glyph-name="uniE016_a" 
d="M-676 -464q0 36 -25 61t-63 25q-18 0 -33.5 -6.5t-27 -18.5t-18.5 -27.5t-7 -33.5t7 -34t18.5 -28t27 -19t33.5 -7q38 0 63 25.5t25 62.5zM-291 -644q0 -103 -48.5 -160t-151.5 -57q-60 0 -97.5 16.5t-59 47t-29 73t-7.5 95.5q-18 -11 -42 -18t-44 -7q-38 0 -70 16
t-55.5 42t-37 60t-13.5 70q0 40 14.5 73.5t39.5 58t59 38t73 13.5q42 0 81 -17t69 -46t48 -67t18 -81v-160q0 -32 13 -53t48 -21q38 0 48.5 19t10.5 57v349h133v-341z" />
    <glyph glyph-name="yoyo" unicode="&#xe80;" horiz-adv-x="1200" 
d="M130 312l277 277q-67 68 -139 139.5t-137 136.5l181 181l276 -276l276 275l179 -180l-274 -275q67 -68 138.5 -140t137.5 -136l-181 -181l-276 276l-277 -277zM311 194l277 276l276 -276l119 120l-276 276l274 275l-117 119l-276 -275l-276 276l-119 -120l276 -276
l-277 -277z" />
    <glyph glyph-name="yoyo1" horiz-adv-x="1150" 
d="M46 312l277 277q-67 68 -139 139.5t-137 136.5l181 181l276 -276l276 275l179 -180l-274 -275q67 -68 138.5 -140t137.5 -136l-181 -181l-276 276l-277 -277zM227 194l277 276l276 -276l119 120l-276 276l274 275l-117 119l-276 -275l-276 276l-119 -120l276 -276
l-277 -277z" />
    <glyph glyph-name="uniE021_a" 
d="M-461 1583q0 38 -26 64t-64 26q-18 0 -34.5 -7t-29 -19t-19.5 -28.5t-7 -35.5q0 -37 26.5 -63.5t63.5 -26.5q19 0 35.5 7t28.5 19.5t19 29t7 34.5zM297 1749q1 -111 -44 -196t-120 -142.5t-171 -87t-197 -29.5q-45 0 -100.5 5t-112 17.5t-110 34t-95.5 53.5t-67 76
t-25 103q0 39 13.5 72.5t37.5 58t57 39t72 14.5q34 0 69.5 -13t64.5 -36t47 -55t18 -70q0 -43 -13.5 -75.5t-44.5 -63.5q17 -8 38.5 -14t44 -10.5t44 -6.5t39.5 -2q79 0 154.5 17t134 55.5t94 101t35.5 154.5h137zM-36 1883.95q-24 3.60059 -38 17.5508t-18 33.751
q10 9 23.5 16.6504t26 17.5508t21 22.9502q8.5 13.0508 8.5 31.9512q0 23.4004 -22 36.001t-59 13.5q-27 0 -45.5 -15.2998q-18.5 -15.3008 -33.5 -33.3008q-15 -18.001 -29 -33.3018q-14 -15.2998 -33 -15.2998q-17 0 -31.5 14.8496q-14.5 14.8506 -30.5 33.3018
q-16 18.4502 -35 33.3008t-46 14.8506q-32 0 -55 -9.90039t-23 -36.9014q0 -19.8008 10.5 -34.6514q10.5 -14.8496 25.5 -26.5498t30.5 -21.1514q15.5 -9.4502 25.5 -18.4502q-26 -39.6006 -68 -45.9014q-68 25.2012 -108 60.3018t-39 88.2021q0 32.4014 17.5 58.502
t45.5 43.6514q28 17.5498 64 27.001q36 9.44922 74 9.44922q17 0 37.5 -6.75t40 -16.6504t37 -22.0508t28.5 -22.9502q24 27.001 61 48.6016t82 21.6006q34 0 69.5 -11.7002t64.5 -29.251t47 -39.6016t18 -41.8506q14 16.2002 23.5 28.8008t16 24.751t12 26.1006
t11.5 33.751q29 -2.7002 45.5 -11.7012q16.5 -9 27.5 -27.9004q-15 -44.1016 -36.5 -80.5518q-21.5 -36.4512 -53.5 -65.7021t-78.5 -51.751q-46.5 -22.501 -110.5 -37.8018z" />
    <glyph glyph-name="uniE022_a" 
d="M-461 1504q0 38 -26 64.5t-64 26.5q-18 0 -34.5 -7t-29 -19.5t-19.5 -29t-7 -35.5q0 -37 26.5 -63.5t63.5 -26.5q19 0 35.5 7t28.5 19.5t19 29t7 34.5zM160 1341q0 90 -35.5 152.5t-94 100.5t-134 55t-154.5 17q-18 0 -40.5 -2t-45 -5.5t-43.5 -10t-37 -15.5
q31 -29 44.5 -61.5t13.5 -77.5q0 -38 -18 -69.5t-47 -55t-64.5 -36.5t-69.5 -13q-39 0 -72 14.5t-57 39.5t-37.5 58.5t-13.5 71.5q0 59 25 104t67 77t95.5 53t110 33t112 17t100.5 5q101 0 197 -29t170.5 -86t119.5 -141.5t45 -195.5h-137zM-36 1883.95
q-24 3.60059 -38 17.5508t-18 33.751q10 9 23.5 16.6504t26 17.5508t21 22.9502q8.5 13.0508 8.5 31.9512q0 23.4004 -22 36.001t-59 13.5q-27 0 -45.5 -15.2998q-18.5 -15.3008 -33.5 -33.3008q-15 -18.001 -29 -33.3018q-14 -15.2998 -33 -15.2998q-17 0 -31.5 14.8496
q-14.5 14.8506 -30.5 33.3018q-16 18.4502 -35 33.3008t-46 14.8506q-32 0 -55 -9.90039t-23 -36.9014q0 -19.8008 10.5 -34.6514q10.5 -14.8496 25.5 -26.5498t30.5 -21.1514q15.5 -9.4502 25.5 -18.4502q-26 -39.6006 -68 -45.9014q-68 25.2012 -108 60.3018t-39 88.2021
q0 32.4014 17.5 58.502t45.5 43.6514q28 17.5498 64 27.001q36 9.44922 74 9.44922q17 0 37.5 -6.75t40 -16.6504t37 -22.0508t28.5 -22.9502q24 27.001 61 48.6016t82 21.6006q34 0 69.5 -11.7002t64.5 -29.251t47 -39.6016t18 -41.8506q14 16.2002 23.5 28.8008t16 24.751
t12 26.1006t11.5 33.751q29 -2.7002 45.5 -11.7012q16.5 -9 27.5 -27.9004q-15 -44.1016 -36.5 -80.5518q-21.5 -36.4512 -53.5 -65.7021t-78.5 -51.751q-46.5 -22.501 -110.5 -37.8018z" />
    <glyph glyph-name="uniE023_a" 
d="M-461 1583q0 38 -26 64t-64 26q-18 0 -34.5 -7t-29 -19t-19.5 -28.5t-7 -35.5q0 -37 26.5 -63.5t63.5 -26.5q19 0 35.5 7t28.5 19.5t19 29t7 34.5zM297 1749q1 -111 -44 -196t-120 -142.5t-171 -87t-197 -29.5q-45 0 -100.5 5t-112 17.5t-110 34t-95.5 53.5t-67 76
t-25 103q0 39 13.5 72.5t37.5 58t57 39t72 14.5q34 0 69.5 -13t64.5 -36t47 -55t18 -70q0 -43 -13.5 -75.5t-44.5 -63.5q17 -8 38.5 -14t44 -10.5t44 -6.5t39.5 -2q79 0 154.5 17t134 55.5t94 101t35.5 154.5h137zM-135 1995.55v-130.504h-120v130.504h-141v108.902h142
v135.004h120v-135.004h138v-109.803z" />
    <glyph glyph-name="uniE024_a" 
d="M-461 1504q0 38 -26 64.5t-64 26.5q-18 0 -34.5 -7t-29 -19.5t-19.5 -29t-7 -35.5q0 -37 26.5 -63.5t63.5 -26.5q19 0 35.5 7t28.5 19.5t19 29t7 34.5zM160 1341q0 90 -35.5 152.5t-94 100.5t-134 55t-154.5 17q-18 0 -40.5 -2t-45 -5.5t-43.5 -10t-37 -15.5
q31 -29 44.5 -61.5t13.5 -77.5q0 -38 -18 -69.5t-47 -55t-64.5 -36.5t-69.5 -13q-39 0 -72 14.5t-57 39.5t-37.5 58.5t-13.5 71.5q0 59 25 104t67 77t95.5 53t110 33t112 17t100.5 5q101 0 197 -29t170.5 -86t119.5 -141.5t45 -195.5h-137zM-185 1995.55v-130.504h-120
v130.504h-141v108.902h142v135.004h120v-135.004h138v-109.803z" />
    <glyph glyph-name="uniE025" unicode="&#xe025;" 
d="M-392 1537q0 -43 -17.5 -83t-47.5 -70.5t-70.5 -49t-87.5 -18.5q-45 0 -85.5 16.5t-71 45.5t-49 70t-18.5 89q0 47 17.5 88t47.5 71.5t71 48t88 17.5q45 0 85 -16.5t71 -46t49 -71t18 -91.5zM-515 1541q0 21 -8 39t-21.5 31.5t-31.5 21t-39 7.5q-22 0 -40.5 -8.5t-32 -22
t-21 -31.5t-7.5 -37q0 -39 26.5 -69.5t74.5 -30.5q17 0 34.5 6.5t32 19t24 31t9.5 43.5zM-416 1871q-24 4 -38 19.5t-18 37.5q10 10 23.5 18.5t26 19.5t21 25.5t8.5 35.5q0 26 -22 40t-59 15q-27 0 -45.5 -17t-33.5 -37t-29 -37t-33 -17q-17 0 -31.5 16.5t-30.5 37t-35 37
t-46 16.5q-32 0 -55 -11t-23 -41q0 -22 10.5 -38.5t25.5 -29.5t30.5 -23.5t25.5 -20.5q-26 -44 -68 -51q-68 28 -108 67t-39 98q0 36 17.5 65t45.5 48.5t64 30t74 10.5q17 0 37.5 -7.5t40 -18.5t37 -24.5t28.5 -25.5q24 30 61 54t82 24q34 0 69.5 -13t64.5 -32.5t47 -44
t18 -46.5q14 18 23.5 32t16 27.5t12 29t11.5 37.5q29 -3 45.5 -13t27.5 -31q-15 -49 -36.5 -89.5t-53.5 -73t-78.5 -57.5t-110.5 -42z" />
    <glyph glyph-name="uniE026" unicode="&#xe026;" 
d="M-392 1537q0 -43 -17.5 -83t-47.5 -70.5t-70.5 -49t-87.5 -18.5q-45 0 -85.5 16.5t-71 45.5t-49 70t-18.5 89q0 47 17.5 88t47.5 71.5t71 48t88 17.5q45 0 85 -16.5t71 -46t49 -71t18 -91.5zM-515 1541q0 21 -8 39t-21.5 31.5t-31.5 21t-39 7.5q-22 0 -40.5 -8.5t-32 -22
t-21 -31.5t-7.5 -37q0 -39 26.5 -69.5t74.5 -30.5q17 0 34.5 6.5t32 19t24 31t9.5 43.5zM-556 1995v-145h-120v145h-141v121h142v150h120v-150h138v-122z" />
    <glyph glyph-name="uni00A0" unicode="&#xa0;" horiz-adv-x="512" 
 />
    <glyph glyph-name="uni00AD" unicode="&#xad;" horiz-adv-x="818" 
d="M31 535h620v-150h-620v150z" />
  </font>
</defs>
</svg>
